%TF.GenerationSoftware,KiCad,Pcbnew,8.0.5*%
%TF.CreationDate,2024-10-29T11:55:11-06:00*%
%TF.ProjectId,KiCad_LSD_Test,4b694361-645f-44c5-9344-5f546573742e,rev?*%
%TF.SameCoordinates,Original*%
%TF.FileFunction,Copper,L2,Bot*%
%TF.FilePolarity,Positive*%
%FSLAX46Y46*%
G04 Gerber Fmt 4.6, Leading zero omitted, Abs format (unit mm)*
G04 Created by KiCad (PCBNEW 8.0.5) date 2024-10-29 11:55:11*
%MOMM*%
%LPD*%
G01*
G04 APERTURE LIST*
%TA.AperFunction,ComponentPad*%
%ADD10R,0.850000X0.850000*%
%TD*%
%TA.AperFunction,ComponentPad*%
%ADD11O,0.850000X0.850000*%
%TD*%
%TA.AperFunction,ViaPad*%
%ADD12C,1.200000*%
%TD*%
G04 APERTURE END LIST*
D10*
%TO.P,J1,1,Pin_1*%
%TO.N,GND*%
X119000000Y-31500000D03*
D11*
%TO.P,J1,2,Pin_2*%
%TO.N,3V3*%
X117500000Y-31500000D03*
%TD*%
D10*
%TO.P,J5,1,Pin_1*%
%TO.N,GND*%
X119000000Y-38500000D03*
D11*
%TO.P,J5,2,Pin_2*%
%TO.N,5V*%
X117500000Y-38500000D03*
%TD*%
D10*
%TO.P,J2,1,Pin_1*%
%TO.N,GND*%
X119000000Y-52000000D03*
D11*
%TO.P,J2,2,Pin_2*%
%TO.N,VBAT*%
X117500000Y-52000000D03*
%TD*%
D10*
%TO.P,J4,1,Pin_1*%
%TO.N,GND*%
X119000000Y-45500000D03*
D11*
%TO.P,J4,2,Pin_2*%
%TO.N,VBAT*%
X117500000Y-45500000D03*
%TD*%
D10*
%TO.P,J3,1,Pin_1*%
%TO.N,gate_driver_2_base*%
X116500000Y-61250000D03*
D11*
%TO.P,J3,2,Pin_2*%
%TO.N,lsd_in_2*%
X118000000Y-61250000D03*
%TO.P,J3,3,Pin_3*%
%TO.N,VBAT*%
X119500000Y-61250000D03*
%TD*%
D10*
%TO.P,J6,1,Pin_1*%
%TO.N,gate_driver_1_base*%
X116500000Y-82000000D03*
D11*
%TO.P,J6,2,Pin_2*%
%TO.N,lsd_in_1*%
X118000000Y-82000000D03*
%TO.P,J6,3,Pin_3*%
%TO.N,VBAT*%
X119500000Y-82000000D03*
%TD*%
D12*
%TO.N,GND*%
X112500000Y-45000000D03*
X112500000Y-92500000D03*
X112500000Y-72500000D03*
X115000000Y-66500000D03*
X112500000Y-95000000D03*
X112500000Y-43000000D03*
X112500000Y-75000000D03*
X115000000Y-64500000D03*
X115250000Y-85500000D03*
%TD*%
%TA.AperFunction,Conductor*%
%TO.N,GND*%
G36*
X120942539Y-28020185D02*
G01*
X120988294Y-28072989D01*
X120999500Y-28124500D01*
X120999500Y-98875500D01*
X120979815Y-98942539D01*
X120927011Y-98988294D01*
X120875500Y-98999500D01*
X93124500Y-98999500D01*
X93057461Y-98979815D01*
X93011706Y-98927011D01*
X93000500Y-98875500D01*
X93000500Y-81527135D01*
X115574500Y-81527135D01*
X115574500Y-82472870D01*
X115574501Y-82472876D01*
X115580908Y-82532483D01*
X115631202Y-82667328D01*
X115631206Y-82667335D01*
X115717452Y-82782544D01*
X115717455Y-82782547D01*
X115832664Y-82868793D01*
X115832671Y-82868797D01*
X115967517Y-82919091D01*
X115967516Y-82919091D01*
X115974444Y-82919835D01*
X116027127Y-82925500D01*
X116972872Y-82925499D01*
X117032483Y-82919091D01*
X117167331Y-82868796D01*
X117282546Y-82782546D01*
X117286783Y-82776885D01*
X117342715Y-82735013D01*
X117412407Y-82730027D01*
X117458935Y-82750874D01*
X117502527Y-82782546D01*
X117534702Y-82805923D01*
X117602926Y-82836297D01*
X117712429Y-82885051D01*
X117902726Y-82925500D01*
X118097274Y-82925500D01*
X118287571Y-82885051D01*
X118465299Y-82805922D01*
X118622692Y-82691569D01*
X118657849Y-82652522D01*
X118717335Y-82615874D01*
X118787192Y-82617203D01*
X118842151Y-82652523D01*
X118877303Y-82691565D01*
X118877305Y-82691566D01*
X118877308Y-82691569D01*
X118958937Y-82750876D01*
X119034702Y-82805923D01*
X119102926Y-82836297D01*
X119212429Y-82885051D01*
X119402726Y-82925500D01*
X119597274Y-82925500D01*
X119787571Y-82885051D01*
X119965299Y-82805922D01*
X120122692Y-82691569D01*
X120144513Y-82667335D01*
X120157849Y-82652523D01*
X120252870Y-82546992D01*
X120350144Y-82378508D01*
X120410262Y-82193482D01*
X120430598Y-82000000D01*
X120410262Y-81806518D01*
X120350144Y-81621492D01*
X120350143Y-81621491D01*
X120350143Y-81621489D01*
X120350142Y-81621488D01*
X120295667Y-81527135D01*
X120252870Y-81453008D01*
X120189650Y-81382795D01*
X120122697Y-81308435D01*
X120122694Y-81308433D01*
X120122693Y-81308432D01*
X120122692Y-81308431D01*
X119997475Y-81217455D01*
X119965297Y-81194076D01*
X119824076Y-81131202D01*
X119787571Y-81114949D01*
X119787569Y-81114948D01*
X119597274Y-81074500D01*
X119402726Y-81074500D01*
X119212431Y-81114948D01*
X119034702Y-81194076D01*
X118877306Y-81308432D01*
X118842149Y-81347478D01*
X118782662Y-81384126D01*
X118712805Y-81382795D01*
X118657851Y-81347478D01*
X118622693Y-81308432D01*
X118465297Y-81194076D01*
X118324076Y-81131202D01*
X118287571Y-81114949D01*
X118287569Y-81114948D01*
X118097274Y-81074500D01*
X117902726Y-81074500D01*
X117712431Y-81114948D01*
X117534703Y-81194076D01*
X117458936Y-81249124D01*
X117393129Y-81272603D01*
X117325075Y-81256777D01*
X117286785Y-81223117D01*
X117282546Y-81217454D01*
X117282543Y-81217452D01*
X117167331Y-81131204D01*
X117167329Y-81131203D01*
X117167328Y-81131202D01*
X117032482Y-81080908D01*
X117032483Y-81080908D01*
X116972883Y-81074501D01*
X116972881Y-81074500D01*
X116972873Y-81074500D01*
X116972864Y-81074500D01*
X116027129Y-81074500D01*
X116027123Y-81074501D01*
X115967516Y-81080908D01*
X115832671Y-81131202D01*
X115832664Y-81131206D01*
X115717455Y-81217452D01*
X115717452Y-81217455D01*
X115631206Y-81332664D01*
X115631202Y-81332671D01*
X115580908Y-81467517D01*
X115574501Y-81527116D01*
X115574500Y-81527135D01*
X93000500Y-81527135D01*
X93000500Y-60777135D01*
X115574500Y-60777135D01*
X115574500Y-61722870D01*
X115574501Y-61722876D01*
X115580908Y-61782483D01*
X115631202Y-61917328D01*
X115631206Y-61917335D01*
X115717452Y-62032544D01*
X115717455Y-62032547D01*
X115832664Y-62118793D01*
X115832671Y-62118797D01*
X115967517Y-62169091D01*
X115967516Y-62169091D01*
X115974444Y-62169835D01*
X116027127Y-62175500D01*
X116972872Y-62175499D01*
X117032483Y-62169091D01*
X117167331Y-62118796D01*
X117282546Y-62032546D01*
X117286783Y-62026885D01*
X117342715Y-61985013D01*
X117412407Y-61980027D01*
X117458935Y-62000874D01*
X117502527Y-62032546D01*
X117534702Y-62055923D01*
X117602926Y-62086297D01*
X117712429Y-62135051D01*
X117902726Y-62175500D01*
X118097274Y-62175500D01*
X118287571Y-62135051D01*
X118465299Y-62055922D01*
X118622692Y-61941569D01*
X118657849Y-61902522D01*
X118717335Y-61865874D01*
X118787192Y-61867203D01*
X118842151Y-61902523D01*
X118877303Y-61941565D01*
X118877305Y-61941566D01*
X118877308Y-61941569D01*
X118958937Y-62000876D01*
X119034702Y-62055923D01*
X119102926Y-62086297D01*
X119212429Y-62135051D01*
X119402726Y-62175500D01*
X119597274Y-62175500D01*
X119787571Y-62135051D01*
X119965299Y-62055922D01*
X120122692Y-61941569D01*
X120144513Y-61917335D01*
X120157849Y-61902523D01*
X120252870Y-61796992D01*
X120350144Y-61628508D01*
X120410262Y-61443482D01*
X120430598Y-61250000D01*
X120410262Y-61056518D01*
X120350144Y-60871492D01*
X120350143Y-60871491D01*
X120350143Y-60871489D01*
X120350142Y-60871488D01*
X120295667Y-60777135D01*
X120252870Y-60703008D01*
X120189650Y-60632795D01*
X120122697Y-60558435D01*
X120122694Y-60558433D01*
X120122693Y-60558432D01*
X120122692Y-60558431D01*
X119997475Y-60467455D01*
X119965297Y-60444076D01*
X119824076Y-60381202D01*
X119787571Y-60364949D01*
X119787569Y-60364948D01*
X119597274Y-60324500D01*
X119402726Y-60324500D01*
X119212431Y-60364948D01*
X119034702Y-60444076D01*
X118877306Y-60558432D01*
X118842149Y-60597478D01*
X118782662Y-60634126D01*
X118712805Y-60632795D01*
X118657851Y-60597478D01*
X118622693Y-60558432D01*
X118465297Y-60444076D01*
X118324076Y-60381202D01*
X118287571Y-60364949D01*
X118287569Y-60364948D01*
X118097274Y-60324500D01*
X117902726Y-60324500D01*
X117712431Y-60364948D01*
X117534703Y-60444076D01*
X117458936Y-60499124D01*
X117393129Y-60522603D01*
X117325075Y-60506777D01*
X117286785Y-60473117D01*
X117282546Y-60467454D01*
X117282543Y-60467452D01*
X117167331Y-60381204D01*
X117167329Y-60381203D01*
X117167328Y-60381202D01*
X117032482Y-60330908D01*
X117032483Y-60330908D01*
X116972883Y-60324501D01*
X116972881Y-60324500D01*
X116972873Y-60324500D01*
X116972864Y-60324500D01*
X116027129Y-60324500D01*
X116027123Y-60324501D01*
X115967516Y-60330908D01*
X115832671Y-60381202D01*
X115832664Y-60381206D01*
X115717455Y-60467452D01*
X115717452Y-60467455D01*
X115631206Y-60582664D01*
X115631202Y-60582671D01*
X115580908Y-60717517D01*
X115574501Y-60777116D01*
X115574500Y-60777135D01*
X93000500Y-60777135D01*
X93000500Y-52000000D01*
X116569402Y-52000000D01*
X116589738Y-52193483D01*
X116649856Y-52378510D01*
X116649857Y-52378511D01*
X116730159Y-52517597D01*
X116747130Y-52546992D01*
X116792476Y-52597354D01*
X116877302Y-52691564D01*
X116877305Y-52691566D01*
X116877308Y-52691569D01*
X116995352Y-52777333D01*
X117034702Y-52805923D01*
X117102926Y-52836297D01*
X117212429Y-52885051D01*
X117402726Y-52925500D01*
X117597274Y-52925500D01*
X117787571Y-52885051D01*
X117965299Y-52805922D01*
X118122692Y-52691569D01*
X118252870Y-52546992D01*
X118350144Y-52378508D01*
X118410262Y-52193482D01*
X118430598Y-52000000D01*
X118410262Y-51806518D01*
X118350144Y-51621492D01*
X118350143Y-51621491D01*
X118350143Y-51621489D01*
X118350142Y-51621488D01*
X118316202Y-51562703D01*
X118252870Y-51453008D01*
X118201882Y-51396381D01*
X118122697Y-51308435D01*
X118122694Y-51308433D01*
X118122693Y-51308432D01*
X118122692Y-51308431D01*
X118043995Y-51251254D01*
X117965297Y-51194076D01*
X117828848Y-51133326D01*
X117787571Y-51114949D01*
X117787569Y-51114948D01*
X117597274Y-51074500D01*
X117402726Y-51074500D01*
X117212431Y-51114948D01*
X117034702Y-51194076D01*
X116877305Y-51308433D01*
X116877302Y-51308435D01*
X116747129Y-51453009D01*
X116649857Y-51621488D01*
X116649856Y-51621489D01*
X116589738Y-51806516D01*
X116569402Y-52000000D01*
X93000500Y-52000000D01*
X93000500Y-45500000D01*
X116569402Y-45500000D01*
X116589738Y-45693483D01*
X116649856Y-45878510D01*
X116649857Y-45878511D01*
X116730159Y-46017597D01*
X116747130Y-46046992D01*
X116792476Y-46097354D01*
X116877302Y-46191564D01*
X116877305Y-46191566D01*
X116877308Y-46191569D01*
X116995352Y-46277333D01*
X117034702Y-46305923D01*
X117102926Y-46336297D01*
X117212429Y-46385051D01*
X117402726Y-46425500D01*
X117597274Y-46425500D01*
X117787571Y-46385051D01*
X117965299Y-46305922D01*
X118122692Y-46191569D01*
X118252870Y-46046992D01*
X118350144Y-45878508D01*
X118410262Y-45693482D01*
X118430598Y-45500000D01*
X118410262Y-45306518D01*
X118350144Y-45121492D01*
X118350143Y-45121491D01*
X118350143Y-45121489D01*
X118350142Y-45121488D01*
X118316202Y-45062703D01*
X118252870Y-44953008D01*
X118201882Y-44896381D01*
X118122697Y-44808435D01*
X118122694Y-44808433D01*
X118122693Y-44808432D01*
X118122692Y-44808431D01*
X118043995Y-44751254D01*
X117965297Y-44694076D01*
X117828848Y-44633326D01*
X117787571Y-44614949D01*
X117787569Y-44614948D01*
X117597274Y-44574500D01*
X117402726Y-44574500D01*
X117212431Y-44614948D01*
X117034702Y-44694076D01*
X116877305Y-44808433D01*
X116877302Y-44808435D01*
X116747129Y-44953009D01*
X116649857Y-45121488D01*
X116649856Y-45121489D01*
X116589738Y-45306516D01*
X116569402Y-45500000D01*
X93000500Y-45500000D01*
X93000500Y-38500000D01*
X116569402Y-38500000D01*
X116589738Y-38693483D01*
X116649856Y-38878510D01*
X116649857Y-38878511D01*
X116730159Y-39017597D01*
X116747130Y-39046992D01*
X116792476Y-39097354D01*
X116877302Y-39191564D01*
X116877305Y-39191566D01*
X116877308Y-39191569D01*
X116995352Y-39277333D01*
X117034702Y-39305923D01*
X117102926Y-39336297D01*
X117212429Y-39385051D01*
X117402726Y-39425500D01*
X117597274Y-39425500D01*
X117787571Y-39385051D01*
X117965299Y-39305922D01*
X118122692Y-39191569D01*
X118252870Y-39046992D01*
X118350144Y-38878508D01*
X118410262Y-38693482D01*
X118430598Y-38500000D01*
X118410262Y-38306518D01*
X118350144Y-38121492D01*
X118350143Y-38121491D01*
X118350143Y-38121489D01*
X118350142Y-38121488D01*
X118316202Y-38062703D01*
X118252870Y-37953008D01*
X118201882Y-37896381D01*
X118122697Y-37808435D01*
X118122694Y-37808433D01*
X118122693Y-37808432D01*
X118122692Y-37808431D01*
X118043995Y-37751254D01*
X117965297Y-37694076D01*
X117828848Y-37633326D01*
X117787571Y-37614949D01*
X117787569Y-37614948D01*
X117597274Y-37574500D01*
X117402726Y-37574500D01*
X117212431Y-37614948D01*
X117034702Y-37694076D01*
X116877305Y-37808433D01*
X116877302Y-37808435D01*
X116747129Y-37953009D01*
X116649857Y-38121488D01*
X116649856Y-38121489D01*
X116589738Y-38306516D01*
X116569402Y-38500000D01*
X93000500Y-38500000D01*
X93000500Y-31500000D01*
X116569402Y-31500000D01*
X116589738Y-31693483D01*
X116649856Y-31878510D01*
X116649857Y-31878511D01*
X116730159Y-32017597D01*
X116747130Y-32046992D01*
X116792476Y-32097354D01*
X116877302Y-32191564D01*
X116877305Y-32191566D01*
X116877308Y-32191569D01*
X116995352Y-32277333D01*
X117034702Y-32305923D01*
X117102926Y-32336297D01*
X117212429Y-32385051D01*
X117402726Y-32425500D01*
X117597274Y-32425500D01*
X117787571Y-32385051D01*
X117965299Y-32305922D01*
X118122692Y-32191569D01*
X118252870Y-32046992D01*
X118350144Y-31878508D01*
X118410262Y-31693482D01*
X118430598Y-31500000D01*
X118410262Y-31306518D01*
X118350144Y-31121492D01*
X118350143Y-31121491D01*
X118350143Y-31121489D01*
X118350142Y-31121488D01*
X118316202Y-31062703D01*
X118252870Y-30953008D01*
X118201882Y-30896381D01*
X118122697Y-30808435D01*
X118122694Y-30808433D01*
X118122693Y-30808432D01*
X118122692Y-30808431D01*
X118043995Y-30751254D01*
X117965297Y-30694076D01*
X117828848Y-30633326D01*
X117787571Y-30614949D01*
X117787569Y-30614948D01*
X117597274Y-30574500D01*
X117402726Y-30574500D01*
X117212431Y-30614948D01*
X117034702Y-30694076D01*
X116877305Y-30808433D01*
X116877302Y-30808435D01*
X116747129Y-30953009D01*
X116649857Y-31121488D01*
X116649856Y-31121489D01*
X116589738Y-31306516D01*
X116569402Y-31500000D01*
X93000500Y-31500000D01*
X93000500Y-28124500D01*
X93020185Y-28057461D01*
X93072989Y-28011706D01*
X93124500Y-28000500D01*
X120875500Y-28000500D01*
X120942539Y-28020185D01*
G37*
%TD.AperFunction*%
%TD*%
M02*
