%TF.GenerationSoftware,KiCad,Pcbnew,8.0.5*%
%TF.CreationDate,2024-10-29T11:55:11-06:00*%
%TF.ProjectId,KiCad_LSD_Test,4b694361-645f-44c5-9344-5f546573742e,rev?*%
%TF.SameCoordinates,Original*%
%TF.FileFunction,Copper,L1,Top*%
%TF.FilePolarity,Positive*%
%FSLAX46Y46*%
G04 Gerber Fmt 4.6, Leading zero omitted, Abs format (unit mm)*
G04 Created by KiCad (PCBNEW 8.0.5) date 2024-10-29 11:55:11*
%MOMM*%
%LPD*%
G01*
G04 APERTURE LIST*
G04 Aperture macros list*
%AMRoundRect*
0 Rectangle with rounded corners*
0 $1 Rounding radius*
0 $2 $3 $4 $5 $6 $7 $8 $9 X,Y pos of 4 corners*
0 Add a 4 corners polygon primitive as box body*
4,1,4,$2,$3,$4,$5,$6,$7,$8,$9,$2,$3,0*
0 Add four circle primitives for the rounded corners*
1,1,$1+$1,$2,$3*
1,1,$1+$1,$4,$5*
1,1,$1+$1,$6,$7*
1,1,$1+$1,$8,$9*
0 Add four rect primitives between the rounded corners*
20,1,$1+$1,$2,$3,$4,$5,0*
20,1,$1+$1,$4,$5,$6,$7,0*
20,1,$1+$1,$6,$7,$8,$9,0*
20,1,$1+$1,$8,$9,$2,$3,0*%
G04 Aperture macros list end*
%ADD10C,0.250000*%
%ADD11C,0.375000*%
%TA.AperFunction,ComponentPad*%
%ADD12R,0.850000X0.850000*%
%TD*%
%TA.AperFunction,ComponentPad*%
%ADD13O,0.850000X0.850000*%
%TD*%
%TA.AperFunction,SMDPad,CuDef*%
%ADD14RoundRect,0.250000X0.337500X0.475000X-0.337500X0.475000X-0.337500X-0.475000X0.337500X-0.475000X0*%
%TD*%
%TA.AperFunction,SMDPad,CuDef*%
%ADD15RoundRect,0.150000X-0.587500X-0.150000X0.587500X-0.150000X0.587500X0.150000X-0.587500X0.150000X0*%
%TD*%
%TA.AperFunction,SMDPad,CuDef*%
%ADD16R,0.965200X1.701800*%
%TD*%
%TA.AperFunction,SMDPad,CuDef*%
%ADD17R,0.355600X0.787400*%
%TD*%
%TA.AperFunction,SMDPad,CuDef*%
%ADD18RoundRect,0.250000X-0.475000X0.337500X-0.475000X-0.337500X0.475000X-0.337500X0.475000X0.337500X0*%
%TD*%
%TA.AperFunction,SMDPad,CuDef*%
%ADD19RoundRect,0.250000X-0.450000X0.325000X-0.450000X-0.325000X0.450000X-0.325000X0.450000X0.325000X0*%
%TD*%
%TA.AperFunction,SMDPad,CuDef*%
%ADD20RoundRect,0.250000X-0.337500X-0.475000X0.337500X-0.475000X0.337500X0.475000X-0.337500X0.475000X0*%
%TD*%
%TA.AperFunction,SMDPad,CuDef*%
%ADD21R,0.950000X2.150000*%
%TD*%
%TA.AperFunction,SMDPad,CuDef*%
%ADD22R,3.250000X2.150000*%
%TD*%
%TA.AperFunction,ViaPad*%
%ADD23C,1.200000*%
%TD*%
%TA.AperFunction,Conductor*%
%ADD24C,0.500000*%
%TD*%
%TA.AperFunction,Conductor*%
%ADD25C,0.250000*%
%TD*%
%TA.AperFunction,Conductor*%
%ADD26C,0.200000*%
%TD*%
%TA.AperFunction,Conductor*%
%ADD27C,0.700000*%
%TD*%
%TA.AperFunction,Conductor*%
%ADD28C,1.000000*%
%TD*%
G04 APERTURE END LIST*
D10*
G36*
X116113637Y-49989306D02*
G01*
X114615601Y-49989306D01*
X114615601Y-49057988D01*
X114740601Y-49057988D01*
X114744058Y-49106637D01*
X114765870Y-49150262D01*
X114802716Y-49182217D01*
X114825091Y-49192207D01*
X115469335Y-49406955D01*
X114825091Y-49621703D01*
X114802716Y-49631693D01*
X114765870Y-49663648D01*
X114744058Y-49707273D01*
X114740601Y-49755922D01*
X114756024Y-49802191D01*
X114787979Y-49839037D01*
X114831604Y-49860849D01*
X114880253Y-49864306D01*
X114904147Y-49858873D01*
X115904147Y-49525541D01*
X115926522Y-49515550D01*
X115933269Y-49509698D01*
X115941258Y-49505704D01*
X115951524Y-49493866D01*
X115963368Y-49483595D01*
X115967363Y-49475603D01*
X115973214Y-49468858D01*
X115978169Y-49453993D01*
X115985180Y-49439971D01*
X115985813Y-49431060D01*
X115988637Y-49422589D01*
X115987526Y-49406955D01*
X115988637Y-49391321D01*
X115985813Y-49382849D01*
X115985180Y-49373939D01*
X115978169Y-49359917D01*
X115973214Y-49345052D01*
X115967363Y-49338306D01*
X115963368Y-49330315D01*
X115951524Y-49320043D01*
X115941258Y-49308206D01*
X115933269Y-49304211D01*
X115926522Y-49298360D01*
X115904147Y-49288369D01*
X114904147Y-48955037D01*
X114880253Y-48949604D01*
X114831604Y-48953061D01*
X114787979Y-48974873D01*
X114756024Y-49011719D01*
X114740601Y-49057988D01*
X114615601Y-49057988D01*
X114615601Y-48715902D01*
X114742021Y-48715902D01*
X114742021Y-48764674D01*
X114760685Y-48809734D01*
X114760690Y-48809739D01*
X114776231Y-48828676D01*
X114823849Y-48876295D01*
X114842791Y-48891840D01*
X114887851Y-48910505D01*
X114936625Y-48910505D01*
X114981684Y-48891840D01*
X115000626Y-48876295D01*
X115048245Y-48828677D01*
X115063790Y-48809735D01*
X115063791Y-48809734D01*
X115078904Y-48773245D01*
X115094018Y-48809734D01*
X115128506Y-48844222D01*
X115173566Y-48862886D01*
X115197952Y-48865288D01*
X115864619Y-48865288D01*
X115889005Y-48862886D01*
X115934065Y-48844222D01*
X115968553Y-48809734D01*
X115987217Y-48764674D01*
X115987217Y-48715902D01*
X115968553Y-48670842D01*
X115934065Y-48636354D01*
X115889005Y-48617690D01*
X115864619Y-48615288D01*
X115197952Y-48615288D01*
X115173566Y-48617690D01*
X115128506Y-48636354D01*
X115094018Y-48670842D01*
X115078904Y-48707330D01*
X115063791Y-48670842D01*
X115063790Y-48670841D01*
X115048245Y-48651899D01*
X115000626Y-48604281D01*
X114981684Y-48588736D01*
X114936625Y-48570071D01*
X114936624Y-48570071D01*
X114887851Y-48570071D01*
X114842791Y-48588736D01*
X114823849Y-48604281D01*
X114776231Y-48651900D01*
X114760690Y-48670836D01*
X114760685Y-48670842D01*
X114742021Y-48715902D01*
X114615601Y-48715902D01*
X114615601Y-47978384D01*
X115072952Y-47978384D01*
X115072952Y-48121241D01*
X115075354Y-48145627D01*
X115077072Y-48149775D01*
X115077391Y-48154257D01*
X115086149Y-48177143D01*
X115094608Y-48194061D01*
X115094018Y-48194652D01*
X115075354Y-48239712D01*
X115075354Y-48288484D01*
X115094018Y-48333544D01*
X115128506Y-48368032D01*
X115173566Y-48386696D01*
X115197952Y-48389098D01*
X115864619Y-48389098D01*
X115889005Y-48386696D01*
X115934065Y-48368032D01*
X115968553Y-48333544D01*
X115987217Y-48288484D01*
X115987217Y-48239712D01*
X115968553Y-48194652D01*
X115934065Y-48160164D01*
X115889005Y-48141500D01*
X115864619Y-48139098D01*
X115346634Y-48139098D01*
X115322952Y-48091733D01*
X115322952Y-48007892D01*
X115338740Y-47976315D01*
X115370318Y-47960527D01*
X115864619Y-47960527D01*
X115889005Y-47958125D01*
X115934065Y-47939461D01*
X115968553Y-47904973D01*
X115987217Y-47859913D01*
X115987217Y-47811141D01*
X115968553Y-47766081D01*
X115934065Y-47731593D01*
X115889005Y-47712929D01*
X115864619Y-47710527D01*
X115340809Y-47710527D01*
X115316423Y-47712929D01*
X115312273Y-47714647D01*
X115307793Y-47714966D01*
X115284907Y-47723724D01*
X115189669Y-47771343D01*
X115185592Y-47773909D01*
X115183667Y-47774551D01*
X115181268Y-47776630D01*
X115168932Y-47784397D01*
X115158662Y-47796237D01*
X115146822Y-47806507D01*
X115139055Y-47818844D01*
X115136976Y-47821242D01*
X115136334Y-47823166D01*
X115133767Y-47827245D01*
X115086149Y-47922482D01*
X115077391Y-47945368D01*
X115077072Y-47949849D01*
X115075354Y-47953998D01*
X115072952Y-47978384D01*
X114615601Y-47978384D01*
X114615601Y-47585527D01*
X116113637Y-47585527D01*
X116113637Y-49989306D01*
G37*
G36*
X118114619Y-37394466D02*
G01*
X116614619Y-37394466D01*
X116614619Y-36621241D01*
X116739619Y-36621241D01*
X116739619Y-37097431D01*
X116740507Y-37106451D01*
X116740203Y-37109497D01*
X116741100Y-37112471D01*
X116742021Y-37121817D01*
X116749013Y-37138698D01*
X116754291Y-37156191D01*
X116758276Y-37161062D01*
X116760685Y-37166877D01*
X116773605Y-37179797D01*
X116785176Y-37193939D01*
X116790722Y-37196914D01*
X116795173Y-37201365D01*
X116812055Y-37208357D01*
X116828155Y-37216994D01*
X116837362Y-37218840D01*
X116840233Y-37220029D01*
X116843293Y-37220029D01*
X116852181Y-37221811D01*
X117328371Y-37269430D01*
X117352875Y-37269466D01*
X117358901Y-37267648D01*
X117365195Y-37267648D01*
X117382073Y-37260656D01*
X117399569Y-37255378D01*
X117404442Y-37251390D01*
X117410255Y-37248983D01*
X117423170Y-37236067D01*
X117437317Y-37224493D01*
X117440293Y-37218944D01*
X117444742Y-37214496D01*
X117451732Y-37197618D01*
X117460372Y-37181514D01*
X117460998Y-37175250D01*
X117463407Y-37169436D01*
X117463407Y-37151164D01*
X117465225Y-37132984D01*
X117463407Y-37126958D01*
X117463407Y-37120663D01*
X117456414Y-37103782D01*
X117451137Y-37086290D01*
X117447150Y-37081417D01*
X117444742Y-37075603D01*
X117429197Y-37056661D01*
X117395921Y-37023386D01*
X117370571Y-36972685D01*
X117370571Y-36793606D01*
X117395921Y-36742904D01*
X117414854Y-36723972D01*
X117465556Y-36698622D01*
X117644634Y-36698622D01*
X117695336Y-36723973D01*
X117714268Y-36742905D01*
X117739619Y-36793606D01*
X117739619Y-36972684D01*
X117714268Y-37023385D01*
X117680993Y-37056661D01*
X117665447Y-37075603D01*
X117646782Y-37120662D01*
X117646782Y-37169435D01*
X117665446Y-37214495D01*
X117699933Y-37248983D01*
X117744992Y-37267648D01*
X117793765Y-37267648D01*
X117838825Y-37248984D01*
X117857767Y-37233439D01*
X117905387Y-37185820D01*
X117913256Y-37176231D01*
X117915749Y-37174070D01*
X117918112Y-37170315D01*
X117920933Y-37166879D01*
X117922197Y-37163825D01*
X117928803Y-37153333D01*
X117976422Y-37058095D01*
X117985180Y-37035209D01*
X117985498Y-37030728D01*
X117987217Y-37026579D01*
X117989619Y-37002193D01*
X117989619Y-36764098D01*
X117987217Y-36739712D01*
X117985498Y-36735562D01*
X117985180Y-36731082D01*
X117976422Y-36708196D01*
X117928803Y-36612958D01*
X117922197Y-36602465D01*
X117920933Y-36599412D01*
X117918112Y-36595975D01*
X117915749Y-36592221D01*
X117913256Y-36590059D01*
X117905387Y-36580471D01*
X117857767Y-36532852D01*
X117848182Y-36524986D01*
X117846019Y-36522492D01*
X117842258Y-36520124D01*
X117838825Y-36517307D01*
X117835777Y-36516044D01*
X117825281Y-36509437D01*
X117730044Y-36461819D01*
X117707158Y-36453061D01*
X117702676Y-36452742D01*
X117698528Y-36451024D01*
X117674142Y-36448622D01*
X117436047Y-36448622D01*
X117411661Y-36451024D01*
X117407511Y-36452742D01*
X117403031Y-36453061D01*
X117380145Y-36461819D01*
X117284907Y-36509438D01*
X117274412Y-36516044D01*
X117271362Y-36517308D01*
X117267927Y-36520126D01*
X117264170Y-36522492D01*
X117262008Y-36524983D01*
X117252420Y-36532853D01*
X117204802Y-36580472D01*
X117196935Y-36590057D01*
X117194441Y-36592221D01*
X117192072Y-36595982D01*
X117189257Y-36599414D01*
X117187995Y-36602460D01*
X117181386Y-36612959D01*
X117133768Y-36708196D01*
X117125010Y-36731082D01*
X117124691Y-36735563D01*
X117122973Y-36739712D01*
X117120571Y-36764098D01*
X117120571Y-36997402D01*
X116989619Y-36984307D01*
X116989619Y-36621241D01*
X116987217Y-36596855D01*
X116968553Y-36551795D01*
X116934065Y-36517307D01*
X116889005Y-36498643D01*
X116840233Y-36498643D01*
X116795173Y-36517307D01*
X116760685Y-36551795D01*
X116742021Y-36596855D01*
X116739619Y-36621241D01*
X116614619Y-36621241D01*
X116614619Y-35605607D01*
X116740601Y-35605607D01*
X116744058Y-35654256D01*
X116765870Y-35697881D01*
X116802716Y-35729836D01*
X116825091Y-35739826D01*
X117469335Y-35954574D01*
X116825091Y-36169322D01*
X116802716Y-36179312D01*
X116765870Y-36211267D01*
X116744058Y-36254892D01*
X116740601Y-36303541D01*
X116756024Y-36349810D01*
X116787979Y-36386656D01*
X116831604Y-36408468D01*
X116880253Y-36411925D01*
X116904147Y-36406492D01*
X117904147Y-36073160D01*
X117926522Y-36063169D01*
X117933269Y-36057317D01*
X117941258Y-36053323D01*
X117951524Y-36041485D01*
X117963368Y-36031214D01*
X117967363Y-36023222D01*
X117973214Y-36016477D01*
X117978169Y-36001612D01*
X117985180Y-35987590D01*
X117985813Y-35978679D01*
X117988637Y-35970208D01*
X117987526Y-35954574D01*
X117988637Y-35938940D01*
X117985813Y-35930468D01*
X117985180Y-35921558D01*
X117978169Y-35907536D01*
X117973214Y-35892671D01*
X117967363Y-35885925D01*
X117963368Y-35877934D01*
X117951524Y-35867662D01*
X117941258Y-35855825D01*
X117933269Y-35851830D01*
X117926522Y-35845979D01*
X117904147Y-35835988D01*
X116904147Y-35502656D01*
X116880253Y-35497223D01*
X116831604Y-35500680D01*
X116787979Y-35522492D01*
X116756024Y-35559338D01*
X116740601Y-35605607D01*
X116614619Y-35605607D01*
X116614619Y-34002193D01*
X116739619Y-34002193D01*
X116739619Y-34621240D01*
X116742021Y-34645626D01*
X116760685Y-34690686D01*
X116795173Y-34725174D01*
X116840233Y-34743838D01*
X116889005Y-34743838D01*
X116934065Y-34725174D01*
X116968553Y-34690686D01*
X116987217Y-34645626D01*
X116989619Y-34621240D01*
X116989619Y-34277663D01*
X117163258Y-34429598D01*
X117173798Y-34437133D01*
X117176125Y-34439460D01*
X117178330Y-34440373D01*
X117183192Y-34443849D01*
X117202430Y-34450355D01*
X117221185Y-34458124D01*
X117225399Y-34458124D01*
X117229393Y-34459475D01*
X117249660Y-34458124D01*
X117269957Y-34458124D01*
X117273849Y-34456511D01*
X117278059Y-34456231D01*
X117296264Y-34447227D01*
X117315017Y-34439460D01*
X117317998Y-34436478D01*
X117321777Y-34434610D01*
X117335147Y-34419329D01*
X117349505Y-34404972D01*
X117351118Y-34401077D01*
X117353894Y-34397905D01*
X117360400Y-34378666D01*
X117368169Y-34359912D01*
X117368754Y-34353967D01*
X117369520Y-34351704D01*
X117369301Y-34348419D01*
X117370571Y-34335526D01*
X117370571Y-34222177D01*
X117395921Y-34171475D01*
X117414854Y-34152543D01*
X117465556Y-34127193D01*
X117644634Y-34127193D01*
X117695336Y-34152544D01*
X117714268Y-34171476D01*
X117739619Y-34222177D01*
X117739619Y-34448874D01*
X117714268Y-34499575D01*
X117680993Y-34532851D01*
X117665447Y-34551793D01*
X117646782Y-34596852D01*
X117646782Y-34645625D01*
X117665446Y-34690685D01*
X117699933Y-34725173D01*
X117744992Y-34743838D01*
X117793765Y-34743838D01*
X117838825Y-34725174D01*
X117857767Y-34709629D01*
X117905387Y-34662010D01*
X117913256Y-34652421D01*
X117915749Y-34650260D01*
X117918112Y-34646505D01*
X117920933Y-34643069D01*
X117922197Y-34640015D01*
X117928803Y-34629523D01*
X117976422Y-34534285D01*
X117985180Y-34511399D01*
X117985498Y-34506918D01*
X117987217Y-34502769D01*
X117989619Y-34478383D01*
X117989619Y-34192669D01*
X117987217Y-34168283D01*
X117985498Y-34164133D01*
X117985180Y-34159653D01*
X117976422Y-34136767D01*
X117928803Y-34041529D01*
X117922197Y-34031036D01*
X117920933Y-34027983D01*
X117918112Y-34024546D01*
X117915749Y-34020792D01*
X117913256Y-34018630D01*
X117905387Y-34009042D01*
X117857767Y-33961423D01*
X117848182Y-33953557D01*
X117846019Y-33951063D01*
X117842258Y-33948695D01*
X117838825Y-33945878D01*
X117835777Y-33944615D01*
X117825281Y-33938008D01*
X117730044Y-33890390D01*
X117707158Y-33881632D01*
X117702676Y-33881313D01*
X117698528Y-33879595D01*
X117674142Y-33877193D01*
X117436047Y-33877193D01*
X117411661Y-33879595D01*
X117407511Y-33881313D01*
X117403031Y-33881632D01*
X117380145Y-33890390D01*
X117284907Y-33938009D01*
X117274412Y-33944615D01*
X117271362Y-33945879D01*
X117267927Y-33948697D01*
X117264170Y-33951063D01*
X117262008Y-33953554D01*
X117252420Y-33961424D01*
X117204802Y-34009043D01*
X117196935Y-34018628D01*
X117194441Y-34020792D01*
X117192072Y-34024553D01*
X117189257Y-34027985D01*
X117187995Y-34031031D01*
X117181386Y-34041530D01*
X117156433Y-34091435D01*
X116946932Y-33908121D01*
X116936391Y-33900585D01*
X116934065Y-33898259D01*
X116931859Y-33897345D01*
X116926998Y-33893870D01*
X116907759Y-33887363D01*
X116889005Y-33879595D01*
X116884791Y-33879595D01*
X116880797Y-33878244D01*
X116860536Y-33879595D01*
X116840233Y-33879595D01*
X116836337Y-33881208D01*
X116832131Y-33881489D01*
X116813932Y-33890488D01*
X116795173Y-33898259D01*
X116792191Y-33901240D01*
X116788413Y-33903109D01*
X116775042Y-33918389D01*
X116760685Y-33932747D01*
X116759071Y-33936641D01*
X116756296Y-33939814D01*
X116749789Y-33959052D01*
X116742021Y-33977807D01*
X116741435Y-33983751D01*
X116740670Y-33986015D01*
X116740889Y-33989299D01*
X116739619Y-34002193D01*
X116614619Y-34002193D01*
X116614619Y-33034178D01*
X116740601Y-33034178D01*
X116744058Y-33082827D01*
X116765870Y-33126452D01*
X116802716Y-33158407D01*
X116825091Y-33168397D01*
X117469335Y-33383145D01*
X116825091Y-33597893D01*
X116802716Y-33607883D01*
X116765870Y-33639838D01*
X116744058Y-33683463D01*
X116740601Y-33732112D01*
X116756024Y-33778381D01*
X116787979Y-33815227D01*
X116831604Y-33837039D01*
X116880253Y-33840496D01*
X116904147Y-33835063D01*
X117904147Y-33501731D01*
X117926522Y-33491740D01*
X117933269Y-33485888D01*
X117941258Y-33481894D01*
X117951524Y-33470056D01*
X117963368Y-33459785D01*
X117967363Y-33451793D01*
X117973214Y-33445048D01*
X117978169Y-33430183D01*
X117985180Y-33416161D01*
X117985813Y-33407250D01*
X117988637Y-33398779D01*
X117987526Y-33383145D01*
X117988637Y-33367511D01*
X117985813Y-33359039D01*
X117985180Y-33350129D01*
X117978169Y-33336107D01*
X117973214Y-33321242D01*
X117967363Y-33314496D01*
X117963368Y-33306505D01*
X117951524Y-33296233D01*
X117941258Y-33284396D01*
X117933269Y-33280401D01*
X117926522Y-33274550D01*
X117904147Y-33264559D01*
X116904147Y-32931227D01*
X116880253Y-32925794D01*
X116831604Y-32929251D01*
X116787979Y-32951063D01*
X116756024Y-32987909D01*
X116740601Y-33034178D01*
X116614619Y-33034178D01*
X116614619Y-32800794D01*
X118114619Y-32800794D01*
X118114619Y-37394466D01*
G37*
D11*
G36*
X101663810Y-52370104D02*
G01*
X101702067Y-52472120D01*
X101702067Y-52484542D01*
X101362781Y-52575018D01*
X101362781Y-52472118D01*
X101401035Y-52370105D01*
X101446338Y-52339904D01*
X101618511Y-52339904D01*
X101663810Y-52370104D01*
G37*
G36*
X103973123Y-48499282D02*
G01*
X104070479Y-48629089D01*
X104130639Y-48949940D01*
X104130639Y-49581758D01*
X104070479Y-49902609D01*
X103973123Y-50032417D01*
X103904226Y-50078350D01*
X103732052Y-50078350D01*
X103663155Y-50032419D01*
X103565798Y-49902609D01*
X103505639Y-49581754D01*
X103505639Y-48949944D01*
X103565797Y-48629090D01*
X103663155Y-48499280D01*
X103732051Y-48453350D01*
X103904226Y-48453350D01*
X103973123Y-48499282D01*
G37*
G36*
X110625980Y-48512615D02*
G01*
X110723441Y-48642563D01*
X110779709Y-48792609D01*
X110844924Y-49140419D01*
X110844924Y-49391279D01*
X110779709Y-49739089D01*
X110723441Y-49889136D01*
X110625980Y-50019084D01*
X110492633Y-50078350D01*
X110362781Y-50078350D01*
X110362781Y-48453350D01*
X110492633Y-48453350D01*
X110625980Y-48512615D01*
G37*
G36*
X111442146Y-53895460D02*
G01*
X99483448Y-53895460D01*
X99483448Y-51449159D01*
X99705670Y-51449159D01*
X99705670Y-51522317D01*
X99733666Y-51589907D01*
X99785398Y-51641639D01*
X99852988Y-51669635D01*
X99889567Y-51673238D01*
X100130638Y-51673238D01*
X100130638Y-53485738D01*
X100134241Y-53522317D01*
X100162237Y-53589907D01*
X100213969Y-53641639D01*
X100281559Y-53669635D01*
X100354717Y-53669635D01*
X100422307Y-53641639D01*
X100474039Y-53589907D01*
X100502035Y-53522317D01*
X100505638Y-53485738D01*
X100505638Y-52438119D01*
X100987781Y-52438119D01*
X100987781Y-53200023D01*
X100990381Y-53226427D01*
X100990249Y-53230343D01*
X100991071Y-53233426D01*
X100991384Y-53236602D01*
X100992882Y-53240220D01*
X100999719Y-53265858D01*
X101071147Y-53456335D01*
X101073153Y-53460415D01*
X101073557Y-53462435D01*
X101075772Y-53465743D01*
X101087364Y-53489320D01*
X101102185Y-53505182D01*
X101114266Y-53523222D01*
X101134594Y-53539869D01*
X101137310Y-53542776D01*
X101139183Y-53543627D01*
X101142703Y-53546510D01*
X101285562Y-53641748D01*
X101317996Y-53659040D01*
X101336015Y-53662604D01*
X101352988Y-53669635D01*
X101389567Y-53673238D01*
X101389763Y-53673238D01*
X101675085Y-53673238D01*
X101675281Y-53673238D01*
X101711860Y-53669635D01*
X101728832Y-53662605D01*
X101746853Y-53659040D01*
X101779287Y-53641747D01*
X101779447Y-53641640D01*
X101779450Y-53641639D01*
X101779452Y-53641637D01*
X101922144Y-53546509D01*
X101950581Y-53523221D01*
X101991290Y-53462435D01*
X102005638Y-53390695D01*
X101991440Y-53318928D01*
X101950859Y-53258057D01*
X101890073Y-53217348D01*
X101818334Y-53203000D01*
X101746566Y-53217198D01*
X101714132Y-53234490D01*
X101618511Y-53298238D01*
X101446338Y-53298238D01*
X101401035Y-53268036D01*
X101362781Y-53166023D01*
X101362781Y-52963123D01*
X101937879Y-52809764D01*
X101972295Y-52796858D01*
X101982206Y-52789271D01*
X101993736Y-52784496D01*
X102011000Y-52767231D01*
X102030389Y-52752391D01*
X102036642Y-52741589D01*
X102045468Y-52732764D01*
X102054809Y-52710209D01*
X102067045Y-52689077D01*
X102068689Y-52676701D01*
X102073464Y-52665174D01*
X102077067Y-52628595D01*
X102077067Y-52438119D01*
X102273495Y-52438119D01*
X102273495Y-52533357D01*
X102276095Y-52559761D01*
X102275963Y-52563677D01*
X102276785Y-52566760D01*
X102277098Y-52569936D01*
X102278596Y-52573554D01*
X102285433Y-52599192D01*
X102356861Y-52789668D01*
X102358867Y-52793748D01*
X102359271Y-52795768D01*
X102361486Y-52799076D01*
X102373078Y-52822653D01*
X102387899Y-52838515D01*
X102399980Y-52856555D01*
X102420308Y-52873202D01*
X102423024Y-52876109D01*
X102424897Y-52876960D01*
X102428417Y-52879843D01*
X102571276Y-52975081D01*
X102603710Y-52992373D01*
X102621729Y-52995937D01*
X102638702Y-53002968D01*
X102675281Y-53006571D01*
X102675477Y-53006571D01*
X102832796Y-53006571D01*
X102878096Y-53036771D01*
X102916352Y-53138784D01*
X102916352Y-53166021D01*
X102878095Y-53268037D01*
X102832796Y-53298238D01*
X102660622Y-53298238D01*
X102565001Y-53234491D01*
X102532567Y-53217198D01*
X102460799Y-53203000D01*
X102389060Y-53217348D01*
X102328274Y-53258057D01*
X102287693Y-53318928D01*
X102273495Y-53390696D01*
X102287843Y-53462435D01*
X102328552Y-53523221D01*
X102356989Y-53546509D01*
X102499846Y-53641748D01*
X102532280Y-53659040D01*
X102550300Y-53662605D01*
X102567273Y-53669635D01*
X102603852Y-53673238D01*
X102604048Y-53673238D01*
X102889370Y-53673238D01*
X102889566Y-53673238D01*
X102926145Y-53669635D01*
X102943117Y-53662605D01*
X102961138Y-53659040D01*
X102993572Y-53641747D01*
X102993732Y-53641640D01*
X102993735Y-53641639D01*
X102993737Y-53641637D01*
X103136429Y-53546509D01*
X103139944Y-53543629D01*
X103141821Y-53542777D01*
X103144541Y-53539865D01*
X103164866Y-53523221D01*
X103176945Y-53505184D01*
X103191767Y-53489321D01*
X103203360Y-53465741D01*
X103205575Y-53462435D01*
X103205978Y-53460416D01*
X103207985Y-53456336D01*
X103279414Y-53265858D01*
X103286250Y-53240220D01*
X103287749Y-53236602D01*
X103288061Y-53233426D01*
X103288884Y-53230343D01*
X103288751Y-53226427D01*
X103291352Y-53200023D01*
X103291352Y-53104785D01*
X103288751Y-53078379D01*
X103288884Y-53074464D01*
X103288061Y-53071379D01*
X103287749Y-53068206D01*
X103286250Y-53064589D01*
X103279414Y-53038949D01*
X103207985Y-52848473D01*
X103205978Y-52844392D01*
X103205575Y-52842374D01*
X103203360Y-52839067D01*
X103191767Y-52815488D01*
X103176945Y-52799624D01*
X103164866Y-52781588D01*
X103144541Y-52764943D01*
X103141821Y-52762032D01*
X103139944Y-52761179D01*
X103136429Y-52758300D01*
X102993737Y-52663172D01*
X102993735Y-52663170D01*
X102993732Y-52663168D01*
X102993572Y-52663062D01*
X102961138Y-52645769D01*
X102943117Y-52642203D01*
X102926145Y-52635174D01*
X102889566Y-52631571D01*
X102732052Y-52631571D01*
X102686749Y-52601370D01*
X102648495Y-52499356D01*
X102648495Y-52472118D01*
X102686749Y-52370105D01*
X102732052Y-52339904D01*
X102832796Y-52339904D01*
X102928417Y-52403652D01*
X102960851Y-52420944D01*
X103032619Y-52435142D01*
X103104358Y-52420794D01*
X103165144Y-52380085D01*
X103205725Y-52319214D01*
X103219923Y-52247447D01*
X103205575Y-52175707D01*
X103165471Y-52115825D01*
X103348527Y-52115825D01*
X103348527Y-52188983D01*
X103376523Y-52256573D01*
X103428255Y-52308305D01*
X103495845Y-52336301D01*
X103532424Y-52339904D01*
X103559209Y-52339904D01*
X103559209Y-53200023D01*
X103561809Y-53226428D01*
X103561677Y-53230344D01*
X103562499Y-53233428D01*
X103562812Y-53236602D01*
X103564310Y-53240218D01*
X103571147Y-53265859D01*
X103642576Y-53456336D01*
X103644582Y-53460416D01*
X103644986Y-53462435D01*
X103647200Y-53465741D01*
X103658794Y-53489321D01*
X103673615Y-53505184D01*
X103685695Y-53523221D01*
X103706019Y-53539865D01*
X103708740Y-53542777D01*
X103710616Y-53543629D01*
X103714132Y-53546509D01*
X103856989Y-53641748D01*
X103889423Y-53659040D01*
X103907443Y-53662605D01*
X103924416Y-53669635D01*
X103960995Y-53673238D01*
X103961191Y-53673238D01*
X104103852Y-53673238D01*
X104140431Y-53669635D01*
X104208021Y-53641639D01*
X104259753Y-53589907D01*
X104287749Y-53522317D01*
X104287749Y-53449159D01*
X104259753Y-53381569D01*
X104208021Y-53329837D01*
X104140431Y-53301841D01*
X104103852Y-53298238D01*
X104017765Y-53298238D01*
X103972465Y-53268038D01*
X103934209Y-53166021D01*
X103934209Y-52339904D01*
X104103852Y-52339904D01*
X104140431Y-52336301D01*
X104208021Y-52308305D01*
X104259753Y-52256573D01*
X104287749Y-52188983D01*
X104287749Y-52115825D01*
X104263371Y-52056970D01*
X105487781Y-52056970D01*
X105501979Y-52128738D01*
X105542560Y-52189609D01*
X105603346Y-52230318D01*
X105675085Y-52244666D01*
X105746853Y-52230468D01*
X105779287Y-52213175D01*
X105916352Y-52121798D01*
X105916352Y-53298238D01*
X105675281Y-53298238D01*
X105638702Y-53301841D01*
X105571112Y-53329837D01*
X105519380Y-53381569D01*
X105491384Y-53449159D01*
X105491384Y-53522317D01*
X105519380Y-53589907D01*
X105571112Y-53641639D01*
X105638702Y-53669635D01*
X105675281Y-53673238D01*
X106532424Y-53673238D01*
X106569003Y-53669635D01*
X106636593Y-53641639D01*
X106688325Y-53589907D01*
X106716321Y-53522317D01*
X106716321Y-53449159D01*
X106688325Y-53381569D01*
X106636593Y-53329837D01*
X106569003Y-53301841D01*
X106532424Y-53298238D01*
X106291352Y-53298238D01*
X106291352Y-51485738D01*
X106289528Y-51467228D01*
X106289880Y-51462287D01*
X106288690Y-51458718D01*
X106287749Y-51449159D01*
X106276250Y-51421398D01*
X106266745Y-51392882D01*
X106262330Y-51387792D01*
X106259753Y-51381569D01*
X106238503Y-51360319D01*
X106218811Y-51337614D01*
X106212785Y-51334601D01*
X106208021Y-51329837D01*
X106180254Y-51318335D01*
X106153376Y-51304897D01*
X106146655Y-51304419D01*
X106140431Y-51301841D01*
X106110382Y-51301841D01*
X106080401Y-51299710D01*
X106074008Y-51301841D01*
X106067273Y-51301841D01*
X106039512Y-51313339D01*
X106010996Y-51322845D01*
X106005906Y-51327259D01*
X105999683Y-51329837D01*
X105978433Y-51351086D01*
X105955728Y-51370779D01*
X105950608Y-51378911D01*
X105947951Y-51381569D01*
X105946056Y-51386143D01*
X105936147Y-51401885D01*
X105800850Y-51672478D01*
X105687408Y-51823733D01*
X105571275Y-51901157D01*
X105542838Y-51924445D01*
X105502129Y-51985231D01*
X105487781Y-52056970D01*
X104263371Y-52056970D01*
X104259753Y-52048235D01*
X104208021Y-51996503D01*
X104140431Y-51968507D01*
X104103852Y-51964904D01*
X103934209Y-51964904D01*
X103934209Y-51485738D01*
X103930606Y-51449159D01*
X103902610Y-51381569D01*
X103850878Y-51329837D01*
X103783288Y-51301841D01*
X103710130Y-51301841D01*
X103642540Y-51329837D01*
X103590808Y-51381569D01*
X103562812Y-51449159D01*
X103559209Y-51485738D01*
X103559209Y-51964904D01*
X103532424Y-51964904D01*
X103495845Y-51968507D01*
X103428255Y-51996503D01*
X103376523Y-52048235D01*
X103348527Y-52115825D01*
X103165471Y-52115825D01*
X103164866Y-52114921D01*
X103136429Y-52091633D01*
X102993737Y-51996505D01*
X102993735Y-51996503D01*
X102993732Y-51996501D01*
X102993572Y-51996395D01*
X102961138Y-51979102D01*
X102943117Y-51975536D01*
X102926145Y-51968507D01*
X102889566Y-51964904D01*
X102675281Y-51964904D01*
X102638702Y-51968507D01*
X102621729Y-51975537D01*
X102603710Y-51979102D01*
X102571276Y-51996394D01*
X102428417Y-52091632D01*
X102424897Y-52094514D01*
X102423024Y-52095366D01*
X102420308Y-52098272D01*
X102399980Y-52114920D01*
X102387899Y-52132959D01*
X102373078Y-52148822D01*
X102361486Y-52172398D01*
X102359271Y-52175707D01*
X102358867Y-52177726D01*
X102356861Y-52181807D01*
X102285433Y-52372284D01*
X102278596Y-52397921D01*
X102277098Y-52401540D01*
X102276785Y-52404715D01*
X102275963Y-52407799D01*
X102276095Y-52411714D01*
X102273495Y-52438119D01*
X102077067Y-52438119D01*
X102074466Y-52411714D01*
X102074599Y-52407799D01*
X102073776Y-52404715D01*
X102073464Y-52401540D01*
X102071965Y-52397921D01*
X102065129Y-52372284D01*
X101993700Y-52181806D01*
X101991693Y-52177725D01*
X101991290Y-52175707D01*
X101989075Y-52172400D01*
X101977482Y-52148821D01*
X101962660Y-52132957D01*
X101950581Y-52114921D01*
X101930256Y-52098276D01*
X101927536Y-52095365D01*
X101925659Y-52094512D01*
X101922144Y-52091633D01*
X101779452Y-51996505D01*
X101779450Y-51996503D01*
X101779447Y-51996501D01*
X101779287Y-51996395D01*
X101746853Y-51979102D01*
X101728832Y-51975536D01*
X101711860Y-51968507D01*
X101675281Y-51964904D01*
X101389567Y-51964904D01*
X101352988Y-51968507D01*
X101336015Y-51975537D01*
X101317996Y-51979102D01*
X101285562Y-51996394D01*
X101142703Y-52091632D01*
X101139183Y-52094514D01*
X101137310Y-52095366D01*
X101134594Y-52098272D01*
X101114266Y-52114920D01*
X101102185Y-52132959D01*
X101087364Y-52148822D01*
X101075772Y-52172398D01*
X101073557Y-52175707D01*
X101073153Y-52177726D01*
X101071147Y-52181807D01*
X100999719Y-52372284D01*
X100992882Y-52397921D01*
X100991384Y-52401540D01*
X100991071Y-52404715D01*
X100990249Y-52407799D01*
X100990381Y-52411714D01*
X100987781Y-52438119D01*
X100505638Y-52438119D01*
X100505638Y-51673238D01*
X100746710Y-51673238D01*
X100783289Y-51669635D01*
X100850879Y-51641639D01*
X100902611Y-51589907D01*
X100930607Y-51522317D01*
X100930607Y-51449159D01*
X100902611Y-51381569D01*
X100850879Y-51329837D01*
X100783289Y-51301841D01*
X100746710Y-51298238D01*
X99889567Y-51298238D01*
X99852988Y-51301841D01*
X99785398Y-51329837D01*
X99733666Y-51381569D01*
X99705670Y-51449159D01*
X99483448Y-51449159D01*
X99483448Y-48265850D01*
X99916352Y-48265850D01*
X99916352Y-50265850D01*
X99919955Y-50302429D01*
X99947951Y-50370019D01*
X99999683Y-50421751D01*
X100067273Y-50449747D01*
X100140431Y-50449747D01*
X100208021Y-50421751D01*
X100259753Y-50370019D01*
X100287749Y-50302429D01*
X100291352Y-50265850D01*
X100291352Y-49179336D01*
X100788655Y-50339710D01*
X100804362Y-50368253D01*
X100805094Y-50370019D01*
X100805628Y-50370553D01*
X100806376Y-50371912D01*
X100831764Y-50396689D01*
X100856826Y-50421751D01*
X100857899Y-50422195D01*
X100858733Y-50423009D01*
X100891684Y-50436189D01*
X100924416Y-50449747D01*
X100925578Y-50449747D01*
X100926661Y-50450180D01*
X100962132Y-50449747D01*
X100997574Y-50449747D01*
X100998650Y-50449301D01*
X100999814Y-50449287D01*
X101032387Y-50435327D01*
X101065164Y-50421751D01*
X101065987Y-50420927D01*
X101067057Y-50420469D01*
X101091815Y-50395099D01*
X101116896Y-50370019D01*
X101117341Y-50368943D01*
X101118154Y-50368111D01*
X101131328Y-50335175D01*
X101144892Y-50302429D01*
X101145043Y-50300886D01*
X101145325Y-50300184D01*
X101145301Y-50298270D01*
X101148495Y-50265850D01*
X101148495Y-48265850D01*
X101487781Y-48265850D01*
X101487781Y-50265850D01*
X101491384Y-50302429D01*
X101519380Y-50370019D01*
X101571112Y-50421751D01*
X101638702Y-50449747D01*
X101711860Y-50449747D01*
X101779450Y-50421751D01*
X101831182Y-50370019D01*
X101859178Y-50302429D01*
X101862781Y-50265850D01*
X101862781Y-49369142D01*
X101998308Y-49756362D01*
X102013792Y-49789697D01*
X102020857Y-49797602D01*
X102025458Y-49807157D01*
X102045041Y-49824660D01*
X102062545Y-49844244D01*
X102072099Y-49848844D01*
X102080005Y-49855910D01*
X102104793Y-49864586D01*
X102128462Y-49875982D01*
X102139049Y-49876575D01*
X102149056Y-49880078D01*
X102175281Y-49878607D01*
X102201506Y-49880078D01*
X102211512Y-49876575D01*
X102222100Y-49875982D01*
X102245768Y-49864586D01*
X102270557Y-49855910D01*
X102278462Y-49848844D01*
X102288017Y-49844244D01*
X102305520Y-49824660D01*
X102325104Y-49807157D01*
X102329704Y-49797602D01*
X102336770Y-49789697D01*
X102352254Y-49756362D01*
X102487781Y-49369142D01*
X102487781Y-50265850D01*
X102491384Y-50302429D01*
X102519380Y-50370019D01*
X102571112Y-50421751D01*
X102638702Y-50449747D01*
X102711860Y-50449747D01*
X102779450Y-50421751D01*
X102831182Y-50370019D01*
X102859178Y-50302429D01*
X102862781Y-50265850D01*
X102862781Y-48932516D01*
X103130639Y-48932516D01*
X103130639Y-49599183D01*
X103132339Y-49616444D01*
X103133850Y-49633737D01*
X103205278Y-50014688D01*
X103215561Y-50049977D01*
X103218958Y-50055184D01*
X103220502Y-50061210D01*
X103239567Y-50092635D01*
X103382425Y-50283112D01*
X103397347Y-50299399D01*
X103399982Y-50303333D01*
X103403864Y-50306512D01*
X103407255Y-50310213D01*
X103411328Y-50312625D01*
X103428419Y-50326621D01*
X103571276Y-50421860D01*
X103603710Y-50439152D01*
X103621730Y-50442717D01*
X103638703Y-50449747D01*
X103675282Y-50453350D01*
X103675478Y-50453350D01*
X103960800Y-50453350D01*
X103960996Y-50453350D01*
X103997575Y-50449747D01*
X104014547Y-50442717D01*
X104032568Y-50439152D01*
X104065002Y-50421859D01*
X104065162Y-50421752D01*
X104065165Y-50421751D01*
X104065167Y-50421749D01*
X104207859Y-50326621D01*
X104224946Y-50312627D01*
X104229024Y-50310213D01*
X104232416Y-50306510D01*
X104236296Y-50303333D01*
X104238928Y-50299402D01*
X104253853Y-50283112D01*
X104396710Y-50092634D01*
X104415775Y-50061209D01*
X104417317Y-50055186D01*
X104420716Y-50049978D01*
X104430998Y-50014689D01*
X104502428Y-49633737D01*
X104503938Y-49616442D01*
X104505639Y-49599183D01*
X104505639Y-48932516D01*
X104503939Y-48915253D01*
X104502428Y-48897962D01*
X104455335Y-48646802D01*
X104702068Y-48646802D01*
X104702068Y-48837278D01*
X104704668Y-48863682D01*
X104704536Y-48867598D01*
X104705358Y-48870681D01*
X104705671Y-48873857D01*
X104707169Y-48877475D01*
X104714006Y-48903113D01*
X104785434Y-49093589D01*
X104790846Y-49104598D01*
X104791931Y-49108830D01*
X104797184Y-49117490D01*
X104801651Y-49126574D01*
X104804630Y-49129763D01*
X104810996Y-49140255D01*
X104882425Y-49235493D01*
X104897346Y-49251779D01*
X104899981Y-49255713D01*
X104903864Y-49258893D01*
X104907255Y-49262594D01*
X104911329Y-49265006D01*
X104928418Y-49279001D01*
X105071275Y-49374240D01*
X105079618Y-49378688D01*
X105082427Y-49381124D01*
X105093255Y-49385958D01*
X105103709Y-49391532D01*
X105107352Y-49392252D01*
X105115989Y-49396109D01*
X105377881Y-49483406D01*
X105473125Y-49546901D01*
X105509155Y-49594941D01*
X105559211Y-49728420D01*
X105559211Y-49850897D01*
X105509156Y-49984373D01*
X105473123Y-50032418D01*
X105404226Y-50078350D01*
X105143645Y-50078350D01*
X104965719Y-49999272D01*
X104930829Y-49987709D01*
X104857694Y-49985841D01*
X104789411Y-50012104D01*
X104736377Y-50062498D01*
X104706665Y-50129351D01*
X104704797Y-50202486D01*
X104731060Y-50270769D01*
X104781454Y-50323803D01*
X104813417Y-50341952D01*
X105027703Y-50437190D01*
X105062593Y-50448753D01*
X105065025Y-50448815D01*
X105067275Y-50449747D01*
X105103854Y-50453350D01*
X105460800Y-50453350D01*
X105460996Y-50453350D01*
X105497575Y-50449747D01*
X105514547Y-50442717D01*
X105532568Y-50439152D01*
X105565002Y-50421860D01*
X105707860Y-50326622D01*
X105724953Y-50312622D01*
X105729025Y-50310212D01*
X105732413Y-50306513D01*
X105736297Y-50303333D01*
X105738930Y-50299400D01*
X105753855Y-50283111D01*
X105825283Y-50187872D01*
X105831646Y-50177382D01*
X105834626Y-50174194D01*
X105839092Y-50165109D01*
X105844348Y-50156447D01*
X105845431Y-50152216D01*
X105850844Y-50141209D01*
X105922273Y-49950733D01*
X105929109Y-49925092D01*
X105930608Y-49921476D01*
X105930920Y-49918302D01*
X105931743Y-49915218D01*
X105931610Y-49911302D01*
X105934211Y-49884897D01*
X105934211Y-49694421D01*
X105931610Y-49668015D01*
X105931743Y-49664100D01*
X105930920Y-49661015D01*
X105930608Y-49657842D01*
X105929109Y-49654225D01*
X105922273Y-49628585D01*
X105850844Y-49438109D01*
X105845430Y-49427098D01*
X105844347Y-49422870D01*
X105839094Y-49414212D01*
X105834626Y-49405124D01*
X105831645Y-49401934D01*
X105825282Y-49391445D01*
X105753854Y-49296208D01*
X105738930Y-49279918D01*
X105736297Y-49275986D01*
X105732416Y-49272808D01*
X105729025Y-49269106D01*
X105724949Y-49266692D01*
X105707860Y-49252697D01*
X105565002Y-49157459D01*
X105556658Y-49153010D01*
X105553851Y-49150576D01*
X105543027Y-49145743D01*
X105532568Y-49140167D01*
X105528922Y-49139445D01*
X105520289Y-49135591D01*
X105258396Y-49048293D01*
X105163154Y-48984798D01*
X105127121Y-48936753D01*
X105077068Y-48803277D01*
X105077068Y-48680802D01*
X105127121Y-48547326D01*
X105163155Y-48499280D01*
X105232051Y-48453350D01*
X105492634Y-48453350D01*
X105670560Y-48532428D01*
X105705450Y-48543991D01*
X105778585Y-48545859D01*
X105846868Y-48519596D01*
X105899902Y-48469202D01*
X105929615Y-48402349D01*
X105931482Y-48329214D01*
X105907111Y-48265850D01*
X107344924Y-48265850D01*
X107344924Y-50265850D01*
X107348527Y-50302429D01*
X107376523Y-50370019D01*
X107428255Y-50421751D01*
X107495845Y-50449747D01*
X107532424Y-50453350D01*
X108246710Y-50453350D01*
X108283289Y-50449747D01*
X108350879Y-50421751D01*
X108402611Y-50370019D01*
X108430607Y-50302429D01*
X108430607Y-50229271D01*
X108402611Y-50161681D01*
X108350879Y-50109949D01*
X108283289Y-50081953D01*
X108246710Y-50078350D01*
X107719924Y-50078350D01*
X107719924Y-48646802D01*
X108487782Y-48646802D01*
X108487782Y-48837278D01*
X108490382Y-48863682D01*
X108490250Y-48867598D01*
X108491072Y-48870681D01*
X108491385Y-48873857D01*
X108492883Y-48877475D01*
X108499720Y-48903113D01*
X108571148Y-49093589D01*
X108576560Y-49104598D01*
X108577645Y-49108830D01*
X108582898Y-49117490D01*
X108587365Y-49126574D01*
X108590344Y-49129763D01*
X108596710Y-49140255D01*
X108668139Y-49235493D01*
X108683060Y-49251779D01*
X108685695Y-49255713D01*
X108689578Y-49258893D01*
X108692969Y-49262594D01*
X108697043Y-49265006D01*
X108714132Y-49279001D01*
X108856989Y-49374240D01*
X108865332Y-49378688D01*
X108868141Y-49381124D01*
X108878969Y-49385958D01*
X108889423Y-49391532D01*
X108893066Y-49392252D01*
X108901703Y-49396109D01*
X109163595Y-49483406D01*
X109258839Y-49546901D01*
X109294869Y-49594941D01*
X109344925Y-49728420D01*
X109344925Y-49850897D01*
X109294870Y-49984373D01*
X109258837Y-50032418D01*
X109189940Y-50078350D01*
X108929359Y-50078350D01*
X108751433Y-49999272D01*
X108716543Y-49987709D01*
X108643408Y-49985841D01*
X108575125Y-50012104D01*
X108522091Y-50062498D01*
X108492379Y-50129351D01*
X108490511Y-50202486D01*
X108516774Y-50270769D01*
X108567168Y-50323803D01*
X108599131Y-50341952D01*
X108813417Y-50437190D01*
X108848307Y-50448753D01*
X108850739Y-50448815D01*
X108852989Y-50449747D01*
X108889568Y-50453350D01*
X109246514Y-50453350D01*
X109246710Y-50453350D01*
X109283289Y-50449747D01*
X109300261Y-50442717D01*
X109318282Y-50439152D01*
X109350716Y-50421860D01*
X109493574Y-50326622D01*
X109510667Y-50312622D01*
X109514739Y-50310212D01*
X109518127Y-50306513D01*
X109522011Y-50303333D01*
X109524644Y-50299400D01*
X109539569Y-50283111D01*
X109610997Y-50187872D01*
X109617360Y-50177382D01*
X109620340Y-50174194D01*
X109624806Y-50165109D01*
X109630062Y-50156447D01*
X109631145Y-50152216D01*
X109636558Y-50141209D01*
X109707987Y-49950733D01*
X109714823Y-49925092D01*
X109716322Y-49921476D01*
X109716634Y-49918302D01*
X109717457Y-49915218D01*
X109717324Y-49911302D01*
X109719925Y-49884897D01*
X109719925Y-49694421D01*
X109717324Y-49668015D01*
X109717457Y-49664100D01*
X109716634Y-49661015D01*
X109716322Y-49657842D01*
X109714823Y-49654225D01*
X109707987Y-49628585D01*
X109636558Y-49438109D01*
X109631144Y-49427098D01*
X109630061Y-49422870D01*
X109624808Y-49414212D01*
X109620340Y-49405124D01*
X109617359Y-49401934D01*
X109610996Y-49391445D01*
X109539568Y-49296208D01*
X109524644Y-49279918D01*
X109522011Y-49275986D01*
X109518130Y-49272808D01*
X109514739Y-49269106D01*
X109510663Y-49266692D01*
X109493574Y-49252697D01*
X109350716Y-49157459D01*
X109342372Y-49153010D01*
X109339565Y-49150576D01*
X109328741Y-49145743D01*
X109318282Y-49140167D01*
X109314636Y-49139445D01*
X109306003Y-49135591D01*
X109044110Y-49048293D01*
X108948868Y-48984798D01*
X108912835Y-48936753D01*
X108862782Y-48803277D01*
X108862782Y-48680802D01*
X108912835Y-48547326D01*
X108948869Y-48499280D01*
X109017765Y-48453350D01*
X109278348Y-48453350D01*
X109456274Y-48532428D01*
X109491164Y-48543991D01*
X109564299Y-48545859D01*
X109632582Y-48519596D01*
X109685616Y-48469202D01*
X109715329Y-48402349D01*
X109717196Y-48329214D01*
X109692825Y-48265850D01*
X109987781Y-48265850D01*
X109987781Y-50265850D01*
X109991384Y-50302429D01*
X110019380Y-50370019D01*
X110071112Y-50421751D01*
X110138702Y-50449747D01*
X110175281Y-50453350D01*
X110532424Y-50453350D01*
X110569003Y-50449747D01*
X110571252Y-50448815D01*
X110573685Y-50448753D01*
X110608575Y-50437190D01*
X110822861Y-50341952D01*
X110854824Y-50323803D01*
X110862406Y-50315822D01*
X110871881Y-50310213D01*
X110896710Y-50283112D01*
X111039567Y-50092634D01*
X111045928Y-50082147D01*
X111048911Y-50078956D01*
X111053382Y-50069862D01*
X111058632Y-50061209D01*
X111059714Y-50056982D01*
X111065129Y-50045971D01*
X111136558Y-49855495D01*
X111140744Y-49839794D01*
X111145285Y-49824213D01*
X111216712Y-49443261D01*
X111218219Y-49426013D01*
X111219924Y-49408707D01*
X111219924Y-49122992D01*
X111218219Y-49105685D01*
X111216712Y-49088438D01*
X111145285Y-48707486D01*
X111140744Y-48691904D01*
X111136558Y-48676204D01*
X111065129Y-48485728D01*
X111059715Y-48474717D01*
X111058632Y-48470489D01*
X111053379Y-48461831D01*
X111048911Y-48452743D01*
X111045930Y-48449553D01*
X111039567Y-48439064D01*
X110896710Y-48248588D01*
X110871880Y-48221487D01*
X110862408Y-48215878D01*
X110854824Y-48207897D01*
X110822861Y-48189748D01*
X110608575Y-48094510D01*
X110573685Y-48082947D01*
X110571252Y-48082884D01*
X110569003Y-48081953D01*
X110532424Y-48078350D01*
X110175281Y-48078350D01*
X110138702Y-48081953D01*
X110071112Y-48109949D01*
X110019380Y-48161681D01*
X109991384Y-48229271D01*
X109987781Y-48265850D01*
X109692825Y-48265850D01*
X109690933Y-48260931D01*
X109640539Y-48207897D01*
X109608576Y-48189748D01*
X109394290Y-48094510D01*
X109359400Y-48082947D01*
X109356967Y-48082884D01*
X109354718Y-48081953D01*
X109318139Y-48078350D01*
X108960996Y-48078350D01*
X108924417Y-48081953D01*
X108907444Y-48088982D01*
X108889424Y-48092548D01*
X108856990Y-48109840D01*
X108714133Y-48205079D01*
X108697046Y-48219071D01*
X108692969Y-48221486D01*
X108689575Y-48225190D01*
X108685696Y-48228367D01*
X108683064Y-48232296D01*
X108668139Y-48248587D01*
X108596710Y-48343825D01*
X108590344Y-48354316D01*
X108587365Y-48357506D01*
X108582898Y-48366589D01*
X108577645Y-48375250D01*
X108576560Y-48379481D01*
X108571148Y-48390491D01*
X108499720Y-48580967D01*
X108492883Y-48606604D01*
X108491385Y-48610223D01*
X108491072Y-48613398D01*
X108490250Y-48616482D01*
X108490382Y-48620397D01*
X108487782Y-48646802D01*
X107719924Y-48646802D01*
X107719924Y-48265850D01*
X107716321Y-48229271D01*
X107688325Y-48161681D01*
X107636593Y-48109949D01*
X107569003Y-48081953D01*
X107495845Y-48081953D01*
X107428255Y-48109949D01*
X107376523Y-48161681D01*
X107348527Y-48229271D01*
X107344924Y-48265850D01*
X105907111Y-48265850D01*
X105905219Y-48260931D01*
X105854825Y-48207897D01*
X105822862Y-48189748D01*
X105608576Y-48094510D01*
X105573686Y-48082947D01*
X105571253Y-48082884D01*
X105569004Y-48081953D01*
X105532425Y-48078350D01*
X105175282Y-48078350D01*
X105138703Y-48081953D01*
X105121730Y-48088982D01*
X105103710Y-48092548D01*
X105071276Y-48109840D01*
X104928419Y-48205079D01*
X104911332Y-48219071D01*
X104907255Y-48221486D01*
X104903861Y-48225190D01*
X104899982Y-48228367D01*
X104897350Y-48232296D01*
X104882425Y-48248587D01*
X104810996Y-48343825D01*
X104804630Y-48354316D01*
X104801651Y-48357506D01*
X104797184Y-48366589D01*
X104791931Y-48375250D01*
X104790846Y-48379481D01*
X104785434Y-48390491D01*
X104714006Y-48580967D01*
X104707169Y-48606604D01*
X104705671Y-48610223D01*
X104705358Y-48613398D01*
X104704536Y-48616482D01*
X104704668Y-48620397D01*
X104702068Y-48646802D01*
X104455335Y-48646802D01*
X104430998Y-48517010D01*
X104420716Y-48481721D01*
X104417318Y-48476512D01*
X104415775Y-48470489D01*
X104396710Y-48439064D01*
X104253853Y-48248588D01*
X104238930Y-48232300D01*
X104236296Y-48228367D01*
X104232413Y-48225187D01*
X104229023Y-48221487D01*
X104224949Y-48219074D01*
X104207859Y-48205079D01*
X104065167Y-48109951D01*
X104065165Y-48109949D01*
X104065162Y-48109947D01*
X104065002Y-48109841D01*
X104032568Y-48092548D01*
X104014547Y-48088982D01*
X103997575Y-48081953D01*
X103960996Y-48078350D01*
X103675282Y-48078350D01*
X103638703Y-48081953D01*
X103621730Y-48088982D01*
X103603710Y-48092548D01*
X103571276Y-48109840D01*
X103428419Y-48205079D01*
X103411330Y-48219073D01*
X103407256Y-48221486D01*
X103403865Y-48225186D01*
X103399982Y-48228367D01*
X103397347Y-48232300D01*
X103382426Y-48248587D01*
X103239567Y-48439063D01*
X103220502Y-48470488D01*
X103218957Y-48476514D01*
X103215561Y-48481722D01*
X103205278Y-48517011D01*
X103133850Y-48897962D01*
X103132339Y-48915252D01*
X103130639Y-48932516D01*
X102862781Y-48932516D01*
X102862781Y-48265850D01*
X102859178Y-48229271D01*
X102857140Y-48224351D01*
X102856842Y-48219031D01*
X102843206Y-48190710D01*
X102831182Y-48161681D01*
X102827415Y-48157914D01*
X102825104Y-48153114D01*
X102801671Y-48132170D01*
X102779450Y-48109949D01*
X102774528Y-48107910D01*
X102770557Y-48104361D01*
X102740892Y-48093978D01*
X102711860Y-48081953D01*
X102706535Y-48081953D01*
X102701506Y-48080193D01*
X102670120Y-48081953D01*
X102638702Y-48081953D01*
X102633782Y-48083990D01*
X102628462Y-48084289D01*
X102600141Y-48097924D01*
X102571112Y-48109949D01*
X102567345Y-48113715D01*
X102562545Y-48116027D01*
X102541601Y-48139459D01*
X102519380Y-48161681D01*
X102517341Y-48166602D01*
X102513792Y-48170574D01*
X102498308Y-48203909D01*
X102175281Y-49126843D01*
X101852254Y-48203909D01*
X101836770Y-48170574D01*
X101833220Y-48166602D01*
X101831182Y-48161681D01*
X101808960Y-48139459D01*
X101788017Y-48116027D01*
X101783216Y-48113715D01*
X101779450Y-48109949D01*
X101750420Y-48097924D01*
X101722100Y-48084289D01*
X101716779Y-48083990D01*
X101711860Y-48081953D01*
X101680442Y-48081953D01*
X101649056Y-48080193D01*
X101644027Y-48081953D01*
X101638702Y-48081953D01*
X101609669Y-48093978D01*
X101580005Y-48104361D01*
X101576033Y-48107910D01*
X101571112Y-48109949D01*
X101548890Y-48132170D01*
X101525458Y-48153114D01*
X101523146Y-48157914D01*
X101519380Y-48161681D01*
X101507355Y-48190710D01*
X101493720Y-48219031D01*
X101493421Y-48224351D01*
X101491384Y-48229271D01*
X101487781Y-48265850D01*
X101148495Y-48265850D01*
X101144892Y-48229271D01*
X101116896Y-48161681D01*
X101065164Y-48109949D01*
X100997574Y-48081953D01*
X100924416Y-48081953D01*
X100856826Y-48109949D01*
X100805094Y-48161681D01*
X100777098Y-48229271D01*
X100773495Y-48265850D01*
X100773495Y-49352363D01*
X100276192Y-48191990D01*
X100260484Y-48163446D01*
X100259753Y-48161681D01*
X100259218Y-48161146D01*
X100258471Y-48159788D01*
X100233101Y-48135029D01*
X100208021Y-48109949D01*
X100206945Y-48109503D01*
X100206113Y-48108691D01*
X100173177Y-48095516D01*
X100140431Y-48081953D01*
X100139268Y-48081953D01*
X100138186Y-48081520D01*
X100102715Y-48081953D01*
X100067273Y-48081953D01*
X100066196Y-48082398D01*
X100065033Y-48082413D01*
X100032459Y-48096372D01*
X99999683Y-48109949D01*
X99998859Y-48110772D01*
X99997790Y-48111231D01*
X99973031Y-48136600D01*
X99947951Y-48161681D01*
X99947505Y-48162756D01*
X99946693Y-48163589D01*
X99933518Y-48196524D01*
X99919955Y-48229271D01*
X99919803Y-48230813D01*
X99919522Y-48231516D01*
X99919545Y-48233429D01*
X99916352Y-48265850D01*
X99483448Y-48265850D01*
X99483448Y-47856128D01*
X111442146Y-47856128D01*
X111442146Y-53895460D01*
G37*
D12*
%TO.P,J1,1,Pin_1*%
%TO.N,GND*%
X119000000Y-31500000D03*
D13*
%TO.P,J1,2,Pin_2*%
%TO.N,3V3*%
X117500000Y-31500000D03*
%TD*%
D12*
%TO.P,J5,1,Pin_1*%
%TO.N,GND*%
X119000000Y-38500000D03*
D13*
%TO.P,J5,2,Pin_2*%
%TO.N,5V*%
X117500000Y-38500000D03*
%TD*%
D12*
%TO.P,J2,1,Pin_1*%
%TO.N,GND*%
X119000000Y-52000000D03*
D13*
%TO.P,J2,2,Pin_2*%
%TO.N,VBAT*%
X117500000Y-52000000D03*
%TD*%
D12*
%TO.P,J4,1,Pin_1*%
%TO.N,GND*%
X119000000Y-45500000D03*
D13*
%TO.P,J4,2,Pin_2*%
%TO.N,VBAT*%
X117500000Y-45500000D03*
%TD*%
D12*
%TO.P,J3,1,Pin_1*%
%TO.N,gate_driver_2_base*%
X116500000Y-61250000D03*
D13*
%TO.P,J3,2,Pin_2*%
%TO.N,lsd_in_2*%
X118000000Y-61250000D03*
%TO.P,J3,3,Pin_3*%
%TO.N,VBAT*%
X119500000Y-61250000D03*
%TD*%
D12*
%TO.P,J6,1,Pin_1*%
%TO.N,gate_driver_1_base*%
X116500000Y-82000000D03*
D13*
%TO.P,J6,2,Pin_2*%
%TO.N,lsd_in_1*%
X118000000Y-82000000D03*
%TO.P,J6,3,Pin_3*%
%TO.N,VBAT*%
X119500000Y-82000000D03*
%TD*%
D14*
%TO.P,R17,1*%
%TO.N,Net-(R17-Pad1)*%
X99037500Y-81437786D03*
%TO.P,R17,2*%
%TO.N,3V3*%
X96962500Y-81437786D03*
%TD*%
D15*
%TO.P,Q3,1,G*%
%TO.N,/LSD/driver_1_gate*%
X102562500Y-88050000D03*
%TO.P,Q3,2,S*%
%TO.N,GND*%
X102562500Y-89950000D03*
%TO.P,Q3,3,D*%
%TO.N,lsd_in_1*%
X104437500Y-89000000D03*
%TD*%
D16*
%TO.P,R3,1,1*%
%TO.N,lsd_in_1*%
X105896300Y-95000000D03*
%TO.P,R3,2,2*%
%TO.N,GND*%
X101603700Y-95000000D03*
%TD*%
D17*
%TO.P,R20,1,1*%
%TO.N,/LSD/driver_2_gate*%
X102550001Y-63266800D03*
%TO.P,R20,2,2*%
%TO.N,Net-(R20-Pad2)*%
X103200000Y-63266800D03*
%TO.P,R20,3,3*%
%TO.N,Net-(R20-Pad3)*%
X103849999Y-63266800D03*
%TO.P,R20,4,4*%
%TO.N,/LSD/driver_2_gate*%
X103849999Y-61133200D03*
%TO.P,R20,5,5*%
%TO.N,Net-(R20-Pad2)*%
X103200000Y-61133200D03*
%TO.P,R20,6,6*%
%TO.N,Net-(R18-Pad1)*%
X102550001Y-61133200D03*
%TD*%
D14*
%TO.P,R21,1*%
%TO.N,gate_driver_1_base*%
X111537500Y-82000000D03*
%TO.P,R21,2*%
%TO.N,Net-(R19-Pad2)*%
X109462500Y-82000000D03*
%TD*%
D18*
%TO.P,C2,1*%
%TO.N,5V*%
X110000000Y-38425000D03*
%TO.P,C2,2*%
%TO.N,GND*%
X110000000Y-40500000D03*
%TD*%
D14*
%TO.P,R23,1*%
%TO.N,GND*%
X111537500Y-85500000D03*
%TO.P,R23,2*%
%TO.N,Net-(R19-Pad3)*%
X109462500Y-85500000D03*
%TD*%
%TO.P,R18,1*%
%TO.N,Net-(R18-Pad1)*%
X99037500Y-61089052D03*
%TO.P,R18,2*%
%TO.N,3V3*%
X96962500Y-61089052D03*
%TD*%
%TO.P,R22,1*%
%TO.N,gate_driver_2_base*%
X111537500Y-61200000D03*
%TO.P,R22,2*%
%TO.N,Net-(R20-Pad2)*%
X109462500Y-61200000D03*
%TD*%
D16*
%TO.P,R4,1,1*%
%TO.N,lsd_in_2*%
X105896300Y-75000000D03*
%TO.P,R4,2,2*%
%TO.N,GND*%
X101603700Y-75000000D03*
%TD*%
D14*
%TO.P,R24,1*%
%TO.N,GND*%
X111537500Y-64500000D03*
%TO.P,R24,2*%
%TO.N,Net-(R20-Pad3)*%
X109462500Y-64500000D03*
%TD*%
D19*
%TO.P,R7,1*%
%TO.N,/LSD/driver_1_gate*%
X98000000Y-87975000D03*
%TO.P,R7,2*%
%TO.N,GND*%
X98000000Y-90025000D03*
%TD*%
D17*
%TO.P,R19,1,1*%
%TO.N,/LSD/driver_1_gate*%
X102850001Y-83566800D03*
%TO.P,R19,2,2*%
%TO.N,Net-(R19-Pad2)*%
X103500000Y-83566800D03*
%TO.P,R19,3,3*%
%TO.N,Net-(R19-Pad3)*%
X104149999Y-83566800D03*
%TO.P,R19,4,4*%
%TO.N,/LSD/driver_1_gate*%
X104149999Y-81433200D03*
%TO.P,R19,5,5*%
%TO.N,Net-(R19-Pad2)*%
X103500000Y-81433200D03*
%TO.P,R19,6,6*%
%TO.N,Net-(R17-Pad1)*%
X102850001Y-81433200D03*
%TD*%
D20*
%TO.P,C3,1*%
%TO.N,3V3*%
X102962500Y-41500000D03*
%TO.P,C3,2*%
%TO.N,GND*%
X105037500Y-41500000D03*
%TD*%
D21*
%TO.P,U1,1,GND*%
%TO.N,GND*%
X100700000Y-37400000D03*
%TO.P,U1,2,OUT_2*%
%TO.N,3V3*%
X103000000Y-37400000D03*
%TO.P,U1,3,IN*%
%TO.N,5V*%
X105300000Y-37400000D03*
D22*
%TO.P,U1,4,OUT_4*%
%TO.N,3V3*%
X103000000Y-31600000D03*
%TD*%
D18*
%TO.P,C1,1*%
%TO.N,5V*%
X114000000Y-38462500D03*
%TO.P,C1,2*%
%TO.N,GND*%
X114000000Y-40537500D03*
%TD*%
D15*
%TO.P,Q4,1,G*%
%TO.N,/LSD/driver_2_gate*%
X102562500Y-68050000D03*
%TO.P,Q4,2,S*%
%TO.N,GND*%
X102562500Y-69950000D03*
%TO.P,Q4,3,D*%
%TO.N,lsd_in_2*%
X104437500Y-69000000D03*
%TD*%
D19*
%TO.P,R8,1*%
%TO.N,/LSD/driver_2_gate*%
X98000000Y-67975000D03*
%TO.P,R8,2*%
%TO.N,GND*%
X98000000Y-70025000D03*
%TD*%
D23*
%TO.N,GND*%
X112500000Y-45000000D03*
X112500000Y-92500000D03*
X112500000Y-72500000D03*
X115000000Y-66500000D03*
X112500000Y-95000000D03*
X112500000Y-43000000D03*
X112500000Y-75000000D03*
X115000000Y-64500000D03*
X115250000Y-85500000D03*
%TD*%
D24*
%TO.N,GND*%
X115000000Y-64500000D02*
X111537500Y-64500000D01*
%TO.N,VBAT*%
X119500000Y-61250000D02*
X119500000Y-82000000D01*
%TO.N,3V3*%
X94750000Y-49712500D02*
X102962500Y-41500000D01*
X94750000Y-79225286D02*
X94750000Y-49712500D01*
X96962500Y-81437786D02*
X94750000Y-79225286D01*
D25*
%TO.N,Net-(R20-Pad2)*%
X103400000Y-60200000D02*
X103200000Y-60400000D01*
D24*
X109462500Y-61200000D02*
X105200000Y-61200000D01*
D25*
X104700000Y-60200000D02*
X103400000Y-60200000D01*
X105200000Y-60700000D02*
X104700000Y-60200000D01*
X103200000Y-60400000D02*
X103200000Y-61133200D01*
X103473100Y-62400000D02*
X103200000Y-62673100D01*
X104725000Y-62400000D02*
X103473100Y-62400000D01*
X105200000Y-61925000D02*
X104725000Y-62400000D01*
X105200000Y-61200000D02*
X105200000Y-61925000D01*
X105200000Y-61200000D02*
X105200000Y-60700000D01*
X103200000Y-62673100D02*
X103200000Y-63266800D01*
D24*
%TO.N,VBAT*%
X119500000Y-60250000D02*
X119500000Y-61250000D01*
X117000000Y-57750000D02*
X119500000Y-60250000D01*
X117000000Y-52500000D02*
X117000000Y-57750000D01*
X117500000Y-52000000D02*
X117000000Y-52500000D01*
X117000000Y-46000000D02*
X117000000Y-51500000D01*
X117000000Y-51500000D02*
X117500000Y-52000000D01*
X117500000Y-45500000D02*
X117000000Y-46000000D01*
%TO.N,gate_driver_1_base*%
X111537500Y-82000000D02*
X116500000Y-82000000D01*
D26*
%TO.N,/LSD/driver_1_gate*%
X102562500Y-84187500D02*
X102562500Y-88050000D01*
X102850001Y-83899999D02*
X102562500Y-84187500D01*
X102850001Y-83566800D02*
X102850001Y-83899999D01*
D27*
%TO.N,5V*%
X117500000Y-38500000D02*
X114037500Y-38500000D01*
D28*
%TO.N,3V3*%
X117400000Y-31600000D02*
X117500000Y-31500000D01*
X103000000Y-31600000D02*
X117400000Y-31600000D01*
%TO.N,GND*%
X118712500Y-40537500D02*
X118750000Y-40500000D01*
X114000000Y-40537500D02*
X118712500Y-40537500D01*
D24*
%TO.N,gate_driver_2_base*%
X116500000Y-61250000D02*
X111587500Y-61250000D01*
%TO.N,GND*%
X118250000Y-29250000D02*
X119000000Y-30000000D01*
D25*
X98000000Y-94000000D02*
X98000000Y-90025000D01*
D24*
X119000000Y-31500000D02*
X119000000Y-38500000D01*
X98500000Y-36250000D02*
X98500000Y-30250000D01*
X101603700Y-90908800D02*
X101603700Y-95000000D01*
D28*
X107900000Y-40500000D02*
X110000000Y-40500000D01*
D24*
X119000000Y-45500000D02*
X119000000Y-52000000D01*
D25*
X98000000Y-73250000D02*
X99750000Y-75000000D01*
X99000000Y-95000000D02*
X98000000Y-94000000D01*
X99750000Y-75000000D02*
X101603700Y-75000000D01*
X101603700Y-95000000D02*
X99000000Y-95000000D01*
D24*
X119000000Y-38500000D02*
X119000000Y-45500000D01*
X100700000Y-37400000D02*
X99650000Y-37400000D01*
D28*
X105037500Y-41500000D02*
X106900000Y-41500000D01*
D24*
X98500000Y-30250000D02*
X99500000Y-29250000D01*
D28*
X113962500Y-40500000D02*
X114000000Y-40537500D01*
D24*
X101603700Y-70908800D02*
X102562500Y-69950000D01*
X102562500Y-89950000D02*
X101603700Y-90908800D01*
D28*
X110000000Y-40500000D02*
X113962500Y-40500000D01*
D24*
X119000000Y-30000000D02*
X119000000Y-31500000D01*
X101603700Y-75000000D02*
X101603700Y-70908800D01*
D28*
X106900000Y-41500000D02*
X107900000Y-40500000D01*
D24*
X99650000Y-37400000D02*
X98500000Y-36250000D01*
D25*
X98000000Y-70025000D02*
X98000000Y-73250000D01*
D24*
X99500000Y-29250000D02*
X118250000Y-29250000D01*
X115250000Y-85500000D02*
X111537500Y-85500000D01*
%TO.N,lsd_in_1*%
X105896300Y-90458800D02*
X104437500Y-89000000D01*
X118000000Y-86750000D02*
X115750000Y-89000000D01*
X118000000Y-82000000D02*
X118000000Y-86750000D01*
X115750000Y-89000000D02*
X104437500Y-89000000D01*
X105896300Y-95000000D02*
X105896300Y-90458800D01*
%TO.N,lsd_in_2*%
X118000000Y-66750000D02*
X118000000Y-61250000D01*
X105896300Y-70458800D02*
X104437500Y-69000000D01*
X105896300Y-75000000D02*
X105896300Y-70458800D01*
X104437500Y-69000000D02*
X115750000Y-69000000D01*
X115750000Y-69000000D02*
X118000000Y-66750000D01*
D25*
%TO.N,/LSD/driver_1_gate*%
X102562500Y-88050000D02*
X98075000Y-88050000D01*
D26*
X103573101Y-82250000D02*
X103926899Y-82250000D01*
X98075000Y-88050000D02*
X98000000Y-87975000D01*
X102850001Y-82973100D02*
X103573101Y-82250000D01*
X104149999Y-82026900D02*
X104149999Y-81433200D01*
X103926899Y-82250000D02*
X104149999Y-82026900D01*
X102850001Y-83566800D02*
X102850001Y-82973100D01*
D25*
%TO.N,/LSD/driver_2_gate*%
X102550001Y-62673100D02*
X103323101Y-61900000D01*
D26*
X102550001Y-68037501D02*
X102562500Y-68050000D01*
D25*
X103323101Y-61900000D02*
X103676899Y-61900000D01*
X102550001Y-63266800D02*
X102550001Y-62673100D01*
X102550001Y-63266800D02*
X102550001Y-68037501D01*
X98000000Y-67975000D02*
X102487500Y-67975000D01*
X103849999Y-61726900D02*
X103849999Y-61133200D01*
D26*
X102487500Y-67975000D02*
X102562500Y-68050000D01*
D25*
X103676899Y-61900000D02*
X103849999Y-61726900D01*
D26*
%TO.N,Net-(R19-Pad2)*%
X105000000Y-80500000D02*
X105500000Y-81000000D01*
X103500000Y-82973100D02*
X103823100Y-82650000D01*
X103500000Y-83566800D02*
X103500000Y-82973100D01*
X105500000Y-81000000D02*
X105500000Y-82250000D01*
X105000000Y-80500000D02*
X103750000Y-80500000D01*
D24*
X109212500Y-81750000D02*
X105500000Y-81750000D01*
D26*
X103823100Y-82650000D02*
X105100000Y-82650000D01*
X105100000Y-82650000D02*
X105500000Y-82250000D01*
X103500000Y-80750000D02*
X103500000Y-81433200D01*
X103750000Y-80500000D02*
X103500000Y-80750000D01*
X109462500Y-82000000D02*
X109212500Y-81750000D01*
D24*
%TO.N,Net-(R19-Pad3)*%
X109462500Y-85500000D02*
X106083199Y-85500000D01*
X106083199Y-85500000D02*
X104149999Y-83566800D01*
D25*
%TO.N,Net-(R17-Pad1)*%
X99037500Y-81437786D02*
X102845415Y-81437786D01*
D26*
X102845415Y-81437786D02*
X102850001Y-81433200D01*
%TO.N,Net-(R18-Pad1)*%
X102505853Y-61089052D02*
X102550001Y-61133200D01*
D24*
X99037500Y-61089052D02*
X102505853Y-61089052D01*
%TO.N,Net-(R20-Pad3)*%
X105083199Y-64500000D02*
X103849999Y-63266800D01*
X109462500Y-64500000D02*
X105083199Y-64500000D01*
D28*
%TO.N,3V3*%
X103000000Y-37400000D02*
X103000000Y-31600000D01*
D26*
X103000000Y-41462500D02*
X102962500Y-41500000D01*
D24*
X96962500Y-61089052D02*
X96962500Y-47500000D01*
D28*
X103000000Y-37400000D02*
X103000000Y-41462500D01*
%TO.N,5V*%
X110000000Y-38425000D02*
X108025000Y-38425000D01*
X110037500Y-38462500D02*
X110000000Y-38425000D01*
X107000000Y-37400000D02*
X105300000Y-37400000D01*
X114000000Y-38462500D02*
X110037500Y-38462500D01*
X108025000Y-38425000D02*
X107000000Y-37400000D01*
X114037500Y-38500000D02*
X114000000Y-38462500D01*
D26*
%TO.N,gate_driver_2_base*%
X111587500Y-61250000D02*
X111537500Y-61200000D01*
%TD*%
%TA.AperFunction,Conductor*%
%TO.N,GND*%
G36*
X108125551Y-82520185D02*
G01*
X108136515Y-82528108D01*
X108399965Y-82741315D01*
X108402655Y-82743492D01*
X108434281Y-82789121D01*
X108437136Y-82787791D01*
X108440187Y-82794336D01*
X108462292Y-82830174D01*
X108532288Y-82943656D01*
X108656344Y-83067712D01*
X108805666Y-83159814D01*
X108972203Y-83214999D01*
X109074991Y-83225500D01*
X109850008Y-83225499D01*
X109850016Y-83225498D01*
X109850019Y-83225498D01*
X109910859Y-83219283D01*
X109952797Y-83214999D01*
X110119334Y-83159814D01*
X110268656Y-83067712D01*
X110392712Y-82943656D01*
X110394461Y-82940819D01*
X110396169Y-82939283D01*
X110397193Y-82937989D01*
X110397414Y-82938163D01*
X110446406Y-82894096D01*
X110515368Y-82882872D01*
X110579451Y-82910713D01*
X110605537Y-82940817D01*
X110607288Y-82943656D01*
X110731344Y-83067712D01*
X110880666Y-83159814D01*
X111047203Y-83214999D01*
X111149991Y-83225500D01*
X111925008Y-83225499D01*
X111925016Y-83225498D01*
X111925019Y-83225498D01*
X111985859Y-83219283D01*
X112027797Y-83214999D01*
X112194334Y-83159814D01*
X112343656Y-83067712D01*
X112419642Y-82991724D01*
X112447869Y-82970588D01*
X112782471Y-82787791D01*
X112822944Y-82765680D01*
X112882394Y-82750500D01*
X115513327Y-82750500D01*
X115560539Y-82759839D01*
X115628996Y-82788028D01*
X115875328Y-82889459D01*
X115938459Y-82908520D01*
X115945935Y-82911041D01*
X115952611Y-82913531D01*
X115967516Y-82919091D01*
X115993419Y-82921875D01*
X116027127Y-82925500D01*
X116121140Y-82925499D01*
X116125758Y-82925585D01*
X116129142Y-82925711D01*
X116133099Y-82925499D01*
X116972871Y-82925499D01*
X116972872Y-82925499D01*
X117032483Y-82919091D01*
X117082167Y-82900559D01*
X117151858Y-82895576D01*
X117213181Y-82929061D01*
X117246666Y-82990384D01*
X117249500Y-83016742D01*
X117249500Y-86387770D01*
X117229815Y-86454809D01*
X117213181Y-86475451D01*
X115475451Y-88213181D01*
X115414128Y-88246666D01*
X115387770Y-88249500D01*
X105548047Y-88249500D01*
X105524892Y-88246549D01*
X105524766Y-88247236D01*
X105520417Y-88246435D01*
X105137236Y-88203859D01*
X105128675Y-88202604D01*
X105127569Y-88202402D01*
X105127568Y-88202401D01*
X105127563Y-88202401D01*
X105117719Y-88201626D01*
X105113763Y-88201251D01*
X105084192Y-88197966D01*
X105081682Y-88197693D01*
X105081663Y-88197693D01*
X105041075Y-88199211D01*
X105035685Y-88199413D01*
X105031052Y-88199500D01*
X103924500Y-88199500D01*
X103857461Y-88179815D01*
X103811706Y-88127011D01*
X103800500Y-88075500D01*
X103800500Y-87834313D01*
X103800499Y-87834298D01*
X103797598Y-87797432D01*
X103797597Y-87797426D01*
X103751745Y-87639606D01*
X103751744Y-87639603D01*
X103751744Y-87639602D01*
X103668081Y-87498135D01*
X103668079Y-87498133D01*
X103668076Y-87498129D01*
X103551870Y-87381923D01*
X103551862Y-87381917D01*
X103465195Y-87330663D01*
X103410398Y-87298256D01*
X103410397Y-87298255D01*
X103410396Y-87298255D01*
X103410395Y-87298254D01*
X103252404Y-87252353D01*
X103193519Y-87214746D01*
X103164313Y-87151274D01*
X103163000Y-87133277D01*
X103163000Y-84584999D01*
X103182685Y-84517960D01*
X103235489Y-84472205D01*
X103286995Y-84460999D01*
X103725672Y-84460999D01*
X103785283Y-84454591D01*
X103792828Y-84452808D01*
X103793371Y-84455107D01*
X103851328Y-84450948D01*
X103859692Y-84453403D01*
X103864712Y-84454589D01*
X103864716Y-84454591D01*
X103908880Y-84459339D01*
X103924316Y-84460999D01*
X103924317Y-84460999D01*
X103924326Y-84461000D01*
X103931459Y-84460999D01*
X103998498Y-84480677D01*
X104019150Y-84497318D01*
X105604784Y-86082952D01*
X105645572Y-86110205D01*
X105727704Y-86165084D01*
X105732446Y-86167048D01*
X105864287Y-86221659D01*
X105980440Y-86244763D01*
X105999667Y-86248587D01*
X106009280Y-86250500D01*
X106009281Y-86250500D01*
X106009282Y-86250500D01*
X106157117Y-86250500D01*
X108117608Y-86250500D01*
X108177058Y-86265680D01*
X108552127Y-86470586D01*
X108580356Y-86491724D01*
X108656344Y-86567712D01*
X108805666Y-86659814D01*
X108972203Y-86714999D01*
X109074991Y-86725500D01*
X109850008Y-86725499D01*
X109850016Y-86725498D01*
X109850019Y-86725498D01*
X109906302Y-86719748D01*
X109952797Y-86714999D01*
X110119334Y-86659814D01*
X110268656Y-86567712D01*
X110392712Y-86443656D01*
X110484814Y-86294334D01*
X110539999Y-86127797D01*
X110550500Y-86025009D01*
X110550499Y-84974992D01*
X110539999Y-84872203D01*
X110484814Y-84705666D01*
X110392712Y-84556344D01*
X110268656Y-84432288D01*
X110119334Y-84340186D01*
X109952797Y-84285001D01*
X109952795Y-84285000D01*
X109850010Y-84274500D01*
X109074998Y-84274500D01*
X109074980Y-84274501D01*
X108972203Y-84285000D01*
X108972200Y-84285001D01*
X108805668Y-84340185D01*
X108805663Y-84340187D01*
X108656338Y-84432292D01*
X108580353Y-84508276D01*
X108552123Y-84529413D01*
X108222899Y-84709275D01*
X108215750Y-84713181D01*
X108177058Y-84734319D01*
X108117608Y-84749500D01*
X106445428Y-84749500D01*
X106378389Y-84729815D01*
X106357747Y-84713181D01*
X105753009Y-84108443D01*
X105105903Y-83461337D01*
X105072420Y-83400016D01*
X105077404Y-83330324D01*
X105119276Y-83274391D01*
X105171359Y-83253178D01*
X105171206Y-83252604D01*
X105175779Y-83251378D01*
X105177399Y-83250719D01*
X105179054Y-83250501D01*
X105179057Y-83250501D01*
X105331785Y-83209577D01*
X105381904Y-83180639D01*
X105468716Y-83130520D01*
X105580520Y-83018716D01*
X105580520Y-83018714D01*
X105590728Y-83008507D01*
X105590730Y-83008504D01*
X105858506Y-82740728D01*
X105858511Y-82740724D01*
X105868714Y-82730520D01*
X105868716Y-82730520D01*
X105980520Y-82618716D01*
X106012975Y-82562500D01*
X106063542Y-82514285D01*
X106120363Y-82500500D01*
X108058512Y-82500500D01*
X108125551Y-82520185D01*
G37*
%TD.AperFunction*%
%TA.AperFunction,Conductor*%
G36*
X96131334Y-49495048D02*
G01*
X96187267Y-49536920D01*
X96211684Y-49602384D01*
X96212000Y-49611230D01*
X96212000Y-59635492D01*
X96201944Y-59684408D01*
X95932642Y-60311707D01*
X95902139Y-60408652D01*
X95902093Y-60408830D01*
X95899803Y-60416579D01*
X95885001Y-60461251D01*
X95885001Y-60461253D01*
X95874500Y-60564035D01*
X95874500Y-61614053D01*
X95874501Y-61614071D01*
X95885000Y-61716848D01*
X95885001Y-61716851D01*
X95896714Y-61752197D01*
X95940186Y-61883386D01*
X96032288Y-62032708D01*
X96156344Y-62156764D01*
X96305666Y-62248866D01*
X96472203Y-62304051D01*
X96574991Y-62314552D01*
X97350008Y-62314551D01*
X97350016Y-62314550D01*
X97350019Y-62314550D01*
X97406302Y-62308800D01*
X97452797Y-62304051D01*
X97619334Y-62248866D01*
X97768656Y-62156764D01*
X97892712Y-62032708D01*
X97894461Y-62029871D01*
X97896169Y-62028335D01*
X97897193Y-62027041D01*
X97897414Y-62027215D01*
X97946406Y-61983148D01*
X98015368Y-61971924D01*
X98079451Y-61999765D01*
X98105537Y-62029869D01*
X98107288Y-62032708D01*
X98231344Y-62156764D01*
X98380666Y-62248866D01*
X98547203Y-62304051D01*
X98649991Y-62314552D01*
X99425008Y-62314551D01*
X99425016Y-62314550D01*
X99425019Y-62314550D01*
X99481302Y-62308800D01*
X99527797Y-62304051D01*
X99694334Y-62248866D01*
X99843656Y-62156764D01*
X99919642Y-62080776D01*
X99947869Y-62059640D01*
X100322944Y-61854732D01*
X100382394Y-61839552D01*
X101918977Y-61839552D01*
X101986016Y-61859237D01*
X102007405Y-61879147D01*
X102008381Y-61878172D01*
X102014652Y-61884442D01*
X102014655Y-61884446D01*
X102014658Y-61884448D01*
X102129865Y-61970693D01*
X102137655Y-61974947D01*
X102135949Y-61978070D01*
X102178279Y-62009717D01*
X102202736Y-62075167D01*
X102187925Y-62143449D01*
X102166744Y-62171764D01*
X102151275Y-62187235D01*
X102151274Y-62187234D01*
X102151270Y-62187240D01*
X102151268Y-62187242D01*
X102102301Y-62236209D01*
X102064143Y-62274367D01*
X102064141Y-62274368D01*
X102043471Y-62305305D01*
X102043469Y-62305308D01*
X101995691Y-62376810D01*
X101995688Y-62376816D01*
X101969481Y-62440084D01*
X101969482Y-62440085D01*
X101948537Y-62490649D01*
X101948536Y-62490654D01*
X101929532Y-62586192D01*
X101926784Y-62597300D01*
X101888859Y-62725007D01*
X101880466Y-62757405D01*
X101878804Y-62762681D01*
X101878110Y-62765615D01*
X101878110Y-62765617D01*
X101871701Y-62825227D01*
X101871701Y-62825234D01*
X101871701Y-62863617D01*
X101871347Y-62872977D01*
X101869081Y-62902898D01*
X101869630Y-62911044D01*
X101871051Y-62924862D01*
X101871701Y-62937543D01*
X101871701Y-63599816D01*
X101869768Y-63618176D01*
X101870235Y-63618242D01*
X101869625Y-63622611D01*
X101869076Y-63630779D01*
X101867940Y-63666217D01*
X101867941Y-63666229D01*
X101870385Y-63682867D01*
X101871701Y-63700874D01*
X101871701Y-63708355D01*
X101871702Y-63708373D01*
X101878109Y-63767979D01*
X101878111Y-63767986D01*
X101881409Y-63776830D01*
X101887907Y-63802129D01*
X101888853Y-63808572D01*
X101919370Y-63911329D01*
X101924501Y-63946630D01*
X101924501Y-67144171D01*
X101904816Y-67211210D01*
X101852012Y-67256965D01*
X101835101Y-67263246D01*
X101831453Y-67264306D01*
X101806665Y-67268842D01*
X101802553Y-67269168D01*
X101802534Y-67269171D01*
X101459997Y-67346459D01*
X101432705Y-67349500D01*
X99455553Y-67349500D01*
X99392470Y-67332255D01*
X99389784Y-67330668D01*
X98810712Y-66988486D01*
X98810710Y-66988485D01*
X98810705Y-66988482D01*
X98808229Y-66987441D01*
X98791216Y-66978683D01*
X98769334Y-66965186D01*
X98769332Y-66965185D01*
X98769330Y-66965184D01*
X98769331Y-66965184D01*
X98707835Y-66944806D01*
X98698772Y-66941405D01*
X98684750Y-66935508D01*
X98678700Y-66933882D01*
X98678696Y-66933881D01*
X98678692Y-66933880D01*
X98673595Y-66932760D01*
X98661207Y-66929356D01*
X98602798Y-66910001D01*
X98500010Y-66899500D01*
X97499998Y-66899500D01*
X97499980Y-66899501D01*
X97397203Y-66910000D01*
X97397200Y-66910001D01*
X97230668Y-66965185D01*
X97230663Y-66965187D01*
X97081342Y-67057289D01*
X96957289Y-67181342D01*
X96865187Y-67330663D01*
X96865185Y-67330668D01*
X96858945Y-67349500D01*
X96810001Y-67497203D01*
X96810001Y-67497204D01*
X96810000Y-67497204D01*
X96799500Y-67599983D01*
X96799500Y-68350001D01*
X96799501Y-68350019D01*
X96810000Y-68452796D01*
X96810001Y-68452799D01*
X96858945Y-68600500D01*
X96865186Y-68619334D01*
X96957288Y-68768656D01*
X97081344Y-68892712D01*
X97230666Y-68984814D01*
X97397203Y-69039999D01*
X97499991Y-69050500D01*
X98500008Y-69050499D01*
X98500016Y-69050498D01*
X98500019Y-69050498D01*
X98523896Y-69048058D01*
X98602797Y-69039999D01*
X98661727Y-69020470D01*
X98676764Y-69016516D01*
X98677687Y-69016335D01*
X98687887Y-69012130D01*
X98696127Y-69009072D01*
X98769334Y-68984814D01*
X98791307Y-68971260D01*
X98809166Y-68962149D01*
X98810713Y-68961512D01*
X99392469Y-68617744D01*
X99455552Y-68600500D01*
X101344887Y-68600500D01*
X101407822Y-68617658D01*
X101552132Y-68702664D01*
X101566554Y-68713831D01*
X101566969Y-68713298D01*
X101573132Y-68718078D01*
X101573135Y-68718081D01*
X101714602Y-68801744D01*
X101756224Y-68813836D01*
X101872426Y-68847597D01*
X101872429Y-68847597D01*
X101872431Y-68847598D01*
X101909306Y-68850500D01*
X103075500Y-68850500D01*
X103142539Y-68870185D01*
X103188294Y-68922989D01*
X103199500Y-68974500D01*
X103199500Y-69215701D01*
X103202401Y-69252567D01*
X103202402Y-69252573D01*
X103248254Y-69410393D01*
X103248255Y-69410396D01*
X103331917Y-69551862D01*
X103331923Y-69551870D01*
X103448129Y-69668076D01*
X103448133Y-69668079D01*
X103448135Y-69668081D01*
X103589602Y-69751744D01*
X103631224Y-69763836D01*
X103747426Y-69797597D01*
X103747429Y-69797597D01*
X103747431Y-69797598D01*
X103784306Y-69800500D01*
X104076736Y-69800500D01*
X104143775Y-69820185D01*
X104156829Y-69829837D01*
X104438113Y-70067846D01*
X104460597Y-70085640D01*
X104471318Y-70095186D01*
X105109481Y-70733349D01*
X105142966Y-70794672D01*
X105145800Y-70821030D01*
X105145800Y-73512338D01*
X105133503Y-73566175D01*
X105051635Y-73736037D01*
X105004796Y-73787882D01*
X104939932Y-73806200D01*
X102137100Y-73806200D01*
X102137100Y-76193800D01*
X104995318Y-76193800D01*
X105062357Y-76213485D01*
X105069621Y-76218528D01*
X105171365Y-76294693D01*
X105171369Y-76294696D01*
X105171371Y-76294697D01*
X105306217Y-76344991D01*
X105306216Y-76344991D01*
X105313144Y-76345735D01*
X105365827Y-76351400D01*
X106426772Y-76351399D01*
X106486383Y-76344991D01*
X106621231Y-76294696D01*
X106736446Y-76208446D01*
X106822696Y-76093231D01*
X106872991Y-75958383D01*
X106879400Y-75898773D01*
X106879399Y-74152958D01*
X106879861Y-74142261D01*
X106881441Y-74124017D01*
X106880936Y-74115076D01*
X106879107Y-74098518D01*
X106872991Y-74041617D01*
X106846348Y-73970186D01*
X106844311Y-73964272D01*
X106831609Y-73924107D01*
X106831605Y-73924098D01*
X106659097Y-73566175D01*
X106646800Y-73512338D01*
X106646800Y-70384881D01*
X106641063Y-70356042D01*
X106641063Y-70356040D01*
X106617960Y-70239895D01*
X106617959Y-70239888D01*
X106580026Y-70148312D01*
X106561384Y-70103305D01*
X106518241Y-70038737D01*
X106479252Y-69980384D01*
X106461049Y-69962181D01*
X106427564Y-69900858D01*
X106432548Y-69831166D01*
X106474420Y-69775233D01*
X106539884Y-69750816D01*
X106548730Y-69750500D01*
X115823920Y-69750500D01*
X115921462Y-69731096D01*
X115968913Y-69721658D01*
X116105495Y-69665084D01*
X116154729Y-69632186D01*
X116228416Y-69582952D01*
X117394291Y-68417075D01*
X118537819Y-67273549D01*
X118599142Y-67240064D01*
X118668834Y-67245048D01*
X118724767Y-67286920D01*
X118749184Y-67352384D01*
X118749500Y-67361230D01*
X118749500Y-81061271D01*
X118746913Y-81086467D01*
X118741002Y-81114949D01*
X118729613Y-81169827D01*
X118696716Y-81231467D01*
X118635716Y-81265538D01*
X118565980Y-81261220D01*
X118535315Y-81244947D01*
X118465300Y-81194078D01*
X118465299Y-81194077D01*
X118332234Y-81134834D01*
X118287571Y-81114949D01*
X118287569Y-81114948D01*
X118097274Y-81074500D01*
X117902726Y-81074500D01*
X117712431Y-81114948D01*
X117534703Y-81194076D01*
X117458936Y-81249124D01*
X117393129Y-81272603D01*
X117325075Y-81256777D01*
X117286785Y-81223117D01*
X117282546Y-81217454D01*
X117282543Y-81217452D01*
X117266799Y-81205666D01*
X117167331Y-81131204D01*
X117167329Y-81131203D01*
X117167328Y-81131202D01*
X117032482Y-81080908D01*
X117032483Y-81080908D01*
X116972883Y-81074501D01*
X116972881Y-81074500D01*
X116972873Y-81074500D01*
X116972865Y-81074500D01*
X116100632Y-81074500D01*
X116082732Y-81073201D01*
X116081612Y-81073037D01*
X116077827Y-81072485D01*
X116075586Y-81072480D01*
X116068872Y-81072466D01*
X116068871Y-81072466D01*
X116068863Y-81072466D01*
X116032495Y-81074337D01*
X116027992Y-81074454D01*
X116025611Y-81074582D01*
X116021652Y-81074897D01*
X116014819Y-81075248D01*
X116008798Y-81076156D01*
X116008774Y-81076001D01*
X116002181Y-81077182D01*
X115967516Y-81080908D01*
X115967516Y-81080909D01*
X115921282Y-81098152D01*
X115908370Y-81102180D01*
X115875337Y-81110538D01*
X115875326Y-81110541D01*
X115560538Y-81240160D01*
X115513325Y-81249500D01*
X112882396Y-81249500D01*
X112822946Y-81234320D01*
X112447870Y-81029410D01*
X112419639Y-81008271D01*
X112343657Y-80932289D01*
X112343656Y-80932288D01*
X112194334Y-80840186D01*
X112027797Y-80785001D01*
X112027795Y-80785000D01*
X111925010Y-80774500D01*
X111149998Y-80774500D01*
X111149980Y-80774501D01*
X111047203Y-80785000D01*
X111047200Y-80785001D01*
X110880668Y-80840185D01*
X110880663Y-80840187D01*
X110731342Y-80932289D01*
X110607285Y-81056346D01*
X110605537Y-81059182D01*
X110603829Y-81060717D01*
X110602807Y-81062011D01*
X110602585Y-81061836D01*
X110553589Y-81105905D01*
X110484626Y-81117126D01*
X110420544Y-81089282D01*
X110394463Y-81059182D01*
X110392714Y-81056346D01*
X110268657Y-80932289D01*
X110268656Y-80932288D01*
X110119334Y-80840186D01*
X109952797Y-80785001D01*
X109952795Y-80785000D01*
X109850010Y-80774500D01*
X109074998Y-80774500D01*
X109074980Y-80774501D01*
X108972203Y-80785000D01*
X108972196Y-80785002D01*
X108865682Y-80820297D01*
X108858968Y-80822313D01*
X108217848Y-80995222D01*
X108185559Y-80999500D01*
X106216699Y-80999500D01*
X106149660Y-80979815D01*
X106103905Y-80927011D01*
X106096924Y-80907595D01*
X106059577Y-80768216D01*
X106009773Y-80681952D01*
X105980524Y-80631290D01*
X105980518Y-80631282D01*
X105368717Y-80019481D01*
X105368716Y-80019480D01*
X105281904Y-79969360D01*
X105281904Y-79969359D01*
X105281900Y-79969358D01*
X105231785Y-79940423D01*
X105079057Y-79899499D01*
X104920943Y-79899499D01*
X104913347Y-79899499D01*
X104913331Y-79899500D01*
X103670940Y-79899500D01*
X103630019Y-79910464D01*
X103630019Y-79910465D01*
X103592751Y-79920451D01*
X103518214Y-79940423D01*
X103518209Y-79940426D01*
X103381290Y-80019475D01*
X103381282Y-80019481D01*
X103019481Y-80381282D01*
X103019479Y-80381285D01*
X102969361Y-80468094D01*
X102969357Y-80468101D01*
X102964215Y-80477006D01*
X102913645Y-80525219D01*
X102856832Y-80539000D01*
X102624331Y-80539000D01*
X102624324Y-80539001D01*
X102564717Y-80545408D01*
X102429872Y-80595702D01*
X102429865Y-80595706D01*
X102314656Y-80681952D01*
X102314653Y-80681955D01*
X102254285Y-80762597D01*
X102198352Y-80804468D01*
X102155019Y-80812286D01*
X100428709Y-80812286D01*
X100361670Y-80792601D01*
X100354395Y-80787550D01*
X100350992Y-80785002D01*
X99988257Y-80513439D01*
X99973244Y-80498815D01*
X99972821Y-80499239D01*
X99941676Y-80468094D01*
X99843656Y-80370074D01*
X99694334Y-80277972D01*
X99527797Y-80222787D01*
X99527795Y-80222786D01*
X99425010Y-80212286D01*
X98649998Y-80212286D01*
X98649980Y-80212287D01*
X98547203Y-80222786D01*
X98547200Y-80222787D01*
X98380668Y-80277971D01*
X98380663Y-80277973D01*
X98231342Y-80370075D01*
X98107285Y-80494132D01*
X98105537Y-80496968D01*
X98103829Y-80498503D01*
X98102807Y-80499797D01*
X98102585Y-80499622D01*
X98053589Y-80543691D01*
X97984626Y-80554912D01*
X97920544Y-80527068D01*
X97894463Y-80496968D01*
X97892714Y-80494132D01*
X97768657Y-80370075D01*
X97768656Y-80370074D01*
X97619334Y-80277972D01*
X97452797Y-80222787D01*
X97452795Y-80222786D01*
X97350016Y-80212286D01*
X97350009Y-80212286D01*
X97221381Y-80212286D01*
X97167958Y-80200187D01*
X96997716Y-80118911D01*
X96997716Y-80118912D01*
X96456781Y-79860663D01*
X96422523Y-79836442D01*
X95536819Y-78950737D01*
X95503334Y-78889414D01*
X95500500Y-78863056D01*
X95500500Y-50074730D01*
X95520185Y-50007691D01*
X95536819Y-49987049D01*
X96000319Y-49523549D01*
X96061642Y-49490064D01*
X96131334Y-49495048D01*
G37*
%TD.AperFunction*%
%TA.AperFunction,Conductor*%
G36*
X108177058Y-61965680D02*
G01*
X108552127Y-62170586D01*
X108580356Y-62191724D01*
X108656344Y-62267712D01*
X108805666Y-62359814D01*
X108972203Y-62414999D01*
X109074991Y-62425500D01*
X109850008Y-62425499D01*
X109850016Y-62425498D01*
X109850019Y-62425498D01*
X109906302Y-62419748D01*
X109952797Y-62414999D01*
X110119334Y-62359814D01*
X110268656Y-62267712D01*
X110392712Y-62143656D01*
X110394461Y-62140819D01*
X110396169Y-62139283D01*
X110397193Y-62137989D01*
X110397414Y-62138163D01*
X110446406Y-62094096D01*
X110515368Y-62082872D01*
X110579451Y-62110713D01*
X110605537Y-62140817D01*
X110607288Y-62143656D01*
X110731344Y-62267712D01*
X110880666Y-62359814D01*
X111047203Y-62414999D01*
X111149991Y-62425500D01*
X111925008Y-62425499D01*
X111925016Y-62425498D01*
X111925019Y-62425498D01*
X111981302Y-62419748D01*
X112027797Y-62414999D01*
X112194334Y-62359814D01*
X112343656Y-62267712D01*
X112375161Y-62236205D01*
X112408183Y-62212584D01*
X112763668Y-62038028D01*
X112814241Y-62013195D01*
X112868896Y-62000500D01*
X115513327Y-62000500D01*
X115560539Y-62009839D01*
X115628996Y-62038028D01*
X115875328Y-62139459D01*
X115938459Y-62158520D01*
X115945935Y-62161041D01*
X115952605Y-62163529D01*
X115967516Y-62169091D01*
X115993419Y-62171875D01*
X116027127Y-62175500D01*
X116121140Y-62175499D01*
X116125758Y-62175585D01*
X116129142Y-62175711D01*
X116133099Y-62175499D01*
X116972871Y-62175499D01*
X116972872Y-62175499D01*
X117032483Y-62169091D01*
X117082167Y-62150559D01*
X117151858Y-62145576D01*
X117213181Y-62179061D01*
X117246666Y-62240384D01*
X117249500Y-62266742D01*
X117249500Y-66387770D01*
X117229815Y-66454809D01*
X117213181Y-66475451D01*
X115475451Y-68213181D01*
X115414128Y-68246666D01*
X115387770Y-68249500D01*
X105548047Y-68249500D01*
X105524892Y-68246549D01*
X105524766Y-68247236D01*
X105520417Y-68246435D01*
X105137236Y-68203859D01*
X105128675Y-68202604D01*
X105127569Y-68202402D01*
X105127568Y-68202401D01*
X105127563Y-68202401D01*
X105117719Y-68201626D01*
X105113763Y-68201251D01*
X105084192Y-68197966D01*
X105081682Y-68197693D01*
X105081663Y-68197693D01*
X105041075Y-68199211D01*
X105035685Y-68199413D01*
X105031052Y-68199500D01*
X103924500Y-68199500D01*
X103857461Y-68179815D01*
X103811706Y-68127011D01*
X103800500Y-68075500D01*
X103800500Y-67834313D01*
X103800499Y-67834298D01*
X103797598Y-67797432D01*
X103797597Y-67797426D01*
X103751745Y-67639606D01*
X103751744Y-67639603D01*
X103751744Y-67639602D01*
X103668081Y-67498135D01*
X103668079Y-67498133D01*
X103668076Y-67498129D01*
X103551870Y-67381923D01*
X103551862Y-67381917D01*
X103410396Y-67298255D01*
X103410395Y-67298254D01*
X103264905Y-67255985D01*
X103206020Y-67218378D01*
X103176814Y-67154906D01*
X103175501Y-67136909D01*
X103175501Y-64284999D01*
X103195186Y-64217960D01*
X103247990Y-64172205D01*
X103299501Y-64160999D01*
X103425671Y-64160999D01*
X103425672Y-64160999D01*
X103485283Y-64154591D01*
X103492828Y-64152808D01*
X103493371Y-64155107D01*
X103551328Y-64150948D01*
X103559692Y-64153403D01*
X103564712Y-64154589D01*
X103564716Y-64154591D01*
X103608880Y-64159339D01*
X103624316Y-64160999D01*
X103624317Y-64160999D01*
X103624326Y-64161000D01*
X103631459Y-64160999D01*
X103698498Y-64180677D01*
X103719150Y-64197318D01*
X104500248Y-64978416D01*
X104604783Y-65082951D01*
X104604784Y-65082952D01*
X104727697Y-65165080D01*
X104727710Y-65165087D01*
X104864281Y-65221656D01*
X104864286Y-65221658D01*
X104864290Y-65221658D01*
X104864291Y-65221659D01*
X105009278Y-65250500D01*
X105009281Y-65250500D01*
X108117608Y-65250500D01*
X108177058Y-65265680D01*
X108552127Y-65470586D01*
X108580356Y-65491724D01*
X108656344Y-65567712D01*
X108805666Y-65659814D01*
X108972203Y-65714999D01*
X109074991Y-65725500D01*
X109850008Y-65725499D01*
X109850016Y-65725498D01*
X109850019Y-65725498D01*
X109906302Y-65719748D01*
X109952797Y-65714999D01*
X110119334Y-65659814D01*
X110268656Y-65567712D01*
X110392712Y-65443656D01*
X110484814Y-65294334D01*
X110539999Y-65127797D01*
X110550500Y-65025009D01*
X110550499Y-63974992D01*
X110539999Y-63872203D01*
X110484814Y-63705666D01*
X110392712Y-63556344D01*
X110268656Y-63432288D01*
X110119334Y-63340186D01*
X109952797Y-63285001D01*
X109952795Y-63285000D01*
X109850010Y-63274500D01*
X109074998Y-63274500D01*
X109074980Y-63274501D01*
X108972203Y-63285000D01*
X108972200Y-63285001D01*
X108805668Y-63340185D01*
X108805663Y-63340187D01*
X108656338Y-63432292D01*
X108580353Y-63508276D01*
X108552123Y-63529413D01*
X108224583Y-63708355D01*
X108215750Y-63713181D01*
X108177058Y-63734319D01*
X108117608Y-63749500D01*
X105445428Y-63749500D01*
X105378389Y-63729815D01*
X105357747Y-63713181D01*
X104853161Y-63208594D01*
X104819676Y-63147271D01*
X104824660Y-63077579D01*
X104866532Y-63021646D01*
X104904864Y-63002247D01*
X104907439Y-63001465D01*
X104907452Y-63001463D01*
X104940792Y-62987652D01*
X105021286Y-62954312D01*
X105085647Y-62911306D01*
X105123733Y-62885858D01*
X105210858Y-62798733D01*
X105210859Y-62798730D01*
X105685857Y-62323734D01*
X105691993Y-62314552D01*
X105754311Y-62221286D01*
X105801463Y-62107452D01*
X105812829Y-62050308D01*
X105845212Y-61988399D01*
X105905928Y-61953824D01*
X105934446Y-61950500D01*
X108117608Y-61950500D01*
X108177058Y-61965680D01*
G37*
%TD.AperFunction*%
%TA.AperFunction,Conductor*%
G36*
X120942539Y-28020185D02*
G01*
X120988294Y-28072989D01*
X120999500Y-28124500D01*
X120999500Y-98875500D01*
X120979815Y-98942539D01*
X120927011Y-98988294D01*
X120875500Y-98999500D01*
X93124500Y-98999500D01*
X93057461Y-98979815D01*
X93011706Y-98927011D01*
X93000500Y-98875500D01*
X93000500Y-79299206D01*
X93999499Y-79299206D01*
X94028340Y-79444193D01*
X94028343Y-79444203D01*
X94084914Y-79580778D01*
X94117812Y-79630013D01*
X94117813Y-79630016D01*
X94167046Y-79703700D01*
X94167052Y-79703707D01*
X95371479Y-80908133D01*
X95392641Y-80936407D01*
X95423721Y-80993351D01*
X95423722Y-80993352D01*
X95859344Y-81791498D01*
X95874500Y-81850903D01*
X95874500Y-81962786D01*
X95874501Y-81962805D01*
X95885000Y-82065582D01*
X95885001Y-82065585D01*
X95927383Y-82193483D01*
X95940186Y-82232120D01*
X96032288Y-82381442D01*
X96156344Y-82505498D01*
X96305666Y-82597600D01*
X96472203Y-82652785D01*
X96574991Y-82663286D01*
X97350008Y-82663285D01*
X97350016Y-82663284D01*
X97350019Y-82663284D01*
X97406302Y-82657534D01*
X97452797Y-82652785D01*
X97619334Y-82597600D01*
X97768656Y-82505498D01*
X97892712Y-82381442D01*
X97894461Y-82378605D01*
X97896169Y-82377069D01*
X97897193Y-82375775D01*
X97897414Y-82375949D01*
X97946406Y-82331882D01*
X98015368Y-82320658D01*
X98079451Y-82348499D01*
X98105537Y-82378603D01*
X98107288Y-82381442D01*
X98231344Y-82505498D01*
X98380666Y-82597600D01*
X98547203Y-82652785D01*
X98649991Y-82663286D01*
X99425008Y-82663285D01*
X99425016Y-82663284D01*
X99425019Y-82663284D01*
X99481302Y-82657534D01*
X99527797Y-82652785D01*
X99694334Y-82597600D01*
X99843656Y-82505498D01*
X99967712Y-82381442D01*
X99967712Y-82381441D01*
X99972821Y-82376333D01*
X99973245Y-82376757D01*
X99988252Y-82362135D01*
X100354395Y-82088021D01*
X100419858Y-82063602D01*
X100428709Y-82063286D01*
X102161885Y-82063286D01*
X102228924Y-82082971D01*
X102261151Y-82112975D01*
X102314653Y-82184444D01*
X102314656Y-82184447D01*
X102429865Y-82270693D01*
X102429870Y-82270696D01*
X102448140Y-82277510D01*
X102504075Y-82319381D01*
X102528493Y-82384845D01*
X102513642Y-82453118D01*
X102492494Y-82481370D01*
X102481291Y-82492574D01*
X102481287Y-82492578D01*
X102369482Y-82604382D01*
X102369480Y-82604385D01*
X102361206Y-82618716D01*
X102334436Y-82665084D01*
X102319148Y-82691564D01*
X102290423Y-82741315D01*
X102290423Y-82741316D01*
X102262926Y-82843931D01*
X102256753Y-82861543D01*
X102211162Y-82965733D01*
X102205812Y-82978428D01*
X102205593Y-82978969D01*
X102205583Y-82978995D01*
X102184920Y-83041322D01*
X102183570Y-83047469D01*
X102178644Y-83064183D01*
X102178111Y-83065612D01*
X102178110Y-83065616D01*
X102171701Y-83125218D01*
X102171701Y-83151567D01*
X102170920Y-83165462D01*
X102168796Y-83184292D01*
X102169069Y-83193258D01*
X102171263Y-83219283D01*
X102171701Y-83229697D01*
X102171701Y-83455137D01*
X102170039Y-83475372D01*
X102125930Y-83742044D01*
X102095569Y-83804973D01*
X102091276Y-83809487D01*
X102081982Y-83818781D01*
X102081980Y-83818783D01*
X102081980Y-83818784D01*
X102050578Y-83873175D01*
X102026750Y-83914445D01*
X102002923Y-83955714D01*
X102002923Y-83955715D01*
X101961999Y-84108443D01*
X101961999Y-84108445D01*
X101961999Y-84276546D01*
X101962000Y-84276559D01*
X101962000Y-87133277D01*
X101942315Y-87200316D01*
X101889511Y-87246071D01*
X101872596Y-87252353D01*
X101731735Y-87293278D01*
X101728067Y-87294283D01*
X101718516Y-87296742D01*
X101716668Y-87297362D01*
X101707962Y-87301127D01*
X101706438Y-87301774D01*
X101434793Y-87414961D01*
X101387100Y-87424500D01*
X99479897Y-87424500D01*
X99412858Y-87404815D01*
X99408996Y-87402230D01*
X99379850Y-87381917D01*
X98938230Y-87074131D01*
X98921450Y-87060082D01*
X98918657Y-87057289D01*
X98918656Y-87057288D01*
X98775375Y-86968912D01*
X98769336Y-86965187D01*
X98769331Y-86965185D01*
X98767862Y-86964698D01*
X98602797Y-86910001D01*
X98602795Y-86910000D01*
X98500010Y-86899500D01*
X97499998Y-86899500D01*
X97499980Y-86899501D01*
X97397203Y-86910000D01*
X97397200Y-86910001D01*
X97230668Y-86965185D01*
X97230663Y-86965187D01*
X97081342Y-87057289D01*
X96957289Y-87181342D01*
X96865187Y-87330663D01*
X96865186Y-87330666D01*
X96810001Y-87497203D01*
X96810001Y-87497204D01*
X96810000Y-87497204D01*
X96799500Y-87599983D01*
X96799500Y-88350001D01*
X96799501Y-88350019D01*
X96810000Y-88452796D01*
X96810001Y-88452799D01*
X96865185Y-88619331D01*
X96865186Y-88619334D01*
X96957288Y-88768656D01*
X97081344Y-88892712D01*
X97230666Y-88984814D01*
X97397203Y-89039999D01*
X97499991Y-89050500D01*
X98500008Y-89050499D01*
X98500016Y-89050498D01*
X98500019Y-89050498D01*
X98556302Y-89044748D01*
X98602797Y-89039999D01*
X98769334Y-88984814D01*
X98769343Y-88984808D01*
X98770305Y-88984360D01*
X98778813Y-88979674D01*
X99376277Y-88688064D01*
X99430666Y-88675500D01*
X101387104Y-88675500D01*
X101434790Y-88685036D01*
X101706444Y-88798226D01*
X101707788Y-88798797D01*
X101718380Y-88803378D01*
X101721338Y-88804406D01*
X101725702Y-88806185D01*
X101726023Y-88806313D01*
X101784217Y-88825520D01*
X101794211Y-88826677D01*
X101814527Y-88830775D01*
X101872431Y-88847598D01*
X101909306Y-88850500D01*
X103075500Y-88850500D01*
X103142539Y-88870185D01*
X103188294Y-88922989D01*
X103199500Y-88974500D01*
X103199500Y-89215701D01*
X103202401Y-89252567D01*
X103202402Y-89252573D01*
X103248254Y-89410393D01*
X103248255Y-89410396D01*
X103331917Y-89551862D01*
X103331923Y-89551870D01*
X103448129Y-89668076D01*
X103448133Y-89668079D01*
X103448135Y-89668081D01*
X103589602Y-89751744D01*
X103631224Y-89763836D01*
X103747426Y-89797597D01*
X103747429Y-89797597D01*
X103747431Y-89797598D01*
X103784306Y-89800500D01*
X104076736Y-89800500D01*
X104143775Y-89820185D01*
X104156829Y-89829837D01*
X104438113Y-90067846D01*
X104460597Y-90085640D01*
X104471318Y-90095186D01*
X105109481Y-90733349D01*
X105142966Y-90794672D01*
X105145800Y-90821030D01*
X105145800Y-93512338D01*
X105133503Y-93566175D01*
X105051635Y-93736037D01*
X105004796Y-93787882D01*
X104939932Y-93806200D01*
X102137100Y-93806200D01*
X102137100Y-96193800D01*
X104995318Y-96193800D01*
X105062357Y-96213485D01*
X105069621Y-96218528D01*
X105171365Y-96294693D01*
X105171369Y-96294696D01*
X105171371Y-96294697D01*
X105306217Y-96344991D01*
X105306216Y-96344991D01*
X105313144Y-96345735D01*
X105365827Y-96351400D01*
X106426772Y-96351399D01*
X106486383Y-96344991D01*
X106621231Y-96294696D01*
X106736446Y-96208446D01*
X106822696Y-96093231D01*
X106872991Y-95958383D01*
X106879400Y-95898773D01*
X106879399Y-94152958D01*
X106879861Y-94142261D01*
X106881441Y-94124017D01*
X106880936Y-94115076D01*
X106879107Y-94098518D01*
X106872991Y-94041617D01*
X106846348Y-93970186D01*
X106844311Y-93964272D01*
X106831609Y-93924107D01*
X106831605Y-93924098D01*
X106659097Y-93566175D01*
X106646800Y-93512338D01*
X106646800Y-90384881D01*
X106641063Y-90356042D01*
X106641063Y-90356040D01*
X106617960Y-90239895D01*
X106617959Y-90239888D01*
X106580026Y-90148312D01*
X106561384Y-90103305D01*
X106518241Y-90038737D01*
X106479252Y-89980384D01*
X106461049Y-89962181D01*
X106427564Y-89900858D01*
X106432548Y-89831166D01*
X106474420Y-89775233D01*
X106539884Y-89750816D01*
X106548730Y-89750500D01*
X115823920Y-89750500D01*
X115921462Y-89731096D01*
X115968913Y-89721658D01*
X116105495Y-89665084D01*
X116154729Y-89632186D01*
X116228416Y-89582952D01*
X118582952Y-87228415D01*
X118618771Y-87174808D01*
X118665084Y-87105495D01*
X118694197Y-87035209D01*
X118721659Y-86968912D01*
X118750500Y-86823917D01*
X118750500Y-86676082D01*
X118750500Y-82938726D01*
X118753087Y-82913531D01*
X118762370Y-82868796D01*
X118770385Y-82830172D01*
X118803280Y-82768532D01*
X118864280Y-82734461D01*
X118934016Y-82738777D01*
X118964681Y-82755049D01*
X119009746Y-82787791D01*
X119034702Y-82805923D01*
X119089172Y-82830174D01*
X119212429Y-82885051D01*
X119402726Y-82925500D01*
X119597274Y-82925500D01*
X119787571Y-82885051D01*
X119965299Y-82805922D01*
X120122692Y-82691569D01*
X120252870Y-82546992D01*
X120350144Y-82378508D01*
X120410262Y-82193482D01*
X120430598Y-82000000D01*
X120410262Y-81806518D01*
X120390383Y-81745336D01*
X120386774Y-81729472D01*
X120386540Y-81729521D01*
X120253087Y-81086469D01*
X120250500Y-81061272D01*
X120250500Y-62188726D01*
X120253087Y-62163529D01*
X120254492Y-62156761D01*
X120385639Y-61524818D01*
X120386837Y-61518867D01*
X120386837Y-61518860D01*
X120387159Y-61517262D01*
X120390793Y-61503399D01*
X120410260Y-61443488D01*
X120410261Y-61443484D01*
X120410262Y-61443482D01*
X120430598Y-61250000D01*
X120410262Y-61056518D01*
X120390383Y-60995336D01*
X120386774Y-60979472D01*
X120386540Y-60979521D01*
X120253087Y-60336469D01*
X120250500Y-60311272D01*
X120250500Y-60176079D01*
X120221659Y-60031092D01*
X120221658Y-60031091D01*
X120221658Y-60031087D01*
X120165084Y-59894505D01*
X120102785Y-59801267D01*
X120102785Y-59801266D01*
X120102783Y-59801265D01*
X120082952Y-59771584D01*
X117786819Y-57475451D01*
X117753334Y-57414128D01*
X117750500Y-57387770D01*
X117750500Y-53000377D01*
X117770185Y-52933338D01*
X117810200Y-52894351D01*
X117916185Y-52830079D01*
X117921304Y-52826866D01*
X117936776Y-52818620D01*
X117965299Y-52805922D01*
X118122692Y-52691569D01*
X118252870Y-52546992D01*
X118350144Y-52378508D01*
X118410262Y-52193482D01*
X118430598Y-52000000D01*
X118410262Y-51806518D01*
X118350144Y-51621492D01*
X118350143Y-51621491D01*
X118350143Y-51621489D01*
X118350142Y-51621488D01*
X118316202Y-51562703D01*
X118252870Y-51453008D01*
X118201882Y-51396381D01*
X118122697Y-51308435D01*
X118122694Y-51308433D01*
X118122693Y-51308432D01*
X118122692Y-51308431D01*
X118055097Y-51259320D01*
X117965300Y-51194078D01*
X117936116Y-51181085D01*
X117920119Y-51171974D01*
X117919973Y-51172216D01*
X117810200Y-51105644D01*
X117763086Y-51054050D01*
X117750500Y-50999618D01*
X117750500Y-46500377D01*
X117770185Y-46433338D01*
X117810200Y-46394351D01*
X117916185Y-46330079D01*
X117921304Y-46326866D01*
X117936776Y-46318620D01*
X117965299Y-46305922D01*
X118122692Y-46191569D01*
X118252870Y-46046992D01*
X118350144Y-45878508D01*
X118410262Y-45693482D01*
X118430598Y-45500000D01*
X118410262Y-45306518D01*
X118350144Y-45121492D01*
X118350143Y-45121490D01*
X118350143Y-45121489D01*
X118350142Y-45121488D01*
X118316202Y-45062703D01*
X118252870Y-44953008D01*
X118201882Y-44896381D01*
X118122697Y-44808435D01*
X118122694Y-44808433D01*
X118122693Y-44808432D01*
X118122692Y-44808431D01*
X118043995Y-44751254D01*
X117965297Y-44694076D01*
X117828848Y-44633326D01*
X117787571Y-44614949D01*
X117787569Y-44614948D01*
X117597274Y-44574500D01*
X117402726Y-44574500D01*
X117212431Y-44614948D01*
X117034702Y-44694076D01*
X116877305Y-44808433D01*
X116877302Y-44808435D01*
X116747129Y-44953009D01*
X116649856Y-45121490D01*
X116649775Y-45121672D01*
X116641417Y-45141359D01*
X116640662Y-45142777D01*
X116526276Y-45400622D01*
X116500612Y-45438018D01*
X116417047Y-45521585D01*
X116367812Y-45595271D01*
X116334921Y-45644496D01*
X116334914Y-45644508D01*
X116278342Y-45781086D01*
X116278340Y-45781092D01*
X116249500Y-45926079D01*
X116249500Y-45926082D01*
X116249500Y-51573918D01*
X116249500Y-51573920D01*
X116249499Y-51573920D01*
X116278340Y-51718907D01*
X116278343Y-51718917D01*
X116334914Y-51855492D01*
X116367812Y-51904727D01*
X116367813Y-51904729D01*
X116385440Y-51931110D01*
X116406317Y-51997787D01*
X116387832Y-52065167D01*
X116385441Y-52068888D01*
X116376047Y-52082948D01*
X116376045Y-52082951D01*
X116334919Y-52144499D01*
X116334912Y-52144511D01*
X116278343Y-52281082D01*
X116278340Y-52281092D01*
X116249500Y-52426079D01*
X116249500Y-52426082D01*
X116249500Y-57823918D01*
X116249500Y-57823920D01*
X116249499Y-57823920D01*
X116278340Y-57968907D01*
X116278343Y-57968917D01*
X116334914Y-58105492D01*
X116367812Y-58154727D01*
X116367813Y-58154730D01*
X116417046Y-58228414D01*
X116417052Y-58228421D01*
X118329379Y-60140747D01*
X118362864Y-60202070D01*
X118357880Y-60271762D01*
X118316008Y-60327695D01*
X118250544Y-60352112D01*
X118215917Y-60349718D01*
X118097274Y-60324500D01*
X117902726Y-60324500D01*
X117712431Y-60364948D01*
X117534703Y-60444076D01*
X117458936Y-60499124D01*
X117393129Y-60522603D01*
X117325075Y-60506777D01*
X117286785Y-60473117D01*
X117282546Y-60467454D01*
X117282543Y-60467452D01*
X117274265Y-60461255D01*
X117167331Y-60381204D01*
X117167329Y-60381203D01*
X117167328Y-60381202D01*
X117032482Y-60330908D01*
X117032483Y-60330908D01*
X116972883Y-60324501D01*
X116972881Y-60324500D01*
X116972873Y-60324500D01*
X116972865Y-60324500D01*
X116100632Y-60324500D01*
X116082732Y-60323201D01*
X116081612Y-60323037D01*
X116077827Y-60322485D01*
X116075586Y-60322480D01*
X116068872Y-60322466D01*
X116068871Y-60322466D01*
X116068863Y-60322466D01*
X116032495Y-60324337D01*
X116027992Y-60324454D01*
X116025611Y-60324582D01*
X116021652Y-60324897D01*
X116014819Y-60325248D01*
X116008798Y-60326156D01*
X116008774Y-60326001D01*
X116002181Y-60327182D01*
X115967516Y-60330908D01*
X115967516Y-60330909D01*
X115921282Y-60348152D01*
X115908370Y-60352180D01*
X115875337Y-60360538D01*
X115875326Y-60360541D01*
X115560538Y-60490160D01*
X115513325Y-60499500D01*
X112895456Y-60499500D01*
X112831573Y-60481778D01*
X112631193Y-60361329D01*
X112631192Y-60361329D01*
X112616724Y-60352632D01*
X112497202Y-60280787D01*
X112473945Y-60260326D01*
X112472820Y-60261452D01*
X112413438Y-60202070D01*
X112343656Y-60132288D01*
X112194334Y-60040186D01*
X112027797Y-59985001D01*
X112027795Y-59985000D01*
X111925010Y-59974500D01*
X111149998Y-59974500D01*
X111149980Y-59974501D01*
X111047203Y-59985000D01*
X111047200Y-59985001D01*
X110880668Y-60040185D01*
X110880663Y-60040187D01*
X110731342Y-60132289D01*
X110607285Y-60256346D01*
X110605537Y-60259182D01*
X110603829Y-60260717D01*
X110602807Y-60262011D01*
X110602585Y-60261836D01*
X110553589Y-60305905D01*
X110484626Y-60317126D01*
X110420544Y-60289282D01*
X110394463Y-60259182D01*
X110392714Y-60256346D01*
X110268657Y-60132289D01*
X110268656Y-60132288D01*
X110119334Y-60040186D01*
X109952797Y-59985001D01*
X109952795Y-59985000D01*
X109850010Y-59974500D01*
X109074998Y-59974500D01*
X109074980Y-59974501D01*
X108972203Y-59985000D01*
X108972200Y-59985001D01*
X108805668Y-60040185D01*
X108805663Y-60040187D01*
X108656338Y-60132292D01*
X108580353Y-60208276D01*
X108552123Y-60229413D01*
X108177058Y-60434319D01*
X108117608Y-60449500D01*
X105851184Y-60449500D01*
X105784145Y-60429815D01*
X105748082Y-60394392D01*
X105739269Y-60381202D01*
X105725463Y-60360540D01*
X105725463Y-60360539D01*
X105685861Y-60301271D01*
X105685855Y-60301263D01*
X105595637Y-60211045D01*
X105595606Y-60211016D01*
X105190198Y-59805608D01*
X105190178Y-59805586D01*
X105098733Y-59714141D01*
X105047509Y-59679915D01*
X104996287Y-59645689D01*
X104996286Y-59645688D01*
X104996283Y-59645686D01*
X104996280Y-59645685D01*
X104915792Y-59612347D01*
X104882453Y-59598537D01*
X104872427Y-59596543D01*
X104822029Y-59586518D01*
X104761610Y-59574500D01*
X104761607Y-59574500D01*
X104761606Y-59574500D01*
X103338394Y-59574500D01*
X103338389Y-59574500D01*
X103217553Y-59598535D01*
X103217541Y-59598539D01*
X103185262Y-59611909D01*
X103170397Y-59618067D01*
X103103719Y-59645685D01*
X103103717Y-59645686D01*
X103001266Y-59714141D01*
X103001263Y-59714144D01*
X102841357Y-59874052D01*
X102801269Y-59914140D01*
X102801267Y-59914142D01*
X102757704Y-59957704D01*
X102714142Y-60001266D01*
X102688137Y-60040186D01*
X102688136Y-60040185D01*
X102645689Y-60103712D01*
X102645685Y-60103719D01*
X102621358Y-60162452D01*
X102577517Y-60216856D01*
X102511223Y-60238921D01*
X102506798Y-60239000D01*
X102324331Y-60239000D01*
X102324324Y-60239001D01*
X102264717Y-60245408D01*
X102129873Y-60295702D01*
X102129870Y-60295703D01*
X102129870Y-60295704D01*
X102105670Y-60313819D01*
X102040209Y-60338236D01*
X102031362Y-60338552D01*
X100382396Y-60338552D01*
X100322946Y-60323372D01*
X99947870Y-60118462D01*
X99919639Y-60097323D01*
X99843657Y-60021341D01*
X99843656Y-60021340D01*
X99694334Y-59929238D01*
X99527797Y-59874053D01*
X99527795Y-59874052D01*
X99425010Y-59863552D01*
X98649998Y-59863552D01*
X98649980Y-59863553D01*
X98547203Y-59874052D01*
X98547200Y-59874053D01*
X98380668Y-59929237D01*
X98380663Y-59929239D01*
X98231345Y-60021339D01*
X98106347Y-60146337D01*
X98045024Y-60179821D01*
X97975332Y-60174837D01*
X97919399Y-60132965D01*
X97904722Y-60107571D01*
X97723056Y-59684406D01*
X97713000Y-59635490D01*
X97713000Y-53681816D01*
X99697067Y-53681816D01*
X111228500Y-53681816D01*
X111228500Y-49871723D01*
X114733184Y-49871723D01*
X115996054Y-49871723D01*
X115996054Y-47704092D01*
X114733184Y-47704092D01*
X114733184Y-49871723D01*
X111228500Y-49871723D01*
X111228500Y-48069772D01*
X99697067Y-48069772D01*
X99697067Y-53681816D01*
X97713000Y-53681816D01*
X97713000Y-47862229D01*
X97732685Y-47795190D01*
X97749314Y-47774553D01*
X102422528Y-43101338D01*
X102456779Y-43077122D01*
X103167958Y-42737596D01*
X103221381Y-42725499D01*
X103350002Y-42725499D01*
X103350008Y-42725499D01*
X103452797Y-42714999D01*
X103619334Y-42659814D01*
X103768656Y-42567712D01*
X103892712Y-42443656D01*
X103984814Y-42294334D01*
X104039999Y-42127797D01*
X104050500Y-42025009D01*
X104050499Y-41038937D01*
X104050928Y-41028636D01*
X104054243Y-40988871D01*
X104047278Y-40872203D01*
X104005259Y-40168378D01*
X104001427Y-40129514D01*
X104001098Y-40126174D01*
X104000500Y-40114008D01*
X104000500Y-37301455D01*
X104299500Y-37301455D01*
X104299500Y-37498544D01*
X104322117Y-37612246D01*
X104324500Y-37636437D01*
X104324500Y-38522870D01*
X104324501Y-38522876D01*
X104330908Y-38582483D01*
X104381202Y-38717328D01*
X104381206Y-38717335D01*
X104467452Y-38832544D01*
X104467455Y-38832547D01*
X104582664Y-38918793D01*
X104582671Y-38918797D01*
X104717517Y-38969091D01*
X104717516Y-38969091D01*
X104724444Y-38969835D01*
X104777127Y-38975500D01*
X105822872Y-38975499D01*
X105882483Y-38969091D01*
X106017331Y-38918796D01*
X106132546Y-38832546D01*
X106218796Y-38717331D01*
X106269091Y-38582483D01*
X106275500Y-38522873D01*
X106275500Y-38522845D01*
X106275678Y-38519548D01*
X106276934Y-38519615D01*
X106295185Y-38457461D01*
X106347989Y-38411706D01*
X106399500Y-38400500D01*
X106534218Y-38400500D01*
X106601257Y-38420185D01*
X106621899Y-38436819D01*
X107244735Y-39059655D01*
X107244764Y-39059686D01*
X107387214Y-39202136D01*
X107387218Y-39202139D01*
X107551082Y-39311630D01*
X107551084Y-39311630D01*
X107551086Y-39311632D01*
X107675803Y-39363291D01*
X107733164Y-39387051D01*
X107829812Y-39406275D01*
X107878135Y-39415887D01*
X107926458Y-39425500D01*
X107926459Y-39425500D01*
X107926460Y-39425500D01*
X108123540Y-39425500D01*
X108616748Y-39425500D01*
X108641028Y-39428512D01*
X108641104Y-39428086D01*
X108645457Y-39428858D01*
X109466161Y-39514603D01*
X109518896Y-39517340D01*
X109521332Y-39517339D01*
X109553905Y-39513872D01*
X109555577Y-39513695D01*
X109568697Y-39512999D01*
X110461061Y-39512999D01*
X110471363Y-39513428D01*
X110511128Y-39516743D01*
X111331623Y-39467758D01*
X111345821Y-39466358D01*
X111373803Y-39463599D01*
X111385972Y-39463000D01*
X112616748Y-39463000D01*
X112641028Y-39466012D01*
X112641104Y-39465586D01*
X112645457Y-39466358D01*
X113466161Y-39552103D01*
X113518896Y-39554840D01*
X113521332Y-39554839D01*
X113553905Y-39551372D01*
X113555577Y-39551195D01*
X113568697Y-39550499D01*
X114525002Y-39550499D01*
X114525008Y-39550499D01*
X114627797Y-39539999D01*
X114669171Y-39526288D01*
X114692499Y-39521360D01*
X114692481Y-39521252D01*
X114695170Y-39520796D01*
X114696228Y-39520572D01*
X114696846Y-39520513D01*
X115252129Y-39385051D01*
X115379278Y-39354033D01*
X115408666Y-39350500D01*
X116584910Y-39350500D01*
X116613275Y-39353787D01*
X116616242Y-39354485D01*
X117382196Y-39422068D01*
X117397077Y-39424299D01*
X117402726Y-39425500D01*
X117415619Y-39425500D01*
X117426516Y-39425980D01*
X117430016Y-39426288D01*
X117442871Y-39427423D01*
X117464576Y-39428868D01*
X117465576Y-39428913D01*
X117541117Y-39426657D01*
X117541120Y-39426656D01*
X117541560Y-39426643D01*
X117558017Y-39425500D01*
X117597274Y-39425500D01*
X117787571Y-39385051D01*
X117965299Y-39305922D01*
X118122692Y-39191569D01*
X118252870Y-39046992D01*
X118350144Y-38878508D01*
X118410262Y-38693482D01*
X118430598Y-38500000D01*
X118410262Y-38306518D01*
X118350144Y-38121492D01*
X118350143Y-38121491D01*
X118350143Y-38121489D01*
X118350142Y-38121488D01*
X118316202Y-38062703D01*
X118252870Y-37953008D01*
X118201882Y-37896381D01*
X118122697Y-37808435D01*
X118122694Y-37808433D01*
X118122693Y-37808432D01*
X118122692Y-37808431D01*
X118043995Y-37751254D01*
X117965297Y-37694076D01*
X117828848Y-37633326D01*
X117787571Y-37614949D01*
X117787569Y-37614948D01*
X117597274Y-37574500D01*
X117481348Y-37574500D01*
X117474558Y-37574314D01*
X117442872Y-37572576D01*
X117442867Y-37572576D01*
X117426507Y-37574020D01*
X117415609Y-37574500D01*
X117402726Y-37574500D01*
X117397071Y-37575701D01*
X117382204Y-37577928D01*
X116616253Y-37645512D01*
X116602996Y-37647105D01*
X116590444Y-37648614D01*
X116575654Y-37649500D01*
X115432544Y-37649500D01*
X115392098Y-37642718D01*
X114742459Y-37418558D01*
X114742436Y-37418552D01*
X114688359Y-37404748D01*
X114680028Y-37402308D01*
X114662256Y-37396419D01*
X114627798Y-37385001D01*
X114525016Y-37374500D01*
X114525009Y-37374500D01*
X113510028Y-37374500D01*
X113505234Y-37374407D01*
X113466162Y-37372895D01*
X113466160Y-37372895D01*
X112645455Y-37458639D01*
X112628201Y-37460926D01*
X112611914Y-37462000D01*
X111392325Y-37462000D01*
X111374636Y-37460732D01*
X111374581Y-37460724D01*
X110776343Y-37374500D01*
X110668531Y-37358961D01*
X110647220Y-37353936D01*
X110627799Y-37347501D01*
X110525016Y-37337000D01*
X110525009Y-37337000D01*
X109510028Y-37337000D01*
X109505234Y-37336907D01*
X109466162Y-37335395D01*
X109466160Y-37335395D01*
X108645455Y-37421139D01*
X108628201Y-37423426D01*
X108611914Y-37424500D01*
X108490782Y-37424500D01*
X108423743Y-37404815D01*
X108403101Y-37388181D01*
X108291799Y-37276879D01*
X116732790Y-37276879D01*
X117996054Y-37276879D01*
X117996054Y-32918377D01*
X116732790Y-32918377D01*
X116732790Y-37276879D01*
X108291799Y-37276879D01*
X107781479Y-36766559D01*
X107781459Y-36766537D01*
X107637785Y-36622863D01*
X107637781Y-36622860D01*
X107473920Y-36513371D01*
X107473911Y-36513366D01*
X107401315Y-36483296D01*
X107345165Y-36460038D01*
X107291836Y-36437949D01*
X107291832Y-36437948D01*
X107291828Y-36437946D01*
X107195188Y-36418724D01*
X107098544Y-36399500D01*
X107098541Y-36399500D01*
X106399499Y-36399500D01*
X106332460Y-36379815D01*
X106286705Y-36327011D01*
X106276562Y-36280388D01*
X106275900Y-36280423D01*
X106275854Y-36280429D01*
X106275853Y-36280426D01*
X106275676Y-36280436D01*
X106275499Y-36277135D01*
X106275499Y-36277128D01*
X106269091Y-36217517D01*
X106218796Y-36082669D01*
X106218795Y-36082668D01*
X106218793Y-36082664D01*
X106132547Y-35967455D01*
X106132544Y-35967452D01*
X106017335Y-35881206D01*
X106017328Y-35881202D01*
X105882482Y-35830908D01*
X105882483Y-35830908D01*
X105822883Y-35824501D01*
X105822881Y-35824500D01*
X105822873Y-35824500D01*
X105822864Y-35824500D01*
X104777129Y-35824500D01*
X104777123Y-35824501D01*
X104717516Y-35830908D01*
X104582671Y-35881202D01*
X104582664Y-35881206D01*
X104467455Y-35967452D01*
X104467452Y-35967455D01*
X104381206Y-36082664D01*
X104381202Y-36082671D01*
X104330908Y-36217517D01*
X104324501Y-36277116D01*
X104324501Y-36277123D01*
X104324500Y-36277135D01*
X104324500Y-37163563D01*
X104322117Y-37187754D01*
X104299500Y-37301455D01*
X104000500Y-37301455D01*
X104000500Y-33833602D01*
X104013591Y-33778148D01*
X104280642Y-33244045D01*
X104328229Y-33192886D01*
X104391551Y-33175499D01*
X104672871Y-33175499D01*
X104672872Y-33175499D01*
X104732483Y-33169091D01*
X104867331Y-33118796D01*
X104982546Y-33032546D01*
X105020189Y-32982260D01*
X105063995Y-32945666D01*
X105728150Y-32613591D01*
X105783604Y-32600500D01*
X117498543Y-32600500D01*
X117615308Y-32577273D01*
X117673692Y-32565660D01*
X117691836Y-32562051D01*
X117745165Y-32539961D01*
X117873914Y-32486632D01*
X118037782Y-32377139D01*
X118177139Y-32237782D01*
X118177139Y-32237780D01*
X118194579Y-32220341D01*
X118194582Y-32220337D01*
X118277139Y-32137782D01*
X118386631Y-31973915D01*
X118462051Y-31791836D01*
X118500500Y-31598541D01*
X118500500Y-31401460D01*
X118500500Y-31401457D01*
X118500499Y-31401455D01*
X118462052Y-31208172D01*
X118462051Y-31208165D01*
X118386631Y-31026086D01*
X118386630Y-31026085D01*
X118386627Y-31026079D01*
X118277139Y-30862219D01*
X118277136Y-30862215D01*
X118137784Y-30722863D01*
X118137780Y-30722860D01*
X117973920Y-30613372D01*
X117973911Y-30613367D01*
X117791835Y-30537949D01*
X117791827Y-30537947D01*
X117598543Y-30499500D01*
X117598540Y-30499500D01*
X117401459Y-30499500D01*
X117401456Y-30499500D01*
X117208171Y-30537947D01*
X117208163Y-30537949D01*
X117120263Y-30574359D01*
X117091173Y-30586409D01*
X117082356Y-30590061D01*
X117034903Y-30599500D01*
X105783604Y-30599500D01*
X105728150Y-30586409D01*
X105063998Y-30254333D01*
X105020187Y-30217735D01*
X104982547Y-30167455D01*
X104982544Y-30167452D01*
X104867335Y-30081206D01*
X104867328Y-30081202D01*
X104732482Y-30030908D01*
X104732483Y-30030908D01*
X104672883Y-30024501D01*
X104672881Y-30024500D01*
X104672873Y-30024500D01*
X104672864Y-30024500D01*
X101327129Y-30024500D01*
X101327123Y-30024501D01*
X101267516Y-30030908D01*
X101132671Y-30081202D01*
X101132664Y-30081206D01*
X101017455Y-30167452D01*
X101017452Y-30167455D01*
X100931206Y-30282664D01*
X100931202Y-30282671D01*
X100880908Y-30417517D01*
X100874501Y-30477116D01*
X100874500Y-30477135D01*
X100874500Y-32722870D01*
X100874501Y-32722876D01*
X100880908Y-32782483D01*
X100931202Y-32917328D01*
X100931206Y-32917335D01*
X101017452Y-33032544D01*
X101017455Y-33032547D01*
X101132664Y-33118793D01*
X101132671Y-33118797D01*
X101177618Y-33135561D01*
X101267517Y-33169091D01*
X101327127Y-33175500D01*
X101608446Y-33175499D01*
X101675485Y-33195183D01*
X101719355Y-33244044D01*
X101986409Y-33778150D01*
X101999500Y-33833605D01*
X101999500Y-40107677D01*
X101998232Y-40125366D01*
X101998224Y-40125416D01*
X101998224Y-40125419D01*
X101963390Y-40367103D01*
X101896461Y-40831468D01*
X101891437Y-40852777D01*
X101885002Y-40872199D01*
X101885000Y-40872206D01*
X101874500Y-40974983D01*
X101874500Y-41086881D01*
X101859344Y-41146287D01*
X101392643Y-42001375D01*
X101371480Y-42029650D01*
X94167050Y-49234080D01*
X94167044Y-49234088D01*
X94117812Y-49307768D01*
X94117813Y-49307769D01*
X94084921Y-49356996D01*
X94084914Y-49357008D01*
X94028342Y-49493586D01*
X94028340Y-49493592D01*
X93999500Y-49638579D01*
X93999500Y-49638582D01*
X93999500Y-79299204D01*
X93999500Y-79299206D01*
X93999499Y-79299206D01*
X93000500Y-79299206D01*
X93000500Y-28124500D01*
X93020185Y-28057461D01*
X93072989Y-28011706D01*
X93124500Y-28000500D01*
X120875500Y-28000500D01*
X120942539Y-28020185D01*
G37*
%TD.AperFunction*%
%TD*%
%TA.AperFunction,Conductor*%
%TO.N,GND*%
G36*
X115001000Y-64500000D02*
G01*
X114770390Y-65054328D01*
X113800000Y-64750000D01*
X113800000Y-64250000D01*
X114770390Y-63945672D01*
X115001000Y-64500000D01*
G37*
%TD.AperFunction*%
%TD*%
%TA.AperFunction,Conductor*%
%TO.N,VBAT*%
G36*
X119748752Y-81153427D02*
G01*
X119751935Y-81159323D01*
X119890685Y-81827899D01*
X119889011Y-81836695D01*
X119883730Y-81841076D01*
X119504501Y-81999124D01*
X119495546Y-81999143D01*
X119495499Y-81999124D01*
X119116269Y-81841076D01*
X119109951Y-81834730D01*
X119109314Y-81827899D01*
X119248065Y-81159323D01*
X119253102Y-81151918D01*
X119259521Y-81150000D01*
X119740479Y-81150000D01*
X119748752Y-81153427D01*
G37*
%TD.AperFunction*%
%TD*%
%TA.AperFunction,Conductor*%
%TO.N,VBAT*%
G36*
X119852986Y-61396110D02*
G01*
X119883730Y-61408923D01*
X119890048Y-61415269D01*
X119890685Y-61422100D01*
X119751935Y-62090677D01*
X119746898Y-62098082D01*
X119740479Y-62100000D01*
X119259521Y-62100000D01*
X119251248Y-62096573D01*
X119248065Y-62090677D01*
X119109314Y-61422100D01*
X119110988Y-61413304D01*
X119116268Y-61408923D01*
X119495501Y-61250874D01*
X119504453Y-61250856D01*
X119852986Y-61396110D01*
G37*
%TD.AperFunction*%
%TD*%
%TA.AperFunction,Conductor*%
%TO.N,3V3*%
G36*
X102384701Y-41260651D02*
G01*
X102957045Y-41496751D01*
X102963386Y-41503074D01*
X102964162Y-41505889D01*
X103067115Y-42216474D01*
X103064910Y-42225153D01*
X103060577Y-42228710D01*
X102162482Y-42657472D01*
X102153539Y-42657944D01*
X102149168Y-42655187D01*
X101807655Y-42313674D01*
X101804228Y-42305401D01*
X101805656Y-42299801D01*
X102369972Y-41265862D01*
X102376943Y-41260243D01*
X102384701Y-41260651D01*
G37*
%TD.AperFunction*%
%TD*%
%TA.AperFunction,Conductor*%
%TO.N,3V3*%
G36*
X96162478Y-80280312D02*
G01*
X96779930Y-80575091D01*
X97060576Y-80709075D01*
X97066565Y-80715731D01*
X97067114Y-80721311D01*
X96964162Y-81431896D01*
X96959584Y-81439592D01*
X96957045Y-81441034D01*
X96384703Y-81677133D01*
X96375748Y-81677120D01*
X96369971Y-81671922D01*
X95851135Y-80721311D01*
X95805657Y-80637986D01*
X95804703Y-80629086D01*
X95807653Y-80624113D01*
X96149169Y-80282597D01*
X96157441Y-80279171D01*
X96162478Y-80280312D01*
G37*
%TD.AperFunction*%
%TD*%
%TA.AperFunction,Conductor*%
%TO.N,Net-(R20-Pad2)*%
G36*
X108911471Y-60619021D02*
G01*
X109455842Y-61191941D01*
X109459056Y-61200299D01*
X109455842Y-61208059D01*
X108911471Y-61780978D01*
X108903288Y-61784615D01*
X108897380Y-61783187D01*
X108293591Y-61453327D01*
X108287973Y-61446353D01*
X108287500Y-61443059D01*
X108287500Y-60956940D01*
X108290927Y-60948667D01*
X108293589Y-60946673D01*
X108897382Y-60616811D01*
X108906283Y-60615853D01*
X108911471Y-60619021D01*
G37*
%TD.AperFunction*%
%TD*%
%TA.AperFunction,Conductor*%
%TO.N,Net-(R20-Pad2)*%
G36*
X103324542Y-60565127D02*
G01*
X103327485Y-60570069D01*
X103376561Y-60735329D01*
X103376013Y-60743465D01*
X103210668Y-61110518D01*
X103204145Y-61116654D01*
X103195195Y-61116381D01*
X103189332Y-61110518D01*
X103023986Y-60743465D01*
X103023438Y-60735330D01*
X103072515Y-60570069D01*
X103078155Y-60563114D01*
X103083731Y-60561700D01*
X103316269Y-60561700D01*
X103324542Y-60565127D01*
G37*
%TD.AperFunction*%
%TD*%
%TA.AperFunction,Conductor*%
%TO.N,Net-(R20-Pad2)*%
G36*
X103324542Y-62698727D02*
G01*
X103327485Y-62703669D01*
X103376561Y-62868929D01*
X103376013Y-62877065D01*
X103210668Y-63244118D01*
X103204145Y-63250254D01*
X103195195Y-63249981D01*
X103189332Y-63244118D01*
X103023986Y-62877065D01*
X103023438Y-62868930D01*
X103072515Y-62703669D01*
X103078155Y-62696714D01*
X103083731Y-62695300D01*
X103316269Y-62695300D01*
X103324542Y-62698727D01*
G37*
%TD.AperFunction*%
%TD*%
%TA.AperFunction,Conductor*%
%TO.N,VBAT*%
G36*
X119748752Y-60403427D02*
G01*
X119751935Y-60409323D01*
X119890685Y-61077899D01*
X119889011Y-61086695D01*
X119883730Y-61091076D01*
X119504501Y-61249124D01*
X119495546Y-61249143D01*
X119495499Y-61249124D01*
X119116269Y-61091076D01*
X119109951Y-61084730D01*
X119109314Y-61077899D01*
X119248065Y-60409323D01*
X119253102Y-60401918D01*
X119259521Y-60400000D01*
X119740479Y-60400000D01*
X119748752Y-60403427D01*
G37*
%TD.AperFunction*%
%TD*%
%TA.AperFunction,Conductor*%
%TO.N,VBAT*%
G36*
X117117881Y-51841695D02*
G01*
X117495499Y-51997147D01*
X117501845Y-52003465D01*
X117501858Y-52003498D01*
X117658809Y-52383378D01*
X117658801Y-52392333D01*
X117654063Y-52397850D01*
X117381109Y-52563381D01*
X117277116Y-52626449D01*
X117252797Y-52641197D01*
X117246730Y-52642893D01*
X116767990Y-52642893D01*
X116759717Y-52639466D01*
X116756290Y-52631193D01*
X116757295Y-52626449D01*
X116861013Y-52392649D01*
X117102733Y-51847768D01*
X117109219Y-51841597D01*
X117117881Y-51841695D01*
G37*
%TD.AperFunction*%
%TD*%
%TA.AperFunction,Conductor*%
%TO.N,VBAT*%
G36*
X117252796Y-51358802D02*
G01*
X117654063Y-51602149D01*
X117659360Y-51609369D01*
X117658809Y-51616621D01*
X117501858Y-51996501D01*
X117495532Y-52002838D01*
X117495499Y-52002852D01*
X117117881Y-52158304D01*
X117108926Y-52158285D01*
X117102732Y-52152229D01*
X117036465Y-52002852D01*
X116757295Y-51373551D01*
X116757073Y-51364599D01*
X116763246Y-51358112D01*
X116767990Y-51357107D01*
X117246730Y-51357107D01*
X117252796Y-51358802D01*
G37*
%TD.AperFunction*%
%TD*%
%TA.AperFunction,Conductor*%
%TO.N,VBAT*%
G36*
X117117881Y-45341695D02*
G01*
X117495499Y-45497147D01*
X117501845Y-45503465D01*
X117501858Y-45503498D01*
X117658809Y-45883378D01*
X117658801Y-45892333D01*
X117654063Y-45897850D01*
X117381109Y-46063381D01*
X117277116Y-46126449D01*
X117252797Y-46141197D01*
X117246730Y-46142893D01*
X116767990Y-46142893D01*
X116759717Y-46139466D01*
X116756290Y-46131193D01*
X116757295Y-46126449D01*
X116861013Y-45892649D01*
X117102733Y-45347768D01*
X117109219Y-45341597D01*
X117117881Y-45341695D01*
G37*
%TD.AperFunction*%
%TD*%
%TA.AperFunction,Conductor*%
%TO.N,gate_driver_1_base*%
G36*
X112102616Y-81416811D02*
G01*
X112706409Y-81746672D01*
X112712027Y-81753646D01*
X112712500Y-81756940D01*
X112712500Y-82243059D01*
X112709073Y-82251332D01*
X112706409Y-82253327D01*
X112102619Y-82583187D01*
X112093716Y-82584146D01*
X112088528Y-82580978D01*
X111775308Y-82251332D01*
X111544156Y-82008058D01*
X111540943Y-81999701D01*
X111544157Y-81991941D01*
X111770578Y-81753646D01*
X112088529Y-81419020D01*
X112096711Y-81415384D01*
X112102616Y-81416811D01*
G37*
%TD.AperFunction*%
%TD*%
%TA.AperFunction,Conductor*%
%TO.N,gate_driver_1_base*%
G36*
X116076751Y-81577984D02*
G01*
X116080514Y-81580501D01*
X116492697Y-81991717D01*
X116496134Y-81999986D01*
X116492717Y-82008263D01*
X116492697Y-82008283D01*
X116080514Y-82419498D01*
X116072237Y-82422915D01*
X116067797Y-82422034D01*
X115821465Y-82320603D01*
X115657245Y-82252983D01*
X115650900Y-82246664D01*
X115650000Y-82242164D01*
X115650000Y-81757835D01*
X115653427Y-81749562D01*
X115657242Y-81747017D01*
X116067799Y-81577965D01*
X116076751Y-81577984D01*
G37*
%TD.AperFunction*%
%TD*%
%TA.AperFunction,Conductor*%
%TO.N,/LSD/driver_1_gate*%
G36*
X102664511Y-87453427D02*
G01*
X102665973Y-87455210D01*
X102857188Y-87742032D01*
X102858926Y-87750817D01*
X102855740Y-87756781D01*
X102570787Y-88042685D01*
X102562519Y-88046126D01*
X102554241Y-88042713D01*
X102554213Y-88042685D01*
X102269259Y-87756781D01*
X102265846Y-87748503D01*
X102267810Y-87742034D01*
X102459027Y-87455210D01*
X102466467Y-87450227D01*
X102468762Y-87450000D01*
X102656238Y-87450000D01*
X102664511Y-87453427D01*
G37*
%TD.AperFunction*%
%TD*%
%TA.AperFunction,Conductor*%
%TO.N,/LSD/driver_1_gate*%
G36*
X102842016Y-83564680D02*
G01*
X102849630Y-83569388D01*
X102851754Y-83574837D01*
X102897296Y-83955499D01*
X102894876Y-83964121D01*
X102894674Y-83964371D01*
X102742688Y-84147075D01*
X102734762Y-84151244D01*
X102726211Y-84148588D01*
X102725420Y-84147866D01*
X102597317Y-84019763D01*
X102593890Y-84011490D01*
X102594047Y-84009581D01*
X102670297Y-83548590D01*
X102675028Y-83540987D01*
X102683715Y-83538951D01*
X102842016Y-83564680D01*
G37*
%TD.AperFunction*%
%TD*%
%TA.AperFunction,Conductor*%
%TO.N,5V*%
G36*
X114577560Y-37896407D02*
G01*
X115304617Y-38147279D01*
X115311319Y-38153217D01*
X115312500Y-38158339D01*
X115312500Y-38840810D01*
X115309073Y-38849083D01*
X115303573Y-38852177D01*
X114577042Y-39029415D01*
X114568192Y-39028046D01*
X114566019Y-39026344D01*
X114379440Y-38840810D01*
X114007341Y-38470794D01*
X114003892Y-38462533D01*
X114007296Y-38454250D01*
X114565500Y-37899171D01*
X114573782Y-37895768D01*
X114577560Y-37896407D01*
G37*
%TD.AperFunction*%
%TD*%
%TA.AperFunction,Conductor*%
%TO.N,5V*%
G36*
X117495843Y-38078807D02*
G01*
X117499984Y-38086747D01*
X117500029Y-38087747D01*
X117501000Y-38500000D01*
X117501000Y-38500056D01*
X117500029Y-38912252D01*
X117496583Y-38920517D01*
X117488301Y-38923924D01*
X117487301Y-38923879D01*
X116660672Y-38850941D01*
X116652732Y-38846800D01*
X116650000Y-38839286D01*
X116650000Y-38160713D01*
X116653427Y-38152440D01*
X116660671Y-38149058D01*
X117487302Y-38076120D01*
X117495843Y-38078807D01*
G37*
%TD.AperFunction*%
%TD*%
%TA.AperFunction,Conductor*%
%TO.N,3V3*%
G36*
X104630818Y-30602909D02*
G01*
X105618532Y-31096766D01*
X105624400Y-31103531D01*
X105625000Y-31107231D01*
X105625000Y-32092769D01*
X105621573Y-32101042D01*
X105618532Y-32103234D01*
X104630818Y-32597090D01*
X104621886Y-32597725D01*
X104619457Y-32596591D01*
X103800242Y-32092769D01*
X103015203Y-31609965D01*
X103009952Y-31602713D01*
X103011367Y-31593871D01*
X103015202Y-31590035D01*
X104619459Y-30603407D01*
X104628299Y-30601993D01*
X104630818Y-30602909D01*
G37*
%TD.AperFunction*%
%TD*%
%TA.AperFunction,Conductor*%
%TO.N,gate_driver_2_base*%
G36*
X112115129Y-60640919D02*
G01*
X112370764Y-60794581D01*
X112706828Y-60996590D01*
X112712153Y-61003790D01*
X112712500Y-61006618D01*
X112712500Y-61492710D01*
X112709073Y-61500983D01*
X112705957Y-61503212D01*
X112086953Y-61807168D01*
X112078016Y-61807739D01*
X112073046Y-61804433D01*
X111803678Y-61500983D01*
X111543863Y-61208295D01*
X111540935Y-61199834D01*
X111544392Y-61192205D01*
X112100881Y-60642621D01*
X112109174Y-60639247D01*
X112115129Y-60640919D01*
G37*
%TD.AperFunction*%
%TD*%
%TA.AperFunction,Conductor*%
%TO.N,gate_driver_2_base*%
G36*
X116076751Y-60827984D02*
G01*
X116080514Y-60830501D01*
X116492697Y-61241717D01*
X116496134Y-61249986D01*
X116492717Y-61258263D01*
X116492697Y-61258283D01*
X116080514Y-61669498D01*
X116072237Y-61672915D01*
X116067797Y-61672034D01*
X115821465Y-61570603D01*
X115657245Y-61502983D01*
X115650900Y-61496664D01*
X115650000Y-61492164D01*
X115650000Y-61007835D01*
X115653427Y-60999562D01*
X115657242Y-60997017D01*
X116067799Y-60827965D01*
X116076751Y-60827984D01*
G37*
%TD.AperFunction*%
%TD*%
%TA.AperFunction,Conductor*%
%TO.N,GND*%
G36*
X115251000Y-85500000D02*
G01*
X115020390Y-86054328D01*
X114050000Y-85750000D01*
X114050000Y-85250000D01*
X115020390Y-84945672D01*
X115251000Y-85500000D01*
G37*
%TD.AperFunction*%
%TD*%
%TA.AperFunction,Conductor*%
%TO.N,lsd_in_1*%
G36*
X105115955Y-89258627D02*
G01*
X105122461Y-89264779D01*
X105123470Y-89269039D01*
X105126180Y-89330207D01*
X105123122Y-89338624D01*
X105122764Y-89338998D01*
X104780467Y-89681295D01*
X104772194Y-89684722D01*
X104764637Y-89681954D01*
X104358883Y-89338624D01*
X104319737Y-89305500D01*
X104315635Y-89297540D01*
X104316473Y-89292121D01*
X104432457Y-89009844D01*
X104438770Y-89003496D01*
X104447452Y-89003363D01*
X105115955Y-89258627D01*
G37*
%TD.AperFunction*%
%TD*%
%TA.AperFunction,Conductor*%
%TO.N,lsd_in_1*%
G36*
X118352986Y-82146110D02*
G01*
X118383730Y-82158923D01*
X118390048Y-82165269D01*
X118390685Y-82172100D01*
X118251935Y-82840677D01*
X118246898Y-82848082D01*
X118240479Y-82850000D01*
X117759521Y-82850000D01*
X117751248Y-82846573D01*
X117748065Y-82840677D01*
X117609314Y-82172100D01*
X117610988Y-82163304D01*
X117616268Y-82158923D01*
X117995501Y-82000874D01*
X118004453Y-82000856D01*
X118352986Y-82146110D01*
G37*
%TD.AperFunction*%
%TD*%
%TA.AperFunction,Conductor*%
%TO.N,lsd_in_1*%
G36*
X105464593Y-88748843D02*
G01*
X105472436Y-88753162D01*
X105475000Y-88760471D01*
X105475000Y-89239528D01*
X105471573Y-89247801D01*
X105464592Y-89251156D01*
X105028484Y-89299612D01*
X105021878Y-89298408D01*
X104456948Y-89010424D01*
X104451134Y-89003613D01*
X104451838Y-88994686D01*
X104456948Y-88989576D01*
X105021879Y-88701590D01*
X105028483Y-88700387D01*
X105464593Y-88748843D01*
G37*
%TD.AperFunction*%
%TD*%
%TA.AperFunction,Conductor*%
%TO.N,lsd_in_1*%
G36*
X106147224Y-93669927D02*
G01*
X106149491Y-93673120D01*
X106376240Y-94143582D01*
X106376745Y-94152523D01*
X106375880Y-94154429D01*
X105906480Y-94983029D01*
X105899420Y-94988538D01*
X105890533Y-94987442D01*
X105886120Y-94983029D01*
X105416719Y-94154429D01*
X105415623Y-94145542D01*
X105416357Y-94143586D01*
X105643109Y-93673119D01*
X105649788Y-93667155D01*
X105653649Y-93666500D01*
X106138951Y-93666500D01*
X106147224Y-93669927D01*
G37*
%TD.AperFunction*%
%TD*%
%TA.AperFunction,Conductor*%
%TO.N,lsd_in_2*%
G36*
X118352986Y-61396110D02*
G01*
X118383730Y-61408923D01*
X118390048Y-61415269D01*
X118390685Y-61422100D01*
X118251935Y-62090677D01*
X118246898Y-62098082D01*
X118240479Y-62100000D01*
X117759521Y-62100000D01*
X117751248Y-62096573D01*
X117748065Y-62090677D01*
X117609314Y-61422100D01*
X117610988Y-61413304D01*
X117616268Y-61408923D01*
X117995501Y-61250874D01*
X118004453Y-61250856D01*
X118352986Y-61396110D01*
G37*
%TD.AperFunction*%
%TD*%
%TA.AperFunction,Conductor*%
%TO.N,lsd_in_2*%
G36*
X105115955Y-69258627D02*
G01*
X105122461Y-69264779D01*
X105123470Y-69269039D01*
X105126180Y-69330207D01*
X105123122Y-69338624D01*
X105122764Y-69338998D01*
X104780467Y-69681295D01*
X104772194Y-69684722D01*
X104764637Y-69681954D01*
X104358883Y-69338624D01*
X104319737Y-69305500D01*
X104315635Y-69297540D01*
X104316473Y-69292121D01*
X104432457Y-69009844D01*
X104438770Y-69003496D01*
X104447452Y-69003363D01*
X105115955Y-69258627D01*
G37*
%TD.AperFunction*%
%TD*%
%TA.AperFunction,Conductor*%
%TO.N,lsd_in_2*%
G36*
X106147224Y-73669927D02*
G01*
X106149491Y-73673120D01*
X106376240Y-74143582D01*
X106376745Y-74152523D01*
X106375880Y-74154429D01*
X105906480Y-74983029D01*
X105899420Y-74988538D01*
X105890533Y-74987442D01*
X105886120Y-74983029D01*
X105416719Y-74154429D01*
X105415623Y-74145542D01*
X105416357Y-74143586D01*
X105643109Y-73673119D01*
X105649788Y-73667155D01*
X105653649Y-73666500D01*
X106138951Y-73666500D01*
X106147224Y-73669927D01*
G37*
%TD.AperFunction*%
%TD*%
%TA.AperFunction,Conductor*%
%TO.N,lsd_in_2*%
G36*
X105464593Y-68748843D02*
G01*
X105472436Y-68753162D01*
X105475000Y-68760471D01*
X105475000Y-69239528D01*
X105471573Y-69247801D01*
X105464592Y-69251156D01*
X105028484Y-69299612D01*
X105021878Y-69298408D01*
X104456948Y-69010424D01*
X104451134Y-69003613D01*
X104451838Y-68994686D01*
X104456948Y-68989576D01*
X105021879Y-68701590D01*
X105028483Y-68700387D01*
X105464593Y-68748843D01*
G37*
%TD.AperFunction*%
%TD*%
%TA.AperFunction,Conductor*%
%TO.N,/LSD/driver_1_gate*%
G36*
X98633945Y-87478219D02*
G01*
X99269990Y-87921508D01*
X99274818Y-87929050D01*
X99275000Y-87931107D01*
X99275000Y-88167691D01*
X99271573Y-88175964D01*
X99268432Y-88178205D01*
X98553240Y-88527275D01*
X98544302Y-88527825D01*
X98539765Y-88524964D01*
X98008091Y-87984245D01*
X98004734Y-87975943D01*
X98008231Y-87967699D01*
X98009117Y-87966912D01*
X98619951Y-87478678D01*
X98628552Y-87476190D01*
X98633945Y-87478219D01*
G37*
%TD.AperFunction*%
%TD*%
%TA.AperFunction,Conductor*%
%TO.N,/LSD/driver_1_gate*%
G36*
X101922208Y-87763478D02*
G01*
X102539591Y-88039318D01*
X102545746Y-88045821D01*
X102545500Y-88054773D01*
X102539591Y-88060682D01*
X101922208Y-88336521D01*
X101913256Y-88336767D01*
X101912935Y-88336639D01*
X101532200Y-88177999D01*
X101525881Y-88171654D01*
X101525000Y-88167199D01*
X101525000Y-87932800D01*
X101528427Y-87924527D01*
X101532200Y-87922000D01*
X101912936Y-87763359D01*
X101921890Y-87763341D01*
X101922208Y-87763478D01*
G37*
%TD.AperFunction*%
%TD*%
%TA.AperFunction,Conductor*%
%TO.N,/LSD/driver_1_gate*%
G36*
X104154804Y-81450019D02*
G01*
X104160667Y-81455882D01*
X104325665Y-81822164D01*
X104325938Y-81831114D01*
X104325716Y-81831659D01*
X104253066Y-81997690D01*
X104246610Y-82003896D01*
X104242347Y-82004700D01*
X104057651Y-82004700D01*
X104049378Y-82001273D01*
X104046932Y-81997690D01*
X103974281Y-81831659D01*
X103974104Y-81822706D01*
X103974332Y-81822164D01*
X104139331Y-81455882D01*
X104145854Y-81449746D01*
X104154804Y-81450019D01*
G37*
%TD.AperFunction*%
%TD*%
%TA.AperFunction,Conductor*%
%TO.N,/LSD/driver_1_gate*%
G36*
X102950622Y-82998727D02*
G01*
X102953068Y-83002310D01*
X103025718Y-83168340D01*
X103025895Y-83177293D01*
X103025667Y-83177835D01*
X102860669Y-83544118D01*
X102854146Y-83550254D01*
X102845196Y-83549981D01*
X102839333Y-83544118D01*
X102674334Y-83177835D01*
X102674061Y-83168885D01*
X102674271Y-83168367D01*
X102746934Y-83002310D01*
X102753390Y-82996104D01*
X102757653Y-82995300D01*
X102942349Y-82995300D01*
X102950622Y-82998727D01*
G37*
%TD.AperFunction*%
%TD*%
%TA.AperFunction,Conductor*%
%TO.N,/LSD/driver_2_gate*%
G36*
X102674543Y-62698727D02*
G01*
X102677486Y-62703669D01*
X102726562Y-62868929D01*
X102726014Y-62877065D01*
X102560669Y-63244118D01*
X102554146Y-63250254D01*
X102545196Y-63249981D01*
X102539333Y-63244118D01*
X102373987Y-62877065D01*
X102373439Y-62868930D01*
X102422516Y-62703669D01*
X102428156Y-62696714D01*
X102433732Y-62695300D01*
X102666270Y-62695300D01*
X102674543Y-62698727D01*
G37*
%TD.AperFunction*%
%TD*%
%TA.AperFunction,Conductor*%
%TO.N,/LSD/driver_2_gate*%
G36*
X102676674Y-67453427D02*
G01*
X102678414Y-67455648D01*
X102851587Y-67742194D01*
X102851623Y-67742252D01*
X102852970Y-67751105D01*
X102849983Y-67756476D01*
X102570699Y-68042599D01*
X102562468Y-68046126D01*
X102554155Y-68042800D01*
X102262562Y-67756276D01*
X102259063Y-67748035D01*
X102260566Y-67742196D01*
X102421646Y-67455962D01*
X102428690Y-67450433D01*
X102431842Y-67450000D01*
X102668401Y-67450000D01*
X102676674Y-67453427D01*
G37*
%TD.AperFunction*%
%TD*%
%TA.AperFunction,Conductor*%
%TO.N,/LSD/driver_2_gate*%
G36*
X102554806Y-63283619D02*
G01*
X102560669Y-63289482D01*
X102726014Y-63656534D01*
X102726562Y-63664670D01*
X102677486Y-63829931D01*
X102671846Y-63836886D01*
X102666270Y-63838300D01*
X102433732Y-63838300D01*
X102425459Y-63834873D01*
X102422516Y-63829931D01*
X102373439Y-63664670D01*
X102373986Y-63656535D01*
X102539333Y-63289482D01*
X102545856Y-63283346D01*
X102554806Y-63283619D01*
G37*
%TD.AperFunction*%
%TD*%
%TA.AperFunction,Conductor*%
%TO.N,/LSD/driver_2_gate*%
G36*
X98553548Y-67423684D02*
G01*
X99269252Y-67846603D01*
X99274631Y-67853762D01*
X99275000Y-67856676D01*
X99275000Y-68093323D01*
X99271573Y-68101596D01*
X99269252Y-68103396D01*
X98553549Y-68526314D01*
X98544683Y-68527572D01*
X98539254Y-68524444D01*
X98125248Y-68103396D01*
X98007064Y-67983201D01*
X98003708Y-67974901D01*
X98007064Y-67966798D01*
X98539255Y-67425554D01*
X98547498Y-67422058D01*
X98553548Y-67423684D01*
G37*
%TD.AperFunction*%
%TD*%
%TA.AperFunction,Conductor*%
%TO.N,/LSD/driver_2_gate*%
G36*
X101921149Y-67763005D02*
G01*
X102536923Y-68038126D01*
X102543078Y-68044629D01*
X102542832Y-68053581D01*
X102536329Y-68059736D01*
X102536098Y-68059822D01*
X101870271Y-68298493D01*
X101861327Y-68298059D01*
X101860385Y-68297560D01*
X101530762Y-68103394D01*
X101525373Y-68096242D01*
X101525000Y-68093313D01*
X101525000Y-67859354D01*
X101528427Y-67851081D01*
X101534124Y-67847941D01*
X101913802Y-67762274D01*
X101921149Y-67763005D01*
G37*
%TD.AperFunction*%
%TD*%
%TA.AperFunction,Conductor*%
%TO.N,/LSD/driver_2_gate*%
G36*
X103854804Y-61150019D02*
G01*
X103860667Y-61155882D01*
X104026012Y-61522934D01*
X104026560Y-61531070D01*
X103977484Y-61696331D01*
X103971844Y-61703286D01*
X103966268Y-61704700D01*
X103733730Y-61704700D01*
X103725457Y-61701273D01*
X103722514Y-61696331D01*
X103673437Y-61531070D01*
X103673984Y-61522935D01*
X103839331Y-61155882D01*
X103845854Y-61149746D01*
X103854804Y-61150019D01*
G37*
%TD.AperFunction*%
%TD*%
%TA.AperFunction,Conductor*%
%TO.N,Net-(R19-Pad2)*%
G36*
X103600621Y-82998727D02*
G01*
X103603067Y-83002310D01*
X103675717Y-83168340D01*
X103675894Y-83177293D01*
X103675666Y-83177835D01*
X103510668Y-83544118D01*
X103504145Y-83550254D01*
X103495195Y-83549981D01*
X103489332Y-83544118D01*
X103324333Y-83177835D01*
X103324060Y-83168885D01*
X103324270Y-83168367D01*
X103396933Y-83002310D01*
X103403389Y-82996104D01*
X103407652Y-82995300D01*
X103592348Y-82995300D01*
X103600621Y-82998727D01*
G37*
%TD.AperFunction*%
%TD*%
%TA.AperFunction,Conductor*%
%TO.N,Net-(R19-Pad2)*%
G36*
X109015150Y-81307303D02*
G01*
X109019149Y-81311103D01*
X109457801Y-81991165D01*
X109459406Y-81999975D01*
X109455323Y-82006607D01*
X108882466Y-82469596D01*
X108873878Y-82472131D01*
X108867752Y-82469591D01*
X108291840Y-82003512D01*
X108287564Y-81995643D01*
X108287500Y-81994417D01*
X108287500Y-81508962D01*
X108290927Y-81500689D01*
X108296151Y-81497666D01*
X109006271Y-81306149D01*
X109015150Y-81307303D01*
G37*
%TD.AperFunction*%
%TD*%
%TA.AperFunction,Conductor*%
%TO.N,Net-(R19-Pad2)*%
G36*
X103600621Y-80865127D02*
G01*
X103603067Y-80868710D01*
X103675717Y-81034740D01*
X103675894Y-81043693D01*
X103675666Y-81044235D01*
X103510668Y-81410518D01*
X103504145Y-81416654D01*
X103495195Y-81416381D01*
X103489332Y-81410518D01*
X103324333Y-81044235D01*
X103324060Y-81035285D01*
X103324270Y-81034767D01*
X103396933Y-80868710D01*
X103403389Y-80862504D01*
X103407652Y-80861700D01*
X103592348Y-80861700D01*
X103600621Y-80865127D01*
G37*
%TD.AperFunction*%
%TD*%
%TA.AperFunction,Conductor*%
%TO.N,Net-(R19-Pad3)*%
G36*
X108911471Y-84919021D02*
G01*
X109455842Y-85491941D01*
X109459056Y-85500299D01*
X109455842Y-85508059D01*
X108911471Y-86080978D01*
X108903288Y-86084615D01*
X108897380Y-86083187D01*
X108293591Y-85753327D01*
X108287973Y-85746353D01*
X108287500Y-85743059D01*
X108287500Y-85256940D01*
X108290927Y-85248667D01*
X108293589Y-85246673D01*
X108897382Y-84916811D01*
X108906283Y-84915853D01*
X108911471Y-84919021D01*
G37*
%TD.AperFunction*%
%TD*%
%TA.AperFunction,Conductor*%
%TO.N,Net-(R17-Pad1)*%
G36*
X102674444Y-81260577D02*
G01*
X102677187Y-81262579D01*
X102842604Y-81424958D01*
X102846107Y-81433199D01*
X102842757Y-81441503D01*
X102842711Y-81441550D01*
X102677062Y-81608415D01*
X102668802Y-81611872D01*
X102665561Y-81611426D01*
X102502903Y-81565202D01*
X102495881Y-81559645D01*
X102494401Y-81553948D01*
X102494401Y-81321409D01*
X102497828Y-81313136D01*
X102502636Y-81310233D01*
X102665530Y-81259752D01*
X102674444Y-81260577D01*
G37*
%TD.AperFunction*%
%TD*%
%TA.AperFunction,Conductor*%
%TO.N,Net-(R17-Pad1)*%
G36*
X99603051Y-80856519D02*
G01*
X100207812Y-81309276D01*
X100212381Y-81316977D01*
X100212500Y-81318642D01*
X100212500Y-81556929D01*
X100209073Y-81565202D01*
X100207812Y-81566295D01*
X99603053Y-82019051D01*
X99594376Y-82021266D01*
X99587559Y-82017744D01*
X99044157Y-81445845D01*
X99040943Y-81437487D01*
X99044157Y-81429727D01*
X99158606Y-81309276D01*
X99587560Y-80857826D01*
X99595742Y-80854190D01*
X99603051Y-80856519D01*
G37*
%TD.AperFunction*%
%TD*%
%TA.AperFunction,Conductor*%
%TO.N,Net-(R18-Pad1)*%
G36*
X99602616Y-60505863D02*
G01*
X100206409Y-60835724D01*
X100212027Y-60842698D01*
X100212500Y-60845992D01*
X100212500Y-61332111D01*
X100209073Y-61340384D01*
X100206409Y-61342379D01*
X99602619Y-61672239D01*
X99593716Y-61673198D01*
X99588528Y-61670030D01*
X99275308Y-61340384D01*
X99044156Y-61097110D01*
X99040943Y-61088753D01*
X99044157Y-61080993D01*
X99270578Y-60842698D01*
X99588529Y-60508072D01*
X99596711Y-60504436D01*
X99602616Y-60505863D01*
G37*
%TD.AperFunction*%
%TD*%
%TA.AperFunction,Conductor*%
%TO.N,Net-(R20-Pad3)*%
G36*
X108911471Y-63919021D02*
G01*
X109455842Y-64491941D01*
X109459056Y-64500299D01*
X109455842Y-64508059D01*
X108911471Y-65080978D01*
X108903288Y-65084615D01*
X108897380Y-65083187D01*
X108293591Y-64753327D01*
X108287973Y-64746353D01*
X108287500Y-64743059D01*
X108287500Y-64256940D01*
X108290927Y-64248667D01*
X108293589Y-64246673D01*
X108897382Y-63916811D01*
X108906283Y-63915853D01*
X108911471Y-63919021D01*
G37*
%TD.AperFunction*%
%TD*%
%TA.AperFunction,Conductor*%
%TO.N,3V3*%
G36*
X103007965Y-31607616D02*
G01*
X103008570Y-31608221D01*
X103994477Y-32669057D01*
X103997599Y-32677450D01*
X103996372Y-32682254D01*
X103503234Y-33668532D01*
X103496469Y-33674400D01*
X103492769Y-33675000D01*
X102507231Y-33675000D01*
X102498958Y-33671573D01*
X102496766Y-33668532D01*
X102003627Y-32682254D01*
X102002992Y-32673322D01*
X102005519Y-32669060D01*
X102991430Y-31608220D01*
X102999572Y-31604494D01*
X103007965Y-31607616D01*
G37*
%TD.AperFunction*%
%TD*%
%TA.AperFunction,Conductor*%
%TO.N,3V3*%
G36*
X97213063Y-59779979D02*
G01*
X97215541Y-59783636D01*
X97527852Y-60511118D01*
X97527967Y-60520073D01*
X97525397Y-60523984D01*
X96970796Y-61081709D01*
X96962533Y-61085159D01*
X96954250Y-61081755D01*
X96954204Y-61081709D01*
X96399602Y-60523984D01*
X96396198Y-60515701D01*
X96397146Y-60511122D01*
X96709459Y-59783636D01*
X96715871Y-59777386D01*
X96720210Y-59776552D01*
X97204790Y-59776552D01*
X97213063Y-59779979D01*
G37*
%TD.AperFunction*%
%TD*%
%TA.AperFunction,Conductor*%
%TO.N,3V3*%
G36*
X103497251Y-40190927D02*
G01*
X103500657Y-40198503D01*
X103549641Y-41018997D01*
X103546713Y-41027459D01*
X103545327Y-41028785D01*
X102970559Y-41494470D01*
X102961974Y-41497015D01*
X102955051Y-41493780D01*
X102394876Y-40950794D01*
X102391320Y-40942575D01*
X102391439Y-40940724D01*
X102498554Y-40197531D01*
X102503126Y-40189831D01*
X102510134Y-40187500D01*
X103488978Y-40187500D01*
X103497251Y-40190927D01*
G37*
%TD.AperFunction*%
%TD*%
%TA.AperFunction,Conductor*%
%TO.N,5V*%
G36*
X109527273Y-37840708D02*
G01*
X109528995Y-37842431D01*
X109995032Y-38417635D01*
X109997577Y-38426220D01*
X109995032Y-38432365D01*
X109528995Y-39007568D01*
X109521124Y-39011839D01*
X109518688Y-39011840D01*
X108697984Y-38926095D01*
X108690112Y-38921827D01*
X108687500Y-38914458D01*
X108687500Y-37935541D01*
X108690927Y-37927268D01*
X108697982Y-37923904D01*
X109518689Y-37838159D01*
X109527273Y-37840708D01*
G37*
%TD.AperFunction*%
%TD*%
%TA.AperFunction,Conductor*%
%TO.N,5V*%
G36*
X113527273Y-37878208D02*
G01*
X113528995Y-37879931D01*
X113995032Y-38455135D01*
X113997577Y-38463720D01*
X113995032Y-38469865D01*
X113528995Y-39045068D01*
X113521124Y-39049339D01*
X113518688Y-39049340D01*
X112697984Y-38963595D01*
X112690112Y-38959327D01*
X112687500Y-38951958D01*
X112687500Y-37973041D01*
X112690927Y-37964768D01*
X112697982Y-37961404D01*
X113518689Y-37875659D01*
X113527273Y-37878208D01*
G37*
%TD.AperFunction*%
%TD*%
%TA.AperFunction,Conductor*%
%TO.N,5V*%
G36*
X110559272Y-37853938D02*
G01*
X111302469Y-37961054D01*
X111310169Y-37965626D01*
X111312500Y-37972634D01*
X111312500Y-38951477D01*
X111309073Y-38959750D01*
X111301497Y-38963156D01*
X110481002Y-39012141D01*
X110472540Y-39009213D01*
X110471214Y-39007827D01*
X110379211Y-38894273D01*
X110005528Y-38433058D01*
X110002984Y-38424474D01*
X110006217Y-38417553D01*
X110549205Y-37857375D01*
X110557423Y-37853820D01*
X110559272Y-37853938D01*
G37*
%TD.AperFunction*%
%TD*%
M02*
