M48
; DRILL file {KiCad 8.0.5} date 2024-10-29T11:55:13-0600
; FORMAT={-:-/ absolute / metric / decimal}
; #@! TF.CreationDate,2024-10-29T11:55:13-06:00
; #@! TF.GenerationSoftware,Kicad,Pcbnew,8.0.5
; #@! TF.FileFunction,Plated,1,2,PTH
FMAT,2
METRIC
; #@! TA.AperFunction,Plated,PTH,ComponentDrill
T1C0.500
; #@! TA.AperFunction,Plated,PTH,ViaDrill
T2C0.700
%
G90
G05
T1
X116.5Y-61.25
X116.5Y-82.0
X117.5Y-31.5
X117.5Y-38.5
X117.5Y-45.5
X117.5Y-52.0
X118.0Y-61.25
X118.0Y-82.0
X119.0Y-31.5
X119.0Y-38.5
X119.0Y-45.5
X119.0Y-52.0
X119.5Y-61.25
X119.5Y-82.0
T2
X112.5Y-43.0
X112.5Y-45.0
X112.5Y-72.5
X112.5Y-75.0
X112.5Y-92.5
X112.5Y-95.0
X115.0Y-64.5
X115.0Y-66.5
X115.25Y-85.5
M30
